%TF.GenerationSoftware,KiCad,Pcbnew,(5.1.9)-1*%
%TF.CreationDate,2021-09-13T19:49:27+01:00*%
%TF.ProjectId,KOSMO Mult,4b4f534d-4f20-44d7-956c-742e6b696361,rev?*%
%TF.SameCoordinates,Original*%
%TF.FileFunction,Other,User*%
%FSLAX46Y46*%
G04 Gerber Fmt 4.6, Leading zero omitted, Abs format (unit mm)*
G04 Created by KiCad (PCBNEW (5.1.9)-1) date 2021-09-13 19:49:27*
%MOMM*%
%LPD*%
G01*
G04 APERTURE LIST*
%ADD10C,0.050000*%
G04 APERTURE END LIST*
D10*
%TO.C,C1*%
X55493000Y-59787500D02*
X50893000Y-59787500D01*
X55493000Y-57687500D02*
X55493000Y-59787500D01*
X50893000Y-57687500D02*
X55493000Y-57687500D01*
X50893000Y-59787500D02*
X50893000Y-57687500D01*
%TO.C,C2*%
X55683500Y-81758500D02*
X51083500Y-81758500D01*
X55683500Y-79658500D02*
X55683500Y-81758500D01*
X51083500Y-79658500D02*
X55683500Y-79658500D01*
X51083500Y-81758500D02*
X51083500Y-79658500D01*
%TO.C,C3*%
X55112000Y-126907000D02*
X50512000Y-126907000D01*
X55112000Y-124807000D02*
X55112000Y-126907000D01*
X50512000Y-124807000D02*
X55112000Y-124807000D01*
X50512000Y-126907000D02*
X50512000Y-124807000D01*
%TO.C,C4*%
X50766000Y-149703500D02*
X50766000Y-147603500D01*
X50766000Y-147603500D02*
X55366000Y-147603500D01*
X55366000Y-147603500D02*
X55366000Y-149703500D01*
X55366000Y-149703500D02*
X50766000Y-149703500D01*
%TO.C,C5*%
X25937500Y-126907000D02*
X25937500Y-124807000D01*
X25937500Y-124807000D02*
X30537500Y-124807000D01*
X30537500Y-124807000D02*
X30537500Y-126907000D01*
X30537500Y-126907000D02*
X25937500Y-126907000D01*
%TO.C,C6*%
X25683500Y-149767000D02*
X25683500Y-147667000D01*
X25683500Y-147667000D02*
X30283500Y-147667000D01*
X30283500Y-147667000D02*
X30283500Y-149767000D01*
X30283500Y-149767000D02*
X25683500Y-149767000D01*
%TO.C,C7*%
X39920242Y-62949999D02*
G75*
G03*
X39920242Y-62949999I-3400000J0D01*
G01*
%TO.C,C8*%
X39920242Y-70799999D02*
G75*
G03*
X39920242Y-70799999I-3400000J0D01*
G01*
%TO.C,D1*%
X18021500Y-56943000D02*
X21221500Y-56943000D01*
X21221500Y-56943000D02*
X21221500Y-69803000D01*
X21221500Y-69803000D02*
X18021500Y-69803000D01*
X18021500Y-69803000D02*
X18021500Y-56943000D01*
%TO.C,D2*%
X18021500Y-83201500D02*
X18021500Y-70341500D01*
X21221500Y-83201500D02*
X18021500Y-83201500D01*
X21221500Y-70341500D02*
X21221500Y-83201500D01*
X18021500Y-70341500D02*
X21221500Y-70341500D01*
%TO.C,J4*%
X21736000Y-80788000D02*
X31096000Y-80788000D01*
X21736000Y-59928000D02*
X21736000Y-80788000D01*
X31096000Y-59928000D02*
X21736000Y-59928000D01*
X31096000Y-80788000D02*
X31096000Y-59928000D01*
%TO.C,R1*%
X42140000Y-75404000D02*
X42140000Y-87664000D01*
X39140000Y-75404000D02*
X42140000Y-75404000D01*
X39140000Y-87664000D02*
X39140000Y-75404000D01*
X42140000Y-87664000D02*
X39140000Y-87664000D01*
%TO.C,R2*%
X59460000Y-57814500D02*
X62460000Y-57814500D01*
X62460000Y-57814500D02*
X62460000Y-70074500D01*
X62460000Y-70074500D02*
X59460000Y-70074500D01*
X59460000Y-70074500D02*
X59460000Y-57814500D01*
%TO.C,R3*%
X62460000Y-70641500D02*
X62460000Y-82901500D01*
X59460000Y-70641500D02*
X62460000Y-70641500D01*
X59460000Y-82901500D02*
X59460000Y-70641500D01*
X62460000Y-82901500D02*
X59460000Y-82901500D01*
%TO.C,R4*%
X44093000Y-70832000D02*
X47093000Y-70832000D01*
X47093000Y-70832000D02*
X47093000Y-83092000D01*
X47093000Y-83092000D02*
X44093000Y-83092000D01*
X44093000Y-83092000D02*
X44093000Y-70832000D01*
%TO.C,R5*%
X44156500Y-70074500D02*
X44156500Y-57814500D01*
X47156500Y-70074500D02*
X44156500Y-70074500D01*
X47156500Y-57814500D02*
X47156500Y-70074500D01*
X44156500Y-57814500D02*
X47156500Y-57814500D01*
%TO.C,R6*%
X42267000Y-136813000D02*
X39267000Y-136813000D01*
X39267000Y-136813000D02*
X39267000Y-124553000D01*
X39267000Y-124553000D02*
X42267000Y-124553000D01*
X42267000Y-124553000D02*
X42267000Y-136813000D01*
%TO.C,R7*%
X59142500Y-136749500D02*
X59142500Y-124489500D01*
X62142500Y-136749500D02*
X59142500Y-136749500D01*
X62142500Y-124489500D02*
X62142500Y-136749500D01*
X59142500Y-124489500D02*
X62142500Y-124489500D01*
%TO.C,R8*%
X59142500Y-149703500D02*
X59142500Y-137443500D01*
X62142500Y-149703500D02*
X59142500Y-149703500D01*
X62142500Y-137443500D02*
X62142500Y-149703500D01*
X59142500Y-137443500D02*
X62142500Y-137443500D01*
%TO.C,R9*%
X43775500Y-137443500D02*
X46775500Y-137443500D01*
X46775500Y-137443500D02*
X46775500Y-149703500D01*
X46775500Y-149703500D02*
X43775500Y-149703500D01*
X43775500Y-149703500D02*
X43775500Y-137443500D01*
%TO.C,R10*%
X46712000Y-124553000D02*
X46712000Y-136813000D01*
X43712000Y-124553000D02*
X46712000Y-124553000D01*
X43712000Y-136813000D02*
X43712000Y-124553000D01*
X46712000Y-136813000D02*
X43712000Y-136813000D01*
%TO.C,R11*%
X39267000Y-137443500D02*
X42267000Y-137443500D01*
X42267000Y-137443500D02*
X42267000Y-149703500D01*
X42267000Y-149703500D02*
X39267000Y-149703500D01*
X39267000Y-149703500D02*
X39267000Y-137443500D01*
%TO.C,R12*%
X34568000Y-136749500D02*
X34568000Y-124489500D01*
X37568000Y-136749500D02*
X34568000Y-136749500D01*
X37568000Y-124489500D02*
X37568000Y-136749500D01*
X34568000Y-124489500D02*
X37568000Y-124489500D01*
%TO.C,R13*%
X37504500Y-149576500D02*
X34504500Y-149576500D01*
X34504500Y-149576500D02*
X34504500Y-137316500D01*
X34504500Y-137316500D02*
X37504500Y-137316500D01*
X37504500Y-137316500D02*
X37504500Y-149576500D01*
%TO.C,R14*%
X21502500Y-137507000D02*
X21502500Y-149767000D01*
X18502500Y-137507000D02*
X21502500Y-137507000D01*
X18502500Y-149767000D02*
X18502500Y-137507000D01*
X21502500Y-149767000D02*
X18502500Y-149767000D01*
%TO.C,R15*%
X21566000Y-136813000D02*
X18566000Y-136813000D01*
X18566000Y-136813000D02*
X18566000Y-124553000D01*
X18566000Y-124553000D02*
X21566000Y-124553000D01*
X21566000Y-124553000D02*
X21566000Y-136813000D01*
%TO.C,U1*%
X58573000Y-60376000D02*
X58573000Y-78826000D01*
X58573000Y-78826000D02*
X47873000Y-78826000D01*
X47873000Y-78826000D02*
X47873000Y-60376000D01*
X47873000Y-60376000D02*
X58573000Y-60376000D01*
%TO.C,U2*%
X47746000Y-128448000D02*
X58446000Y-128448000D01*
X47746000Y-146898000D02*
X47746000Y-128448000D01*
X58446000Y-146898000D02*
X47746000Y-146898000D01*
X58446000Y-128448000D02*
X58446000Y-146898000D01*
%TO.C,U3*%
X33490500Y-128638500D02*
X33490500Y-147088500D01*
X33490500Y-147088500D02*
X22790500Y-147088500D01*
X22790500Y-147088500D02*
X22790500Y-128638500D01*
X22790500Y-128638500D02*
X33490500Y-128638500D01*
%TD*%
M02*
