%TF.GenerationSoftware,KiCad,Pcbnew,(5.1.9)-1*%
%TF.CreationDate,2021-09-13T19:49:27+01:00*%
%TF.ProjectId,KOSMO Mult,4b4f534d-4f20-44d7-956c-742e6b696361,rev?*%
%TF.SameCoordinates,Original*%
%TF.FileFunction,OtherDrawing,Comment*%
%FSLAX46Y46*%
G04 Gerber Fmt 4.6, Leading zero omitted, Abs format (unit mm)*
G04 Created by KiCad (PCBNEW (5.1.9)-1) date 2021-09-13 19:49:27*
%MOMM*%
%LPD*%
G01*
G04 APERTURE LIST*
%ADD10C,0.625000*%
%ADD11C,0.200000*%
%ADD12C,0.120000*%
G04 APERTURE END LIST*
D10*
X36555255Y-195109100D02*
X35698112Y-195109100D01*
X35269540Y-195347196D01*
X35055255Y-195585291D01*
X34626683Y-196299576D01*
X34412397Y-197251957D01*
X34412397Y-199156719D01*
X34626683Y-199632910D01*
X34840969Y-199871005D01*
X35269540Y-200109100D01*
X36126683Y-200109100D01*
X36555255Y-199871005D01*
X36769540Y-199632910D01*
X36983826Y-199156719D01*
X36983826Y-197966243D01*
X36769540Y-197490053D01*
X36555255Y-197251957D01*
X36126683Y-197013862D01*
X35269540Y-197013862D01*
X34840969Y-197251957D01*
X34626683Y-197490053D01*
X34412397Y-197966243D01*
X42340969Y-198204338D02*
X45769540Y-198204338D01*
X44055255Y-200109100D02*
X44055255Y-196299576D01*
X53698112Y-200109100D02*
X51126683Y-200109100D01*
X52412397Y-200109100D02*
X52412397Y-195109100D01*
X51983826Y-195823386D01*
X51555255Y-196299576D01*
X51126683Y-196537672D01*
X31523269Y-9738278D02*
X32166126Y-9976373D01*
X32380412Y-10214468D01*
X32594698Y-10690659D01*
X32594698Y-11404944D01*
X32380412Y-11881135D01*
X32166126Y-12119230D01*
X31737555Y-12357325D01*
X30023269Y-12357325D01*
X30023269Y-7357325D01*
X31523269Y-7357325D01*
X31951841Y-7595421D01*
X32166126Y-7833516D01*
X32380412Y-8309706D01*
X32380412Y-8785897D01*
X32166126Y-9262087D01*
X31951841Y-9500182D01*
X31523269Y-9738278D01*
X30023269Y-9738278D01*
X34523269Y-7357325D02*
X34523269Y-11404944D01*
X34737555Y-11881135D01*
X34951841Y-12119230D01*
X35380412Y-12357325D01*
X36237555Y-12357325D01*
X36666126Y-12119230D01*
X36880412Y-11881135D01*
X37094698Y-11404944D01*
X37094698Y-7357325D01*
X41808983Y-12357325D02*
X40308983Y-9976373D01*
X39237555Y-12357325D02*
X39237555Y-7357325D01*
X40951841Y-7357325D01*
X41380412Y-7595421D01*
X41594698Y-7833516D01*
X41808983Y-8309706D01*
X41808983Y-9023992D01*
X41594698Y-9500182D01*
X41380412Y-9738278D01*
X40951841Y-9976373D01*
X39237555Y-9976373D01*
X43737555Y-9738278D02*
X45237555Y-9738278D01*
X45880412Y-12357325D02*
X43737555Y-12357325D01*
X43737555Y-7357325D01*
X45880412Y-7357325D01*
X47808983Y-12357325D02*
X47808983Y-7357325D01*
X50380412Y-12357325D01*
X50380412Y-7357325D01*
X36555255Y-195109100D02*
X35698112Y-195109100D01*
X35269540Y-195347196D01*
X35055255Y-195585291D01*
X34626683Y-196299576D01*
X34412397Y-197251957D01*
X34412397Y-199156719D01*
X34626683Y-199632910D01*
X34840969Y-199871005D01*
X35269540Y-200109100D01*
X36126683Y-200109100D01*
X36555255Y-199871005D01*
X36769540Y-199632910D01*
X36983826Y-199156719D01*
X36983826Y-197966243D01*
X36769540Y-197490053D01*
X36555255Y-197251957D01*
X36126683Y-197013862D01*
X35269540Y-197013862D01*
X34840969Y-197251957D01*
X34626683Y-197490053D01*
X34412397Y-197966243D01*
X42340969Y-198204338D02*
X45769540Y-198204338D01*
X44055255Y-200109100D02*
X44055255Y-196299576D01*
X53698112Y-200109100D02*
X51126683Y-200109100D01*
X52412397Y-200109100D02*
X52412397Y-195109100D01*
X51983826Y-195823386D01*
X51555255Y-196299576D01*
X51126683Y-196537672D01*
X31523269Y-9738278D02*
X32166126Y-9976373D01*
X32380412Y-10214468D01*
X32594698Y-10690659D01*
X32594698Y-11404944D01*
X32380412Y-11881135D01*
X32166126Y-12119230D01*
X31737555Y-12357325D01*
X30023269Y-12357325D01*
X30023269Y-7357325D01*
X31523269Y-7357325D01*
X31951841Y-7595421D01*
X32166126Y-7833516D01*
X32380412Y-8309706D01*
X32380412Y-8785897D01*
X32166126Y-9262087D01*
X31951841Y-9500182D01*
X31523269Y-9738278D01*
X30023269Y-9738278D01*
X34523269Y-7357325D02*
X34523269Y-11404944D01*
X34737555Y-11881135D01*
X34951841Y-12119230D01*
X35380412Y-12357325D01*
X36237555Y-12357325D01*
X36666126Y-12119230D01*
X36880412Y-11881135D01*
X37094698Y-11404944D01*
X37094698Y-7357325D01*
X41808983Y-12357325D02*
X40308983Y-9976373D01*
X39237555Y-12357325D02*
X39237555Y-7357325D01*
X40951841Y-7357325D01*
X41380412Y-7595421D01*
X41594698Y-7833516D01*
X41808983Y-8309706D01*
X41808983Y-9023992D01*
X41594698Y-9500182D01*
X41380412Y-9738278D01*
X40951841Y-9976373D01*
X39237555Y-9976373D01*
X43737555Y-9738278D02*
X45237555Y-9738278D01*
X45880412Y-12357325D02*
X43737555Y-12357325D01*
X43737555Y-7357325D01*
X45880412Y-7357325D01*
X47808983Y-12357325D02*
X47808983Y-7357325D01*
X50380412Y-12357325D01*
X50380412Y-7357325D01*
D11*
X36195000Y-17736000D02*
X36195000Y-33736000D01*
X40694999Y-25736000D02*
X40694999Y-26448560D01*
X61194999Y-55736000D02*
X45195000Y-55736000D01*
X61194999Y-33736000D02*
X45195000Y-33736000D01*
X36195000Y-100736000D02*
X20195000Y-100736000D01*
X20195000Y-17736000D02*
X36195000Y-17736000D01*
X61194999Y-17736000D02*
X61194999Y-33736000D01*
X20195000Y-55736000D02*
X20195000Y-39736000D01*
X45195000Y-100736000D02*
X45195000Y-84736000D01*
X40694999Y-47736000D02*
X40694999Y-48448560D01*
X36195000Y-33736000D02*
X20195000Y-33736000D01*
X45195000Y-17736000D02*
X61194999Y-17736000D01*
X20195000Y-100736000D02*
X20195000Y-84736000D01*
X36195000Y-39736000D02*
X36195000Y-55736000D01*
X61194999Y-100736000D02*
X45195000Y-100736000D01*
X40694999Y-159736000D02*
X40694999Y-160448560D01*
X36195000Y-84736000D02*
X36195000Y-100736000D01*
X36195000Y-167736000D02*
X20195000Y-167736000D01*
X40694999Y-92736000D02*
X40694999Y-93448560D01*
X20195000Y-39736000D02*
X36195000Y-39736000D01*
X61194999Y-84736000D02*
X61194999Y-100736000D01*
X45195000Y-84736000D02*
X61194999Y-84736000D01*
X40694999Y-181736000D02*
X40694999Y-182448560D01*
X36195000Y-55736000D02*
X20195000Y-55736000D01*
X45195000Y-55736000D02*
X45195000Y-39736000D01*
X20195000Y-33736000D02*
X20195000Y-17736000D01*
X61194999Y-39736000D02*
X61194999Y-55736000D01*
X45195000Y-39736000D02*
X61194999Y-39736000D01*
X36195000Y-151736000D02*
X36195000Y-167736000D01*
X40694999Y-114736000D02*
X40694999Y-115448560D01*
X45195000Y-33736000D02*
X45195000Y-17736000D01*
X20195000Y-84736000D02*
X36195000Y-84736000D01*
X15695000Y-203736000D02*
X65695000Y-203736000D01*
X17095000Y-200736000D02*
X20295000Y-200736000D01*
X63695000Y-115736000D02*
X63695000Y-15736000D01*
X18695000Y-199135999D02*
X18695000Y-202335999D01*
X63695000Y-191736000D02*
X63695000Y-105417839D01*
X53195000Y-154736000D02*
X53195000Y-164736000D01*
X20295000Y-200736000D02*
G75*
G03*
X20295000Y-200736000I-1600000J0D01*
G01*
X17695000Y-191736000D02*
X63695000Y-191736000D01*
X63695000Y-15736000D02*
X17695000Y-15736000D01*
X20295000Y-6736000D02*
G75*
G03*
X20295000Y-6736000I-1600000J0D01*
G01*
X15695000Y-3736000D02*
X15695000Y-203736000D01*
X33195000Y-47736000D02*
G75*
G03*
X33195000Y-47736000I-5000000J0D01*
G01*
X48195000Y-47736000D02*
X58195000Y-47736000D01*
X61095000Y-200736000D02*
X64295000Y-200736000D01*
X33195000Y-181736000D02*
G75*
G03*
X33195000Y-181736000I-5000000J0D01*
G01*
X33195000Y-25736000D02*
G75*
G03*
X33195000Y-25736000I-5000000J0D01*
G01*
X53195000Y-30736000D02*
X53195000Y-20736000D01*
X62695000Y-199135999D02*
X62695000Y-202335999D01*
X58195000Y-181736000D02*
G75*
G03*
X58195000Y-181736000I-5000000J0D01*
G01*
X64295000Y-6736000D02*
G75*
G03*
X64295000Y-6736000I-1600000J0D01*
G01*
X18695000Y-5135999D02*
X18695000Y-8335999D01*
X23195000Y-159736000D02*
X33195000Y-159736000D01*
X33195000Y-159736000D02*
G75*
G03*
X33195000Y-159736000I-5000000J0D01*
G01*
X28195000Y-176736000D02*
X28195000Y-186736000D01*
X48195000Y-159736000D02*
X58195000Y-159736000D01*
X65695000Y-3736000D02*
X15695000Y-3736000D01*
X17095000Y-6736000D02*
X20295000Y-6736000D01*
X53195000Y-176736000D02*
X53195000Y-186736000D01*
X23195000Y-25736000D02*
X33195000Y-25736000D01*
X28195000Y-154736000D02*
X28195000Y-164736000D01*
X62695000Y-5135999D02*
X62695000Y-8335999D01*
X65695000Y-203736000D02*
X65695000Y-3736000D01*
X28195000Y-52736000D02*
X28195000Y-42736000D01*
X23195000Y-47736000D02*
X33195000Y-47736000D01*
X53195000Y-52736000D02*
X53195000Y-42736000D01*
X48195000Y-25736000D02*
X58195000Y-25736000D01*
X58195000Y-47736000D02*
G75*
G03*
X58195000Y-47736000I-5000000J0D01*
G01*
X58195000Y-159736000D02*
G75*
G03*
X58195000Y-159736000I-5000000J0D01*
G01*
X23195000Y-181736000D02*
X33195000Y-181736000D01*
X17695000Y-105417839D02*
X17695000Y-191736000D01*
X17695000Y-15736000D02*
X17695000Y-115736000D01*
X58195000Y-25736000D02*
G75*
G03*
X58195000Y-25736000I-5000000J0D01*
G01*
X28195000Y-30736000D02*
X28195000Y-20736000D01*
X64295000Y-200736000D02*
G75*
G03*
X64295000Y-200736000I-1600000J0D01*
G01*
X48195000Y-181736000D02*
X58195000Y-181736000D01*
X61095000Y-6736000D02*
X64295000Y-6736000D01*
X61194999Y-100736000D02*
X45195000Y-100736000D01*
X53195000Y-87736000D02*
X53195000Y-97736000D01*
X61194999Y-151736000D02*
X61194999Y-167736000D01*
X45195000Y-167736000D02*
X45195000Y-151736000D01*
X33195000Y-92736000D02*
G75*
G03*
X33195000Y-92736000I-5000000J0D01*
G01*
X48195000Y-114736000D02*
X58195000Y-114736000D01*
X36195000Y-173736000D02*
X36195000Y-189736000D01*
X45195000Y-84736000D02*
X61194999Y-84736000D01*
X53195000Y-109736000D02*
X53195000Y-119736000D01*
X45195000Y-151736000D02*
X61194999Y-151736000D01*
X45195000Y-173736000D02*
X61194999Y-173736000D01*
X20195000Y-189736000D02*
X20195000Y-173736000D01*
X28195000Y-109736000D02*
X28195000Y-119736000D01*
X61194999Y-173736000D02*
X61194999Y-189736000D01*
X20195000Y-39736000D02*
X36195000Y-39736000D01*
X20195000Y-55736000D02*
X20195000Y-39736000D01*
X61194999Y-84736000D02*
X61194999Y-100736000D01*
X20195000Y-84736000D02*
X36195000Y-84736000D01*
X20195000Y-100736000D02*
X20195000Y-84736000D01*
X20195000Y-151736000D02*
X36195000Y-151736000D01*
X33195000Y-114736000D02*
G75*
G03*
X33195000Y-114736000I-5000000J0D01*
G01*
X45195000Y-189736000D02*
X45195000Y-173736000D01*
X61194999Y-167736000D02*
X45195000Y-167736000D01*
X36195000Y-189736000D02*
X20195000Y-189736000D01*
X36195000Y-106736000D02*
X36195000Y-122736000D01*
X20195000Y-167736000D02*
X20195000Y-151736000D01*
X45195000Y-100736000D02*
X45195000Y-84736000D01*
X36195000Y-84736000D02*
X36195000Y-100736000D01*
X36195000Y-151736000D02*
X36195000Y-167736000D01*
X20195000Y-173736000D02*
X36195000Y-173736000D01*
X28195000Y-87736000D02*
X28195000Y-97736000D01*
X36195000Y-167736000D02*
X20195000Y-167736000D01*
X45195000Y-106736000D02*
X61194999Y-106736000D01*
X61194999Y-106736000D02*
X61194999Y-122736000D01*
X58195000Y-92736000D02*
G75*
G03*
X58195000Y-92736000I-5000000J0D01*
G01*
X23195000Y-114736000D02*
X33195000Y-114736000D01*
X23195000Y-92736000D02*
X33195000Y-92736000D01*
X61194999Y-189736000D02*
X45195000Y-189736000D01*
X36195000Y-100736000D02*
X20195000Y-100736000D01*
X61194999Y-122736000D02*
X45195000Y-122736000D01*
X45195000Y-122736000D02*
X45195000Y-106736000D01*
X36195000Y-122736000D02*
X20195000Y-122736000D01*
X58195000Y-114736000D02*
G75*
G03*
X58195000Y-114736000I-5000000J0D01*
G01*
X20195000Y-106736000D02*
X36195000Y-106736000D01*
X48195000Y-92736000D02*
X58195000Y-92736000D01*
X20195000Y-122736000D02*
X20195000Y-106736000D01*
X61194999Y-106736000D02*
X61194999Y-122736000D01*
X20195000Y-106736000D02*
X36195000Y-106736000D01*
X36195000Y-106736000D02*
X36195000Y-122736000D01*
X20195000Y-122736000D02*
X20195000Y-106736000D01*
X43195000Y-47736000D02*
G75*
G03*
X43195000Y-47736000I-2500000J0D01*
G01*
X36195000Y-122736000D02*
X20195000Y-122736000D01*
X45195000Y-106736000D02*
X61194999Y-106736000D01*
X45195000Y-122736000D02*
X45195000Y-106736000D01*
X38256166Y-47969672D02*
X43122666Y-47503396D01*
X20195000Y-167736000D02*
X20195000Y-151736000D01*
X65695000Y-203736000D02*
X65695000Y-3736000D01*
X58195000Y-159736000D02*
G75*
G03*
X58195000Y-159736000I-5000000J0D01*
G01*
X17695000Y-191736000D02*
X63695000Y-191736000D01*
X43195000Y-47736000D02*
G75*
G03*
X43195000Y-47736000I-2500000J0D01*
G01*
X43195000Y-25736000D02*
G75*
G03*
X43195000Y-25736000I-2500000J0D01*
G01*
X33195000Y-181736000D02*
G75*
G03*
X33195000Y-181736000I-5000000J0D01*
G01*
X63695000Y-191736000D02*
X63695000Y-105417839D01*
X15695000Y-203736000D02*
X65695000Y-203736000D01*
X38256166Y-47969672D02*
X43122666Y-47503396D01*
X65695000Y-3736000D02*
X15695000Y-3736000D01*
X40455166Y-45301272D02*
X40933566Y-50157872D01*
X53195000Y-176736000D02*
X53195000Y-186736000D01*
X58195000Y-181736000D02*
G75*
G03*
X58195000Y-181736000I-5000000J0D01*
G01*
X23195000Y-181736000D02*
X33195000Y-181736000D01*
X15695000Y-3736000D02*
X15695000Y-203736000D01*
X48195000Y-181736000D02*
X58195000Y-181736000D01*
X63695000Y-15736000D02*
X17695000Y-15736000D01*
X63695000Y-115736000D02*
X63695000Y-15736000D01*
X40694999Y-47736000D02*
X40694999Y-48448560D01*
X38256166Y-25969672D02*
X43122666Y-25503396D01*
X43195000Y-114736000D02*
G75*
G03*
X43195000Y-114736000I-2500000J0D01*
G01*
X40694999Y-114736000D02*
X40694999Y-115448560D01*
X40455166Y-23301272D02*
X40933566Y-28157872D01*
X28195000Y-176736000D02*
X28195000Y-186736000D01*
X17695000Y-15736000D02*
X17695000Y-115736000D01*
X40694999Y-25736000D02*
X40694999Y-26448560D01*
X17695000Y-105417839D02*
X17695000Y-191736000D01*
X43195000Y-92736000D02*
G75*
G03*
X43195000Y-92736000I-2500000J0D01*
G01*
X38256166Y-92969672D02*
X43122666Y-92503396D01*
X20195000Y-33736000D02*
X20195000Y-17736000D01*
X40455166Y-90301272D02*
X40933566Y-95157872D01*
X40694999Y-181736000D02*
X40694999Y-182448560D01*
X43195000Y-181736000D02*
G75*
G03*
X43195000Y-181736000I-2500000J0D01*
G01*
X61194999Y-39736000D02*
X61194999Y-55736000D01*
X38256166Y-181969672D02*
X43122666Y-181503396D01*
X40694999Y-159736000D02*
X40694999Y-160448560D01*
X43195000Y-159736000D02*
G75*
G03*
X43195000Y-159736000I-2500000J0D01*
G01*
X45195000Y-39736000D02*
X61194999Y-39736000D01*
X40455166Y-157301272D02*
X40933566Y-162157872D01*
X36195000Y-33736000D02*
X20195000Y-33736000D01*
X61194999Y-33736000D02*
X45195000Y-33736000D01*
X20195000Y-17736000D02*
X36195000Y-17736000D01*
X61194999Y-17736000D02*
X61194999Y-33736000D01*
X45195000Y-17736000D02*
X61194999Y-17736000D01*
X36195000Y-55736000D02*
X20195000Y-55736000D01*
X36195000Y-39736000D02*
X36195000Y-55736000D01*
X38256166Y-114969672D02*
X43122666Y-114503396D01*
X40455166Y-112301272D02*
X40933566Y-117157872D01*
X45195000Y-33736000D02*
X45195000Y-17736000D01*
X45195000Y-55736000D02*
X45195000Y-39736000D01*
X40694999Y-92736000D02*
X40694999Y-93448560D01*
X40455166Y-179301272D02*
X40933566Y-184157872D01*
X38256166Y-159969672D02*
X43122666Y-159503396D01*
X61194999Y-55736000D02*
X45195000Y-55736000D01*
X36195000Y-17736000D02*
X36195000Y-33736000D01*
X20195000Y-151736000D02*
X36195000Y-151736000D01*
X45195000Y-189736000D02*
X45195000Y-173736000D01*
X45195000Y-173736000D02*
X61194999Y-173736000D01*
X61194999Y-189736000D02*
X45195000Y-189736000D01*
X61194999Y-173736000D02*
X61194999Y-189736000D01*
X17095000Y-200736000D02*
X20295000Y-200736000D01*
X33195000Y-159736000D02*
G75*
G03*
X33195000Y-159736000I-5000000J0D01*
G01*
X61095000Y-200736000D02*
X64295000Y-200736000D01*
X23195000Y-159736000D02*
X33195000Y-159736000D01*
X62695000Y-199135999D02*
X62695000Y-202335999D01*
X20295000Y-200736000D02*
G75*
G03*
X20295000Y-200736000I-1600000J0D01*
G01*
X53195000Y-154736000D02*
X53195000Y-164736000D01*
X18695000Y-5135999D02*
X18695000Y-8335999D01*
X48195000Y-159736000D02*
X58195000Y-159736000D01*
X64295000Y-200736000D02*
G75*
G03*
X64295000Y-200736000I-1600000J0D01*
G01*
X62695000Y-5135999D02*
X62695000Y-8335999D01*
X61095000Y-6736000D02*
X64295000Y-6736000D01*
X64295000Y-6736000D02*
G75*
G03*
X64295000Y-6736000I-1600000J0D01*
G01*
X17095000Y-6736000D02*
X20295000Y-6736000D01*
X20295000Y-6736000D02*
G75*
G03*
X20295000Y-6736000I-1600000J0D01*
G01*
X18695000Y-199135999D02*
X18695000Y-202335999D01*
X28195000Y-154736000D02*
X28195000Y-164736000D01*
X53195000Y-30736000D02*
X53195000Y-20736000D01*
X48195000Y-25736000D02*
X58195000Y-25736000D01*
X58195000Y-25736000D02*
G75*
G03*
X58195000Y-25736000I-5000000J0D01*
G01*
X28195000Y-30736000D02*
X28195000Y-20736000D01*
X23195000Y-25736000D02*
X33195000Y-25736000D01*
X33195000Y-25736000D02*
G75*
G03*
X33195000Y-25736000I-5000000J0D01*
G01*
X61194999Y-151736000D02*
X61194999Y-167736000D01*
X45195000Y-151736000D02*
X61194999Y-151736000D01*
X45195000Y-167736000D02*
X45195000Y-151736000D01*
X61194999Y-167736000D02*
X45195000Y-167736000D01*
X33195000Y-114736000D02*
G75*
G03*
X33195000Y-114736000I-5000000J0D01*
G01*
X53195000Y-87736000D02*
X53195000Y-97736000D01*
X58195000Y-47736000D02*
G75*
G03*
X58195000Y-47736000I-5000000J0D01*
G01*
X48195000Y-47736000D02*
X58195000Y-47736000D01*
X48195000Y-92736000D02*
X58195000Y-92736000D01*
X53195000Y-52736000D02*
X53195000Y-42736000D01*
X48195000Y-114736000D02*
X58195000Y-114736000D01*
X28195000Y-109736000D02*
X28195000Y-119736000D01*
X23195000Y-114736000D02*
X33195000Y-114736000D01*
X28195000Y-52736000D02*
X28195000Y-42736000D01*
X23195000Y-47736000D02*
X33195000Y-47736000D01*
X53195000Y-109736000D02*
X53195000Y-119736000D01*
X23195000Y-92736000D02*
X33195000Y-92736000D01*
X38256166Y-159969672D02*
X43122666Y-159503396D01*
X58195000Y-114736000D02*
G75*
G03*
X58195000Y-114736000I-5000000J0D01*
G01*
X40455166Y-157301272D02*
X40933566Y-162157872D01*
X33195000Y-47736000D02*
G75*
G03*
X33195000Y-47736000I-5000000J0D01*
G01*
X58195000Y-92736000D02*
G75*
G03*
X58195000Y-92736000I-5000000J0D01*
G01*
X28195000Y-87736000D02*
X28195000Y-97736000D01*
X33195000Y-92736000D02*
G75*
G03*
X33195000Y-92736000I-5000000J0D01*
G01*
X38256166Y-181969672D02*
X43122666Y-181503396D01*
X40455166Y-90301272D02*
X40933566Y-95157872D01*
X43195000Y-159736000D02*
G75*
G03*
X43195000Y-159736000I-2500000J0D01*
G01*
X40455166Y-45301272D02*
X40933566Y-50157872D01*
X40455166Y-179301272D02*
X40933566Y-184157872D01*
X43195000Y-25736000D02*
G75*
G03*
X43195000Y-25736000I-2500000J0D01*
G01*
X38256166Y-25969672D02*
X43122666Y-25503396D01*
X43195000Y-92736000D02*
G75*
G03*
X43195000Y-92736000I-2500000J0D01*
G01*
X40455166Y-23301272D02*
X40933566Y-28157872D01*
X40455166Y-112301272D02*
X40933566Y-117157872D01*
X43195000Y-114736000D02*
G75*
G03*
X43195000Y-114736000I-2500000J0D01*
G01*
X43195000Y-181736000D02*
G75*
G03*
X43195000Y-181736000I-2500000J0D01*
G01*
X38256166Y-114969672D02*
X43122666Y-114503396D01*
X38256166Y-92969672D02*
X43122666Y-92503396D01*
X20195000Y-173736000D02*
X36195000Y-173736000D01*
X20195000Y-189736000D02*
X20195000Y-173736000D01*
X61194999Y-122736000D02*
X45195000Y-122736000D01*
X36195000Y-189736000D02*
X20195000Y-189736000D01*
X36195000Y-173736000D02*
X36195000Y-189736000D01*
D12*
%TO.C,J1*%
X20300000Y-17891000D02*
X36048000Y-17891000D01*
X36048000Y-17891000D02*
X36048000Y-30591000D01*
X36048000Y-30591000D02*
X36048000Y-31607000D01*
X20300000Y-33639000D02*
X20300000Y-17891000D01*
X36048000Y-31607000D02*
X33508000Y-33639000D01*
X33508000Y-33639000D02*
X20300000Y-33639000D01*
%TO.C,J2*%
X58527000Y-33639000D02*
X45319000Y-33639000D01*
X61067000Y-31607000D02*
X58527000Y-33639000D01*
X45319000Y-33639000D02*
X45319000Y-17891000D01*
X61067000Y-30591000D02*
X61067000Y-31607000D01*
X61067000Y-17891000D02*
X61067000Y-30591000D01*
X45319000Y-17891000D02*
X61067000Y-17891000D01*
%TO.C,J3*%
X20300000Y-39862000D02*
X36048000Y-39862000D01*
X36048000Y-39862000D02*
X36048000Y-52562000D01*
X36048000Y-52562000D02*
X36048000Y-53578000D01*
X20300000Y-55610000D02*
X20300000Y-39862000D01*
X36048000Y-53578000D02*
X33508000Y-55610000D01*
X33508000Y-55610000D02*
X20300000Y-55610000D01*
%TO.C,J5*%
X58527000Y-55610000D02*
X45319000Y-55610000D01*
X61067000Y-53578000D02*
X58527000Y-55610000D01*
X45319000Y-55610000D02*
X45319000Y-39862000D01*
X61067000Y-52562000D02*
X61067000Y-53578000D01*
X61067000Y-39862000D02*
X61067000Y-52562000D01*
X45319000Y-39862000D02*
X61067000Y-39862000D01*
%TO.C,J6*%
X33508000Y-100568000D02*
X20300000Y-100568000D01*
X36048000Y-98536000D02*
X33508000Y-100568000D01*
X20300000Y-100568000D02*
X20300000Y-84820000D01*
X36048000Y-97520000D02*
X36048000Y-98536000D01*
X36048000Y-84820000D02*
X36048000Y-97520000D01*
X20300000Y-84820000D02*
X36048000Y-84820000D01*
%TO.C,J7*%
X45319000Y-84820000D02*
X61067000Y-84820000D01*
X61067000Y-84820000D02*
X61067000Y-97520000D01*
X61067000Y-97520000D02*
X61067000Y-98536000D01*
X45319000Y-100568000D02*
X45319000Y-84820000D01*
X61067000Y-98536000D02*
X58527000Y-100568000D01*
X58527000Y-100568000D02*
X45319000Y-100568000D01*
%TO.C,J8*%
X33508000Y-122666000D02*
X20300000Y-122666000D01*
X36048000Y-120634000D02*
X33508000Y-122666000D01*
X20300000Y-122666000D02*
X20300000Y-106918000D01*
X36048000Y-119618000D02*
X36048000Y-120634000D01*
X36048000Y-106918000D02*
X36048000Y-119618000D01*
X20300000Y-106918000D02*
X36048000Y-106918000D01*
%TO.C,J9*%
X45319000Y-106918000D02*
X61067000Y-106918000D01*
X61067000Y-106918000D02*
X61067000Y-119618000D01*
X61067000Y-119618000D02*
X61067000Y-120634000D01*
X45319000Y-122666000D02*
X45319000Y-106918000D01*
X61067000Y-120634000D02*
X58527000Y-122666000D01*
X58527000Y-122666000D02*
X45319000Y-122666000D01*
%TO.C,J10*%
X20300000Y-151876000D02*
X36048000Y-151876000D01*
X36048000Y-151876000D02*
X36048000Y-164576000D01*
X36048000Y-164576000D02*
X36048000Y-165592000D01*
X20300000Y-167624000D02*
X20300000Y-151876000D01*
X36048000Y-165592000D02*
X33508000Y-167624000D01*
X33508000Y-167624000D02*
X20300000Y-167624000D01*
%TO.C,J11*%
X58527000Y-167624000D02*
X45319000Y-167624000D01*
X61067000Y-165592000D02*
X58527000Y-167624000D01*
X45319000Y-167624000D02*
X45319000Y-151876000D01*
X61067000Y-164576000D02*
X61067000Y-165592000D01*
X61067000Y-151876000D02*
X61067000Y-164576000D01*
X45319000Y-151876000D02*
X61067000Y-151876000D01*
%TO.C,J12*%
X20300000Y-173847000D02*
X36048000Y-173847000D01*
X36048000Y-173847000D02*
X36048000Y-186547000D01*
X36048000Y-186547000D02*
X36048000Y-187563000D01*
X20300000Y-189595000D02*
X20300000Y-173847000D01*
X36048000Y-187563000D02*
X33508000Y-189595000D01*
X33508000Y-189595000D02*
X20300000Y-189595000D01*
%TO.C,J13*%
X58527000Y-189595000D02*
X45319000Y-189595000D01*
X61067000Y-187563000D02*
X58527000Y-189595000D01*
X45319000Y-189595000D02*
X45319000Y-173847000D01*
X61067000Y-186547000D02*
X61067000Y-187563000D01*
X61067000Y-173847000D02*
X61067000Y-186547000D01*
X45319000Y-173847000D02*
X61067000Y-173847000D01*
%TD*%
M02*
