%TF.GenerationSoftware,KiCad,Pcbnew,(5.1.9)-1*%
%TF.CreationDate,2021-09-13T19:49:27+01:00*%
%TF.ProjectId,KOSMO Mult,4b4f534d-4f20-44d7-956c-742e6b696361,rev?*%
%TF.SameCoordinates,Original*%
%TF.FileFunction,Other,User*%
%FSLAX46Y46*%
G04 Gerber Fmt 4.6, Leading zero omitted, Abs format (unit mm)*
G04 Created by KiCad (PCBNEW (5.1.9)-1) date 2021-09-13 19:49:27*
%MOMM*%
%LPD*%
G01*
G04 APERTURE LIST*
%ADD10C,0.050000*%
%ADD11C,0.120000*%
G04 APERTURE END LIST*
D10*
%TO.C,D3*%
X43890000Y-29011000D02*
X43890000Y-22561000D01*
X37390000Y-29011000D02*
X43890000Y-29011000D01*
X37390000Y-22561000D02*
X37390000Y-29011000D01*
X43890000Y-22561000D02*
X37390000Y-22561000D01*
%TO.C,D4*%
X44017000Y-44532000D02*
X37517000Y-44532000D01*
X37517000Y-44532000D02*
X37517000Y-50982000D01*
X37517000Y-50982000D02*
X44017000Y-50982000D01*
X44017000Y-50982000D02*
X44017000Y-44532000D01*
%TO.C,D5*%
X43953500Y-89553500D02*
X37453500Y-89553500D01*
X37453500Y-89553500D02*
X37453500Y-96003500D01*
X37453500Y-96003500D02*
X43953500Y-96003500D01*
X43953500Y-96003500D02*
X43953500Y-89553500D01*
%TO.C,D6*%
X43953500Y-111524500D02*
X37453500Y-111524500D01*
X37453500Y-111524500D02*
X37453500Y-117974500D01*
X37453500Y-117974500D02*
X43953500Y-117974500D01*
X43953500Y-117974500D02*
X43953500Y-111524500D01*
%TO.C,D7*%
X43953500Y-162996000D02*
X43953500Y-156546000D01*
X37453500Y-162996000D02*
X43953500Y-162996000D01*
X37453500Y-156546000D02*
X37453500Y-162996000D01*
X43953500Y-156546000D02*
X37453500Y-156546000D01*
%TO.C,D8*%
X43953500Y-184967000D02*
X43953500Y-178517000D01*
X37453500Y-184967000D02*
X43953500Y-184967000D01*
X37453500Y-178517000D02*
X37453500Y-184967000D01*
X43953500Y-178517000D02*
X37453500Y-178517000D01*
D11*
%TO.C,J1*%
X19194000Y-16781000D02*
X37194000Y-16781000D01*
X37194000Y-16781000D02*
X37194000Y-34781000D01*
X37194000Y-34781000D02*
X19194000Y-34781000D01*
X19194000Y-34781000D02*
X19194000Y-16781000D01*
%TO.C,J2*%
X44213000Y-34781000D02*
X44213000Y-16781000D01*
X62213000Y-34781000D02*
X44213000Y-34781000D01*
X62213000Y-16781000D02*
X62213000Y-34781000D01*
X44213000Y-16781000D02*
X62213000Y-16781000D01*
%TO.C,J3*%
X19194000Y-38752000D02*
X37194000Y-38752000D01*
X37194000Y-38752000D02*
X37194000Y-56752000D01*
X37194000Y-56752000D02*
X19194000Y-56752000D01*
X19194000Y-56752000D02*
X19194000Y-38752000D01*
%TO.C,J5*%
X44213000Y-56752000D02*
X44213000Y-38752000D01*
X62213000Y-56752000D02*
X44213000Y-56752000D01*
X62213000Y-38752000D02*
X62213000Y-56752000D01*
X44213000Y-38752000D02*
X62213000Y-38752000D01*
%TO.C,J6*%
X19194000Y-101710000D02*
X19194000Y-83710000D01*
X37194000Y-101710000D02*
X19194000Y-101710000D01*
X37194000Y-83710000D02*
X37194000Y-101710000D01*
X19194000Y-83710000D02*
X37194000Y-83710000D01*
%TO.C,J7*%
X44213000Y-83710000D02*
X62213000Y-83710000D01*
X62213000Y-83710000D02*
X62213000Y-101710000D01*
X62213000Y-101710000D02*
X44213000Y-101710000D01*
X44213000Y-101710000D02*
X44213000Y-83710000D01*
%TO.C,J8*%
X19194000Y-123808000D02*
X19194000Y-105808000D01*
X37194000Y-123808000D02*
X19194000Y-123808000D01*
X37194000Y-105808000D02*
X37194000Y-123808000D01*
X19194000Y-105808000D02*
X37194000Y-105808000D01*
%TO.C,J9*%
X44213000Y-105808000D02*
X62213000Y-105808000D01*
X62213000Y-105808000D02*
X62213000Y-123808000D01*
X62213000Y-123808000D02*
X44213000Y-123808000D01*
X44213000Y-123808000D02*
X44213000Y-105808000D01*
%TO.C,J10*%
X19194000Y-150766000D02*
X37194000Y-150766000D01*
X37194000Y-150766000D02*
X37194000Y-168766000D01*
X37194000Y-168766000D02*
X19194000Y-168766000D01*
X19194000Y-168766000D02*
X19194000Y-150766000D01*
%TO.C,J11*%
X44213000Y-168766000D02*
X44213000Y-150766000D01*
X62213000Y-168766000D02*
X44213000Y-168766000D01*
X62213000Y-150766000D02*
X62213000Y-168766000D01*
X44213000Y-150766000D02*
X62213000Y-150766000D01*
%TO.C,J12*%
X19194000Y-172737000D02*
X37194000Y-172737000D01*
X37194000Y-172737000D02*
X37194000Y-190737000D01*
X37194000Y-190737000D02*
X19194000Y-190737000D01*
X19194000Y-190737000D02*
X19194000Y-172737000D01*
%TO.C,J13*%
X44213000Y-190737000D02*
X44213000Y-172737000D01*
X62213000Y-190737000D02*
X44213000Y-190737000D01*
X62213000Y-172737000D02*
X62213000Y-190737000D01*
X44213000Y-172737000D02*
X62213000Y-172737000D01*
%TD*%
M02*
