M48
; DRILL file {KiCad (5.1.9)-1} date 09/13/21 19:49:29
; FORMAT={-:-/ absolute / inch / decimal}
; #@! TF.CreationDate,2021-09-13T19:49:29+01:00
; #@! TF.GenerationSoftware,Kicad,Pcbnew,(5.1.9)-1
; #@! TF.FileFunction,Plated,1,2,PTH
FMAT,2
INCH
T1C0.0315
T2C0.0354
T3C0.0400
T4C0.0433
T5C0.1063
%
G90
G05
T1
X0.7875Y-5.455
X0.7875Y-5.855
X0.79Y-4.945
X0.79Y-5.345
X0.9575Y-5.1275
X0.9575Y-5.2275
X0.9575Y-5.3275
X0.9575Y-5.4275
X0.9575Y-5.5275
X0.9575Y-5.6275
X0.9575Y-5.7275
X1.0525Y-5.855
X1.0625Y-4.955
X1.1509Y-5.855
X1.1609Y-4.955
X1.2575Y-5.1275
X1.2575Y-5.2275
X1.2575Y-5.3275
X1.2575Y-5.4275
X1.2575Y-5.5275
X1.2575Y-5.6275
X1.2575Y-5.7275
X1.3886Y-2.4783
X1.3886Y-2.7874
X1.4175Y-5.4475
X1.4175Y-5.8475
X1.42Y-4.9425
X1.42Y-5.3425
X1.487Y-2.4783
X1.487Y-2.7874
X1.6Y-3.01
X1.6Y-3.41
X1.605Y-4.945
X1.605Y-5.345
X1.605Y-5.4525
X1.605Y-5.8525
X1.78Y-4.945
X1.78Y-5.345
X1.7825Y-5.4525
X1.7825Y-5.8525
X1.795Y-2.83
X1.795Y-3.23
X1.7975Y-2.3175
X1.7975Y-2.7175
X1.94Y-5.12
X1.94Y-5.22
X1.94Y-5.32
X1.94Y-5.42
X1.94Y-5.52
X1.94Y-5.62
X1.94Y-5.72
X1.945Y-2.44
X1.945Y-2.54
X1.945Y-2.64
X1.945Y-2.74
X1.945Y-2.84
X1.945Y-2.94
X1.945Y-3.04
X2.03Y-4.955
X2.04Y-5.8525
X2.045Y-2.3125
X2.0525Y-3.1775
X2.1284Y-4.955
X2.1384Y-5.8525
X2.1434Y-2.3125
X2.1509Y-3.1775
X2.24Y-5.12
X2.24Y-5.22
X2.24Y-5.32
X2.24Y-5.42
X2.24Y-5.52
X2.24Y-5.62
X2.24Y-5.72
X2.245Y-2.44
X2.245Y-2.54
X2.245Y-2.64
X2.245Y-2.74
X2.245Y-2.84
X2.245Y-2.94
X2.245Y-3.04
X2.3875Y-4.9425
X2.3875Y-5.3425
X2.3875Y-5.4525
X2.3875Y-5.8525
X2.4Y-2.3175
X2.4Y-2.7175
X2.4Y-2.8225
X2.4Y-3.2225
T2
X1.6Y-0.965
X1.6Y-1.065
X1.6025Y-3.6025
X1.6025Y-3.7025
X1.6025Y-4.4675
X1.6025Y-4.5675
X1.6025Y-6.24
X1.6025Y-6.34
X1.6025Y-7.105
X1.6025Y-7.205
X1.605Y-1.83
X1.605Y-1.93
T3
X0.99Y-2.57
X0.99Y-2.67
X0.99Y-2.77
X0.99Y-2.87
X0.99Y-2.97
X1.09Y-2.57
X1.09Y-2.67
X1.09Y-2.77
X1.09Y-2.87
X1.09Y-2.97
T4
X0.7725Y-2.295
X0.7725Y-2.695
X0.7725Y-2.8225
X0.7725Y-3.2225
T5
X0.858Y-1.0347
X0.858Y-1.8997
X0.858Y-3.6697
X0.858Y-4.5397
X0.858Y-6.3097
X0.858Y-7.1747
X1.0116Y-1.267
X1.0116Y-2.132
X1.0116Y-3.902
X1.0116Y-4.772
X1.0116Y-6.542
X1.0116Y-7.407
X1.1297Y-0.763
X1.1297Y-1.628
X1.1297Y-3.398
X1.1297Y-4.268
X1.1297Y-6.038
X1.1297Y-6.903
X1.2966Y-1.2016
X1.2966Y-2.0666
X1.2966Y-3.8366
X1.2966Y-4.7066
X1.2966Y-6.4766
X1.2966Y-7.3416
X1.362Y-0.9166
X1.362Y-1.7816
X1.362Y-3.5516
X1.362Y-4.4216
X1.362Y-6.1916
X1.362Y-7.0566
X1.843Y-1.0347
X1.843Y-1.8997
X1.843Y-3.6697
X1.843Y-4.5397
X1.843Y-6.3097
X1.843Y-7.1747
X1.9966Y-1.267
X1.9966Y-2.132
X1.9966Y-3.902
X1.9966Y-4.772
X1.9966Y-6.542
X1.9966Y-7.407
X2.1147Y-0.763
X2.1147Y-1.628
X2.1147Y-3.398
X2.1147Y-4.268
X2.1147Y-6.038
X2.1147Y-6.903
X2.2816Y-1.2016
X2.2816Y-2.0666
X2.2816Y-3.8366
X2.2816Y-4.7066
X2.2816Y-6.4766
X2.2816Y-7.3416
X2.347Y-0.9166
X2.347Y-1.7816
X2.347Y-3.5516
X2.347Y-4.4216
X2.347Y-6.1916
X2.347Y-7.0566
T0
M30
