%TF.GenerationSoftware,KiCad,Pcbnew,(5.1.9)-1*%
%TF.CreationDate,2021-09-13T19:49:27+01:00*%
%TF.ProjectId,KOSMO Mult,4b4f534d-4f20-44d7-956c-742e6b696361,rev?*%
%TF.SameCoordinates,Original*%
%TF.FileFunction,Soldermask,Top*%
%TF.FilePolarity,Negative*%
%FSLAX46Y46*%
G04 Gerber Fmt 4.6, Leading zero omitted, Abs format (unit mm)*
G04 Created by KiCad (PCBNEW (5.1.9)-1) date 2021-09-13 19:49:27*
%MOMM*%
%LPD*%
G01*
G04 APERTURE LIST*
%ADD10C,1.600000*%
%ADD11R,1.600000X1.600000*%
%ADD12R,2.200000X2.200000*%
%ADD13O,2.200000X2.200000*%
%ADD14C,1.800000*%
%ADD15R,1.800000X1.800000*%
%ADD16C,4.500001*%
%ADD17C,4.500000*%
%ADD18R,4.500001X4.500001*%
%ADD19R,1.727200X1.727200*%
%ADD20O,1.727200X1.727200*%
%ADD21O,1.600000X1.600000*%
%ADD22R,2.400000X1.600000*%
%ADD23O,2.400000X1.600000*%
G04 APERTURE END LIST*
D10*
%TO.C,C1*%
X51943000Y-58737500D03*
X54443000Y-58737500D03*
%TD*%
%TO.C,C2*%
X52133500Y-80708500D03*
X54633500Y-80708500D03*
%TD*%
%TO.C,C3*%
X51562000Y-125857000D03*
X54062000Y-125857000D03*
%TD*%
%TO.C,C4*%
X54316000Y-148653500D03*
X51816000Y-148653500D03*
%TD*%
%TO.C,C5*%
X29487500Y-125857000D03*
X26987500Y-125857000D03*
%TD*%
%TO.C,C6*%
X29233500Y-148717000D03*
X26733500Y-148717000D03*
%TD*%
D11*
%TO.C,C7*%
X35270242Y-62949999D03*
D10*
X37770242Y-62949999D03*
%TD*%
%TO.C,C8*%
X37770242Y-70799999D03*
D11*
X35270242Y-70799999D03*
%TD*%
D12*
%TO.C,D1*%
X19621500Y-58293000D03*
D13*
X19621500Y-68453000D03*
%TD*%
%TO.C,D2*%
X19621500Y-81851500D03*
D12*
X19621500Y-71691500D03*
%TD*%
D14*
%TO.C,D3*%
X40640000Y-27051000D03*
D15*
X40640000Y-24511000D03*
%TD*%
%TO.C,D4*%
X40767000Y-46482000D03*
D14*
X40767000Y-49022000D03*
%TD*%
D15*
%TO.C,D5*%
X40703500Y-91503500D03*
D14*
X40703500Y-94043500D03*
%TD*%
D15*
%TO.C,D6*%
X40703500Y-113474500D03*
D14*
X40703500Y-116014500D03*
%TD*%
%TO.C,D7*%
X40703500Y-161036000D03*
D15*
X40703500Y-158496000D03*
%TD*%
D14*
%TO.C,D8*%
X40703500Y-183007000D03*
D15*
X40703500Y-180467000D03*
%TD*%
D16*
%TO.C,J1*%
X34594000Y-23281000D03*
D17*
X25694000Y-32181000D03*
D16*
X28694000Y-19381000D03*
D18*
X32934000Y-30521000D03*
D17*
X21794000Y-26281000D03*
%TD*%
%TO.C,J2*%
X46813000Y-26281000D03*
D18*
X57953000Y-30521000D03*
D16*
X53713000Y-19381000D03*
D17*
X50713000Y-32181000D03*
D16*
X59613000Y-23281000D03*
%TD*%
%TO.C,J3*%
X34594000Y-45252000D03*
D17*
X25694000Y-54152000D03*
D16*
X28694000Y-41352000D03*
D18*
X32934000Y-52492000D03*
D17*
X21794000Y-48252000D03*
%TD*%
D19*
%TO.C,J4*%
X25146000Y-75438000D03*
D20*
X27686000Y-75438000D03*
X25146000Y-72898000D03*
X27686000Y-72898000D03*
X25146000Y-70358000D03*
X27686000Y-70358000D03*
X25146000Y-67818000D03*
X27686000Y-67818000D03*
X25146000Y-65278000D03*
X27686000Y-65278000D03*
%TD*%
D17*
%TO.C,J5*%
X46813000Y-48252000D03*
D18*
X57953000Y-52492000D03*
D16*
X53713000Y-41352000D03*
D17*
X50713000Y-54152000D03*
D16*
X59613000Y-45252000D03*
%TD*%
D17*
%TO.C,J6*%
X21794000Y-93210000D03*
D18*
X32934000Y-97450000D03*
D16*
X28694000Y-86310000D03*
D17*
X25694000Y-99110000D03*
D16*
X34594000Y-90210000D03*
%TD*%
%TO.C,J7*%
X59613000Y-90210000D03*
D17*
X50713000Y-99110000D03*
D16*
X53713000Y-86310000D03*
D18*
X57953000Y-97450000D03*
D17*
X46813000Y-93210000D03*
%TD*%
%TO.C,J8*%
X21794000Y-115308000D03*
D18*
X32934000Y-119548000D03*
D16*
X28694000Y-108408000D03*
D17*
X25694000Y-121208000D03*
D16*
X34594000Y-112308000D03*
%TD*%
%TO.C,J9*%
X59613000Y-112308000D03*
D17*
X50713000Y-121208000D03*
D16*
X53713000Y-108408000D03*
D18*
X57953000Y-119548000D03*
D17*
X46813000Y-115308000D03*
%TD*%
D16*
%TO.C,J10*%
X34594000Y-157266000D03*
D17*
X25694000Y-166166000D03*
D16*
X28694000Y-153366000D03*
D18*
X32934000Y-164506000D03*
D17*
X21794000Y-160266000D03*
%TD*%
%TO.C,J11*%
X46813000Y-160266000D03*
D18*
X57953000Y-164506000D03*
D16*
X53713000Y-153366000D03*
D17*
X50713000Y-166166000D03*
D16*
X59613000Y-157266000D03*
%TD*%
%TO.C,J12*%
X34594000Y-179237000D03*
D17*
X25694000Y-188137000D03*
D16*
X28694000Y-175337000D03*
D18*
X32934000Y-186477000D03*
D17*
X21794000Y-182237000D03*
%TD*%
%TO.C,J13*%
X46813000Y-182237000D03*
D18*
X57953000Y-186477000D03*
D16*
X53713000Y-175337000D03*
D17*
X50713000Y-188137000D03*
D16*
X59613000Y-179237000D03*
%TD*%
D21*
%TO.C,R1*%
X40640000Y-76454000D03*
D10*
X40640000Y-86614000D03*
%TD*%
%TO.C,R2*%
X60960000Y-58864500D03*
D21*
X60960000Y-69024500D03*
%TD*%
%TO.C,R3*%
X60960000Y-71691500D03*
D10*
X60960000Y-81851500D03*
%TD*%
%TO.C,R4*%
X45593000Y-71882000D03*
D21*
X45593000Y-82042000D03*
%TD*%
%TO.C,R5*%
X45656500Y-69024500D03*
D10*
X45656500Y-58864500D03*
%TD*%
%TO.C,R6*%
X40767000Y-135763000D03*
D21*
X40767000Y-125603000D03*
%TD*%
%TO.C,R7*%
X60642500Y-135699500D03*
D10*
X60642500Y-125539500D03*
%TD*%
D21*
%TO.C,R8*%
X60642500Y-148653500D03*
D10*
X60642500Y-138493500D03*
%TD*%
%TO.C,R9*%
X45275500Y-138493500D03*
D21*
X45275500Y-148653500D03*
%TD*%
%TO.C,R10*%
X45212000Y-125603000D03*
D10*
X45212000Y-135763000D03*
%TD*%
%TO.C,R11*%
X40767000Y-138493500D03*
D21*
X40767000Y-148653500D03*
%TD*%
%TO.C,R12*%
X36068000Y-135699500D03*
D10*
X36068000Y-125539500D03*
%TD*%
%TO.C,R13*%
X36004500Y-148526500D03*
D21*
X36004500Y-138366500D03*
%TD*%
%TO.C,R14*%
X20002500Y-138557000D03*
D10*
X20002500Y-148717000D03*
%TD*%
%TO.C,R15*%
X20066000Y-135763000D03*
D21*
X20066000Y-125603000D03*
%TD*%
D22*
%TO.C,U1*%
X57023000Y-61976000D03*
D23*
X49403000Y-77216000D03*
X57023000Y-64516000D03*
X49403000Y-74676000D03*
X57023000Y-67056000D03*
X49403000Y-72136000D03*
X57023000Y-69596000D03*
X49403000Y-69596000D03*
X57023000Y-72136000D03*
X49403000Y-67056000D03*
X57023000Y-74676000D03*
X49403000Y-64516000D03*
X57023000Y-77216000D03*
X49403000Y-61976000D03*
%TD*%
%TO.C,U2*%
X49276000Y-130048000D03*
X56896000Y-145288000D03*
X49276000Y-132588000D03*
X56896000Y-142748000D03*
X49276000Y-135128000D03*
X56896000Y-140208000D03*
X49276000Y-137668000D03*
X56896000Y-137668000D03*
X49276000Y-140208000D03*
X56896000Y-135128000D03*
X49276000Y-142748000D03*
X56896000Y-132588000D03*
X49276000Y-145288000D03*
D22*
X56896000Y-130048000D03*
%TD*%
%TO.C,U3*%
X31940500Y-130238500D03*
D23*
X24320500Y-145478500D03*
X31940500Y-132778500D03*
X24320500Y-142938500D03*
X31940500Y-135318500D03*
X24320500Y-140398500D03*
X31940500Y-137858500D03*
X24320500Y-137858500D03*
X31940500Y-140398500D03*
X24320500Y-135318500D03*
X31940500Y-142938500D03*
X24320500Y-132778500D03*
X31940500Y-145478500D03*
X24320500Y-130238500D03*
%TD*%
M02*
