%TF.GenerationSoftware,KiCad,Pcbnew,(5.1.9)-1*%
%TF.CreationDate,2021-09-13T19:49:27+01:00*%
%TF.ProjectId,KOSMO Mult,4b4f534d-4f20-44d7-956c-742e6b696361,rev?*%
%TF.SameCoordinates,Original*%
%TF.FileFunction,Other,Fab,Bot*%
%FSLAX46Y46*%
G04 Gerber Fmt 4.6, Leading zero omitted, Abs format (unit mm)*
G04 Created by KiCad (PCBNEW (5.1.9)-1) date 2021-09-13 19:49:27*
%MOMM*%
%LPD*%
G01*
G04 APERTURE LIST*
%ADD10C,0.100000*%
%ADD11C,0.150000*%
%ADD12C,0.090000*%
G04 APERTURE END LIST*
D10*
%TO.C,C1*%
X54693000Y-59537500D02*
X51693000Y-59537500D01*
X54693000Y-57937500D02*
X54693000Y-59537500D01*
X51693000Y-57937500D02*
X54693000Y-57937500D01*
X51693000Y-59537500D02*
X51693000Y-57937500D01*
%TO.C,C2*%
X54883500Y-81508500D02*
X51883500Y-81508500D01*
X54883500Y-79908500D02*
X54883500Y-81508500D01*
X51883500Y-79908500D02*
X54883500Y-79908500D01*
X51883500Y-81508500D02*
X51883500Y-79908500D01*
%TO.C,C3*%
X54312000Y-126657000D02*
X51312000Y-126657000D01*
X54312000Y-125057000D02*
X54312000Y-126657000D01*
X51312000Y-125057000D02*
X54312000Y-125057000D01*
X51312000Y-126657000D02*
X51312000Y-125057000D01*
%TO.C,C4*%
X51566000Y-149453500D02*
X51566000Y-147853500D01*
X51566000Y-147853500D02*
X54566000Y-147853500D01*
X54566000Y-147853500D02*
X54566000Y-149453500D01*
X54566000Y-149453500D02*
X51566000Y-149453500D01*
%TO.C,C5*%
X26737500Y-126657000D02*
X26737500Y-125057000D01*
X26737500Y-125057000D02*
X29737500Y-125057000D01*
X29737500Y-125057000D02*
X29737500Y-126657000D01*
X29737500Y-126657000D02*
X26737500Y-126657000D01*
%TO.C,C6*%
X26483500Y-149517000D02*
X26483500Y-147917000D01*
X26483500Y-147917000D02*
X29483500Y-147917000D01*
X29483500Y-147917000D02*
X29483500Y-149517000D01*
X29483500Y-149517000D02*
X26483500Y-149517000D01*
%TO.C,C7*%
X34141270Y-64638499D02*
X34141270Y-64008499D01*
X33826270Y-64323499D02*
X34456270Y-64323499D01*
X39670242Y-62949999D02*
G75*
G03*
X39670242Y-62949999I-3150000J0D01*
G01*
%TO.C,C8*%
X39670242Y-70799999D02*
G75*
G03*
X39670242Y-70799999I-3150000J0D01*
G01*
X33826270Y-72173499D02*
X34456270Y-72173499D01*
X34141270Y-72488499D02*
X34141270Y-71858499D01*
%TO.C,D1*%
X18271500Y-60773000D02*
X20971500Y-60773000D01*
X20971500Y-60773000D02*
X20971500Y-65973000D01*
X20971500Y-65973000D02*
X18271500Y-65973000D01*
X18271500Y-65973000D02*
X18271500Y-60773000D01*
X19621500Y-58293000D02*
X19621500Y-60773000D01*
X19621500Y-68453000D02*
X19621500Y-65973000D01*
X18271500Y-61553000D02*
X20971500Y-61553000D01*
X18271500Y-61653000D02*
X20971500Y-61653000D01*
X18271500Y-61453000D02*
X20971500Y-61453000D01*
%TO.C,D2*%
X18271500Y-74851500D02*
X20971500Y-74851500D01*
X18271500Y-75051500D02*
X20971500Y-75051500D01*
X18271500Y-74951500D02*
X20971500Y-74951500D01*
X19621500Y-81851500D02*
X19621500Y-79371500D01*
X19621500Y-71691500D02*
X19621500Y-74171500D01*
X18271500Y-79371500D02*
X18271500Y-74171500D01*
X20971500Y-79371500D02*
X18271500Y-79371500D01*
X20971500Y-74171500D02*
X20971500Y-79371500D01*
X18271500Y-74171500D02*
X20971500Y-74171500D01*
%TO.C,J4*%
X21991000Y-60178000D02*
X22541000Y-60738000D01*
X21991000Y-80538000D02*
X22541000Y-79998000D01*
X30841000Y-60178000D02*
X30291000Y-60738000D01*
X30841000Y-80538000D02*
X30291000Y-79998000D01*
X30291000Y-60738000D02*
X22541000Y-60738000D01*
X30841000Y-60178000D02*
X21991000Y-60178000D01*
X30291000Y-79998000D02*
X22541000Y-79998000D01*
X30841000Y-80538000D02*
X21991000Y-80538000D01*
X22541000Y-68108000D02*
X21991000Y-68108000D01*
X22541000Y-72608000D02*
X21991000Y-72608000D01*
X22541000Y-68108000D02*
X22541000Y-60738000D01*
X22541000Y-79998000D02*
X22541000Y-72608000D01*
X21991000Y-80538000D02*
X21991000Y-60178000D01*
X30291000Y-79998000D02*
X30291000Y-60738000D01*
X30841000Y-80538000D02*
X30841000Y-60178000D01*
%TO.C,R1*%
X40640000Y-76454000D02*
X40640000Y-78384000D01*
X40640000Y-86614000D02*
X40640000Y-84684000D01*
X41890000Y-78384000D02*
X41890000Y-84684000D01*
X39390000Y-78384000D02*
X41890000Y-78384000D01*
X39390000Y-84684000D02*
X39390000Y-78384000D01*
X41890000Y-84684000D02*
X39390000Y-84684000D01*
%TO.C,R2*%
X59710000Y-60794500D02*
X62210000Y-60794500D01*
X62210000Y-60794500D02*
X62210000Y-67094500D01*
X62210000Y-67094500D02*
X59710000Y-67094500D01*
X59710000Y-67094500D02*
X59710000Y-60794500D01*
X60960000Y-58864500D02*
X60960000Y-60794500D01*
X60960000Y-69024500D02*
X60960000Y-67094500D01*
%TO.C,R3*%
X60960000Y-71691500D02*
X60960000Y-73621500D01*
X60960000Y-81851500D02*
X60960000Y-79921500D01*
X62210000Y-73621500D02*
X62210000Y-79921500D01*
X59710000Y-73621500D02*
X62210000Y-73621500D01*
X59710000Y-79921500D02*
X59710000Y-73621500D01*
X62210000Y-79921500D02*
X59710000Y-79921500D01*
%TO.C,R4*%
X44343000Y-73812000D02*
X46843000Y-73812000D01*
X46843000Y-73812000D02*
X46843000Y-80112000D01*
X46843000Y-80112000D02*
X44343000Y-80112000D01*
X44343000Y-80112000D02*
X44343000Y-73812000D01*
X45593000Y-71882000D02*
X45593000Y-73812000D01*
X45593000Y-82042000D02*
X45593000Y-80112000D01*
%TO.C,R5*%
X45656500Y-69024500D02*
X45656500Y-67094500D01*
X45656500Y-58864500D02*
X45656500Y-60794500D01*
X44406500Y-67094500D02*
X44406500Y-60794500D01*
X46906500Y-67094500D02*
X44406500Y-67094500D01*
X46906500Y-60794500D02*
X46906500Y-67094500D01*
X44406500Y-60794500D02*
X46906500Y-60794500D01*
%TO.C,R6*%
X42017000Y-133833000D02*
X39517000Y-133833000D01*
X39517000Y-133833000D02*
X39517000Y-127533000D01*
X39517000Y-127533000D02*
X42017000Y-127533000D01*
X42017000Y-127533000D02*
X42017000Y-133833000D01*
X40767000Y-135763000D02*
X40767000Y-133833000D01*
X40767000Y-125603000D02*
X40767000Y-127533000D01*
%TO.C,R7*%
X60642500Y-135699500D02*
X60642500Y-133769500D01*
X60642500Y-125539500D02*
X60642500Y-127469500D01*
X59392500Y-133769500D02*
X59392500Y-127469500D01*
X61892500Y-133769500D02*
X59392500Y-133769500D01*
X61892500Y-127469500D02*
X61892500Y-133769500D01*
X59392500Y-127469500D02*
X61892500Y-127469500D01*
%TO.C,R8*%
X60642500Y-148653500D02*
X60642500Y-146723500D01*
X60642500Y-138493500D02*
X60642500Y-140423500D01*
X59392500Y-146723500D02*
X59392500Y-140423500D01*
X61892500Y-146723500D02*
X59392500Y-146723500D01*
X61892500Y-140423500D02*
X61892500Y-146723500D01*
X59392500Y-140423500D02*
X61892500Y-140423500D01*
%TO.C,R9*%
X44025500Y-140423500D02*
X46525500Y-140423500D01*
X46525500Y-140423500D02*
X46525500Y-146723500D01*
X46525500Y-146723500D02*
X44025500Y-146723500D01*
X44025500Y-146723500D02*
X44025500Y-140423500D01*
X45275500Y-138493500D02*
X45275500Y-140423500D01*
X45275500Y-148653500D02*
X45275500Y-146723500D01*
%TO.C,R10*%
X45212000Y-125603000D02*
X45212000Y-127533000D01*
X45212000Y-135763000D02*
X45212000Y-133833000D01*
X46462000Y-127533000D02*
X46462000Y-133833000D01*
X43962000Y-127533000D02*
X46462000Y-127533000D01*
X43962000Y-133833000D02*
X43962000Y-127533000D01*
X46462000Y-133833000D02*
X43962000Y-133833000D01*
%TO.C,R11*%
X39517000Y-140423500D02*
X42017000Y-140423500D01*
X42017000Y-140423500D02*
X42017000Y-146723500D01*
X42017000Y-146723500D02*
X39517000Y-146723500D01*
X39517000Y-146723500D02*
X39517000Y-140423500D01*
X40767000Y-138493500D02*
X40767000Y-140423500D01*
X40767000Y-148653500D02*
X40767000Y-146723500D01*
%TO.C,R12*%
X36068000Y-135699500D02*
X36068000Y-133769500D01*
X36068000Y-125539500D02*
X36068000Y-127469500D01*
X34818000Y-133769500D02*
X34818000Y-127469500D01*
X37318000Y-133769500D02*
X34818000Y-133769500D01*
X37318000Y-127469500D02*
X37318000Y-133769500D01*
X34818000Y-127469500D02*
X37318000Y-127469500D01*
%TO.C,R13*%
X37254500Y-146596500D02*
X34754500Y-146596500D01*
X34754500Y-146596500D02*
X34754500Y-140296500D01*
X34754500Y-140296500D02*
X37254500Y-140296500D01*
X37254500Y-140296500D02*
X37254500Y-146596500D01*
X36004500Y-148526500D02*
X36004500Y-146596500D01*
X36004500Y-138366500D02*
X36004500Y-140296500D01*
%TO.C,R14*%
X20002500Y-138557000D02*
X20002500Y-140487000D01*
X20002500Y-148717000D02*
X20002500Y-146787000D01*
X21252500Y-140487000D02*
X21252500Y-146787000D01*
X18752500Y-140487000D02*
X21252500Y-140487000D01*
X18752500Y-146787000D02*
X18752500Y-140487000D01*
X21252500Y-146787000D02*
X18752500Y-146787000D01*
%TO.C,R15*%
X21316000Y-133833000D02*
X18816000Y-133833000D01*
X18816000Y-133833000D02*
X18816000Y-127533000D01*
X18816000Y-127533000D02*
X21316000Y-127533000D01*
X21316000Y-127533000D02*
X21316000Y-133833000D01*
X20066000Y-135763000D02*
X20066000Y-133833000D01*
X20066000Y-125603000D02*
X20066000Y-127533000D01*
%TO.C,U1*%
X55388000Y-60706000D02*
X50038000Y-60706000D01*
X50038000Y-60706000D02*
X50038000Y-78486000D01*
X50038000Y-78486000D02*
X56388000Y-78486000D01*
X56388000Y-78486000D02*
X56388000Y-61706000D01*
X56388000Y-61706000D02*
X55388000Y-60706000D01*
X58293000Y-60646000D02*
X58293000Y-78546000D01*
X58293000Y-78546000D02*
X48133000Y-78546000D01*
X48133000Y-78546000D02*
X48133000Y-60646000D01*
X48133000Y-60646000D02*
X58293000Y-60646000D01*
%TO.C,U2*%
X48006000Y-128718000D02*
X58166000Y-128718000D01*
X48006000Y-146618000D02*
X48006000Y-128718000D01*
X58166000Y-146618000D02*
X48006000Y-146618000D01*
X58166000Y-128718000D02*
X58166000Y-146618000D01*
X56261000Y-129778000D02*
X55261000Y-128778000D01*
X56261000Y-146558000D02*
X56261000Y-129778000D01*
X49911000Y-146558000D02*
X56261000Y-146558000D01*
X49911000Y-128778000D02*
X49911000Y-146558000D01*
X55261000Y-128778000D02*
X49911000Y-128778000D01*
%TO.C,U3*%
X30305500Y-128968500D02*
X24955500Y-128968500D01*
X24955500Y-128968500D02*
X24955500Y-146748500D01*
X24955500Y-146748500D02*
X31305500Y-146748500D01*
X31305500Y-146748500D02*
X31305500Y-129968500D01*
X31305500Y-129968500D02*
X30305500Y-128968500D01*
X33210500Y-128908500D02*
X33210500Y-146808500D01*
X33210500Y-146808500D02*
X23050500Y-146808500D01*
X23050500Y-146808500D02*
X23050500Y-128908500D01*
X23050500Y-128908500D02*
X33210500Y-128908500D01*
%TD*%
%TO.C,C1*%
D11*
X54835857Y-56139880D02*
X54740619Y-56139880D01*
X54645380Y-56187500D01*
X54597761Y-56235119D01*
X54550142Y-56330357D01*
X54502523Y-56520833D01*
X54502523Y-56758928D01*
X54550142Y-56949404D01*
X54597761Y-57044642D01*
X54645380Y-57092261D01*
X54740619Y-57139880D01*
X54835857Y-57139880D01*
X54931095Y-57092261D01*
X54978714Y-57044642D01*
X55026333Y-56949404D01*
X55073952Y-56758928D01*
X55073952Y-56520833D01*
X55026333Y-56330357D01*
X54978714Y-56235119D01*
X54931095Y-56187500D01*
X54835857Y-56139880D01*
X54073952Y-57044642D02*
X54026333Y-57092261D01*
X54073952Y-57139880D01*
X54121571Y-57092261D01*
X54073952Y-57044642D01*
X54073952Y-57139880D01*
X53073952Y-57139880D02*
X53645380Y-57139880D01*
X53359666Y-57139880D02*
X53359666Y-56139880D01*
X53454904Y-56282738D01*
X53550142Y-56377976D01*
X53645380Y-56425595D01*
X52216809Y-56473214D02*
X52216809Y-57139880D01*
X52645380Y-56473214D02*
X52645380Y-56997023D01*
X52597761Y-57092261D01*
X52502523Y-57139880D01*
X52359666Y-57139880D01*
X52264428Y-57092261D01*
X52216809Y-57044642D01*
X51407285Y-56616071D02*
X51740619Y-56616071D01*
X51740619Y-57139880D02*
X51740619Y-56139880D01*
X51264428Y-56139880D01*
D12*
X53293000Y-58951785D02*
X53321571Y-58980357D01*
X53407285Y-59008928D01*
X53464428Y-59008928D01*
X53550142Y-58980357D01*
X53607285Y-58923214D01*
X53635857Y-58866071D01*
X53664428Y-58751785D01*
X53664428Y-58666071D01*
X53635857Y-58551785D01*
X53607285Y-58494642D01*
X53550142Y-58437500D01*
X53464428Y-58408928D01*
X53407285Y-58408928D01*
X53321571Y-58437500D01*
X53293000Y-58466071D01*
X52721571Y-59008928D02*
X53064428Y-59008928D01*
X52893000Y-59008928D02*
X52893000Y-58408928D01*
X52950142Y-58494642D01*
X53007285Y-58551785D01*
X53064428Y-58580357D01*
%TO.C,C2*%
D11*
X55026357Y-78110880D02*
X54931119Y-78110880D01*
X54835880Y-78158500D01*
X54788261Y-78206119D01*
X54740642Y-78301357D01*
X54693023Y-78491833D01*
X54693023Y-78729928D01*
X54740642Y-78920404D01*
X54788261Y-79015642D01*
X54835880Y-79063261D01*
X54931119Y-79110880D01*
X55026357Y-79110880D01*
X55121595Y-79063261D01*
X55169214Y-79015642D01*
X55216833Y-78920404D01*
X55264452Y-78729928D01*
X55264452Y-78491833D01*
X55216833Y-78301357D01*
X55169214Y-78206119D01*
X55121595Y-78158500D01*
X55026357Y-78110880D01*
X54264452Y-79015642D02*
X54216833Y-79063261D01*
X54264452Y-79110880D01*
X54312071Y-79063261D01*
X54264452Y-79015642D01*
X54264452Y-79110880D01*
X53264452Y-79110880D02*
X53835880Y-79110880D01*
X53550166Y-79110880D02*
X53550166Y-78110880D01*
X53645404Y-78253738D01*
X53740642Y-78348976D01*
X53835880Y-78396595D01*
X52407309Y-78444214D02*
X52407309Y-79110880D01*
X52835880Y-78444214D02*
X52835880Y-78968023D01*
X52788261Y-79063261D01*
X52693023Y-79110880D01*
X52550166Y-79110880D01*
X52454928Y-79063261D01*
X52407309Y-79015642D01*
X51597785Y-78587071D02*
X51931119Y-78587071D01*
X51931119Y-79110880D02*
X51931119Y-78110880D01*
X51454928Y-78110880D01*
D12*
X53483500Y-80922785D02*
X53512071Y-80951357D01*
X53597785Y-80979928D01*
X53654928Y-80979928D01*
X53740642Y-80951357D01*
X53797785Y-80894214D01*
X53826357Y-80837071D01*
X53854928Y-80722785D01*
X53854928Y-80637071D01*
X53826357Y-80522785D01*
X53797785Y-80465642D01*
X53740642Y-80408500D01*
X53654928Y-80379928D01*
X53597785Y-80379928D01*
X53512071Y-80408500D01*
X53483500Y-80437071D01*
X53254928Y-80437071D02*
X53226357Y-80408500D01*
X53169214Y-80379928D01*
X53026357Y-80379928D01*
X52969214Y-80408500D01*
X52940642Y-80437071D01*
X52912071Y-80494214D01*
X52912071Y-80551357D01*
X52940642Y-80637071D01*
X53283500Y-80979928D01*
X52912071Y-80979928D01*
%TO.C,C3*%
D11*
X54454857Y-123259380D02*
X54359619Y-123259380D01*
X54264380Y-123307000D01*
X54216761Y-123354619D01*
X54169142Y-123449857D01*
X54121523Y-123640333D01*
X54121523Y-123878428D01*
X54169142Y-124068904D01*
X54216761Y-124164142D01*
X54264380Y-124211761D01*
X54359619Y-124259380D01*
X54454857Y-124259380D01*
X54550095Y-124211761D01*
X54597714Y-124164142D01*
X54645333Y-124068904D01*
X54692952Y-123878428D01*
X54692952Y-123640333D01*
X54645333Y-123449857D01*
X54597714Y-123354619D01*
X54550095Y-123307000D01*
X54454857Y-123259380D01*
X53692952Y-124164142D02*
X53645333Y-124211761D01*
X53692952Y-124259380D01*
X53740571Y-124211761D01*
X53692952Y-124164142D01*
X53692952Y-124259380D01*
X52692952Y-124259380D02*
X53264380Y-124259380D01*
X52978666Y-124259380D02*
X52978666Y-123259380D01*
X53073904Y-123402238D01*
X53169142Y-123497476D01*
X53264380Y-123545095D01*
X51835809Y-123592714D02*
X51835809Y-124259380D01*
X52264380Y-123592714D02*
X52264380Y-124116523D01*
X52216761Y-124211761D01*
X52121523Y-124259380D01*
X51978666Y-124259380D01*
X51883428Y-124211761D01*
X51835809Y-124164142D01*
X51026285Y-123735571D02*
X51359619Y-123735571D01*
X51359619Y-124259380D02*
X51359619Y-123259380D01*
X50883428Y-123259380D01*
D12*
X52912000Y-126071285D02*
X52940571Y-126099857D01*
X53026285Y-126128428D01*
X53083428Y-126128428D01*
X53169142Y-126099857D01*
X53226285Y-126042714D01*
X53254857Y-125985571D01*
X53283428Y-125871285D01*
X53283428Y-125785571D01*
X53254857Y-125671285D01*
X53226285Y-125614142D01*
X53169142Y-125557000D01*
X53083428Y-125528428D01*
X53026285Y-125528428D01*
X52940571Y-125557000D01*
X52912000Y-125585571D01*
X52712000Y-125528428D02*
X52340571Y-125528428D01*
X52540571Y-125757000D01*
X52454857Y-125757000D01*
X52397714Y-125785571D01*
X52369142Y-125814142D01*
X52340571Y-125871285D01*
X52340571Y-126014142D01*
X52369142Y-126071285D01*
X52397714Y-126099857D01*
X52454857Y-126128428D01*
X52626285Y-126128428D01*
X52683428Y-126099857D01*
X52712000Y-126071285D01*
%TO.C,C4*%
D11*
X54708857Y-146055880D02*
X54613619Y-146055880D01*
X54518380Y-146103500D01*
X54470761Y-146151119D01*
X54423142Y-146246357D01*
X54375523Y-146436833D01*
X54375523Y-146674928D01*
X54423142Y-146865404D01*
X54470761Y-146960642D01*
X54518380Y-147008261D01*
X54613619Y-147055880D01*
X54708857Y-147055880D01*
X54804095Y-147008261D01*
X54851714Y-146960642D01*
X54899333Y-146865404D01*
X54946952Y-146674928D01*
X54946952Y-146436833D01*
X54899333Y-146246357D01*
X54851714Y-146151119D01*
X54804095Y-146103500D01*
X54708857Y-146055880D01*
X53946952Y-146960642D02*
X53899333Y-147008261D01*
X53946952Y-147055880D01*
X53994571Y-147008261D01*
X53946952Y-146960642D01*
X53946952Y-147055880D01*
X52946952Y-147055880D02*
X53518380Y-147055880D01*
X53232666Y-147055880D02*
X53232666Y-146055880D01*
X53327904Y-146198738D01*
X53423142Y-146293976D01*
X53518380Y-146341595D01*
X52089809Y-146389214D02*
X52089809Y-147055880D01*
X52518380Y-146389214D02*
X52518380Y-146913023D01*
X52470761Y-147008261D01*
X52375523Y-147055880D01*
X52232666Y-147055880D01*
X52137428Y-147008261D01*
X52089809Y-146960642D01*
X51280285Y-146532071D02*
X51613619Y-146532071D01*
X51613619Y-147055880D02*
X51613619Y-146055880D01*
X51137428Y-146055880D01*
D12*
X53166000Y-148867785D02*
X53194571Y-148896357D01*
X53280285Y-148924928D01*
X53337428Y-148924928D01*
X53423142Y-148896357D01*
X53480285Y-148839214D01*
X53508857Y-148782071D01*
X53537428Y-148667785D01*
X53537428Y-148582071D01*
X53508857Y-148467785D01*
X53480285Y-148410642D01*
X53423142Y-148353500D01*
X53337428Y-148324928D01*
X53280285Y-148324928D01*
X53194571Y-148353500D01*
X53166000Y-148382071D01*
X52651714Y-148524928D02*
X52651714Y-148924928D01*
X52794571Y-148296357D02*
X52937428Y-148724928D01*
X52566000Y-148724928D01*
%TO.C,C5*%
D11*
X29880357Y-123259380D02*
X29785119Y-123259380D01*
X29689880Y-123307000D01*
X29642261Y-123354619D01*
X29594642Y-123449857D01*
X29547023Y-123640333D01*
X29547023Y-123878428D01*
X29594642Y-124068904D01*
X29642261Y-124164142D01*
X29689880Y-124211761D01*
X29785119Y-124259380D01*
X29880357Y-124259380D01*
X29975595Y-124211761D01*
X30023214Y-124164142D01*
X30070833Y-124068904D01*
X30118452Y-123878428D01*
X30118452Y-123640333D01*
X30070833Y-123449857D01*
X30023214Y-123354619D01*
X29975595Y-123307000D01*
X29880357Y-123259380D01*
X29118452Y-124164142D02*
X29070833Y-124211761D01*
X29118452Y-124259380D01*
X29166071Y-124211761D01*
X29118452Y-124164142D01*
X29118452Y-124259380D01*
X28118452Y-124259380D02*
X28689880Y-124259380D01*
X28404166Y-124259380D02*
X28404166Y-123259380D01*
X28499404Y-123402238D01*
X28594642Y-123497476D01*
X28689880Y-123545095D01*
X27261309Y-123592714D02*
X27261309Y-124259380D01*
X27689880Y-123592714D02*
X27689880Y-124116523D01*
X27642261Y-124211761D01*
X27547023Y-124259380D01*
X27404166Y-124259380D01*
X27308928Y-124211761D01*
X27261309Y-124164142D01*
X26451785Y-123735571D02*
X26785119Y-123735571D01*
X26785119Y-124259380D02*
X26785119Y-123259380D01*
X26308928Y-123259380D01*
D12*
X28337500Y-126071285D02*
X28366071Y-126099857D01*
X28451785Y-126128428D01*
X28508928Y-126128428D01*
X28594642Y-126099857D01*
X28651785Y-126042714D01*
X28680357Y-125985571D01*
X28708928Y-125871285D01*
X28708928Y-125785571D01*
X28680357Y-125671285D01*
X28651785Y-125614142D01*
X28594642Y-125557000D01*
X28508928Y-125528428D01*
X28451785Y-125528428D01*
X28366071Y-125557000D01*
X28337500Y-125585571D01*
X27794642Y-125528428D02*
X28080357Y-125528428D01*
X28108928Y-125814142D01*
X28080357Y-125785571D01*
X28023214Y-125757000D01*
X27880357Y-125757000D01*
X27823214Y-125785571D01*
X27794642Y-125814142D01*
X27766071Y-125871285D01*
X27766071Y-126014142D01*
X27794642Y-126071285D01*
X27823214Y-126099857D01*
X27880357Y-126128428D01*
X28023214Y-126128428D01*
X28080357Y-126099857D01*
X28108928Y-126071285D01*
%TO.C,C6*%
D11*
X29626357Y-146119380D02*
X29531119Y-146119380D01*
X29435880Y-146167000D01*
X29388261Y-146214619D01*
X29340642Y-146309857D01*
X29293023Y-146500333D01*
X29293023Y-146738428D01*
X29340642Y-146928904D01*
X29388261Y-147024142D01*
X29435880Y-147071761D01*
X29531119Y-147119380D01*
X29626357Y-147119380D01*
X29721595Y-147071761D01*
X29769214Y-147024142D01*
X29816833Y-146928904D01*
X29864452Y-146738428D01*
X29864452Y-146500333D01*
X29816833Y-146309857D01*
X29769214Y-146214619D01*
X29721595Y-146167000D01*
X29626357Y-146119380D01*
X28864452Y-147024142D02*
X28816833Y-147071761D01*
X28864452Y-147119380D01*
X28912071Y-147071761D01*
X28864452Y-147024142D01*
X28864452Y-147119380D01*
X27864452Y-147119380D02*
X28435880Y-147119380D01*
X28150166Y-147119380D02*
X28150166Y-146119380D01*
X28245404Y-146262238D01*
X28340642Y-146357476D01*
X28435880Y-146405095D01*
X27007309Y-146452714D02*
X27007309Y-147119380D01*
X27435880Y-146452714D02*
X27435880Y-146976523D01*
X27388261Y-147071761D01*
X27293023Y-147119380D01*
X27150166Y-147119380D01*
X27054928Y-147071761D01*
X27007309Y-147024142D01*
X26197785Y-146595571D02*
X26531119Y-146595571D01*
X26531119Y-147119380D02*
X26531119Y-146119380D01*
X26054928Y-146119380D01*
D12*
X28083500Y-148931285D02*
X28112071Y-148959857D01*
X28197785Y-148988428D01*
X28254928Y-148988428D01*
X28340642Y-148959857D01*
X28397785Y-148902714D01*
X28426357Y-148845571D01*
X28454928Y-148731285D01*
X28454928Y-148645571D01*
X28426357Y-148531285D01*
X28397785Y-148474142D01*
X28340642Y-148417000D01*
X28254928Y-148388428D01*
X28197785Y-148388428D01*
X28112071Y-148417000D01*
X28083500Y-148445571D01*
X27569214Y-148388428D02*
X27683500Y-148388428D01*
X27740642Y-148417000D01*
X27769214Y-148445571D01*
X27826357Y-148531285D01*
X27854928Y-148645571D01*
X27854928Y-148874142D01*
X27826357Y-148931285D01*
X27797785Y-148959857D01*
X27740642Y-148988428D01*
X27626357Y-148988428D01*
X27569214Y-148959857D01*
X27540642Y-148931285D01*
X27512071Y-148874142D01*
X27512071Y-148731285D01*
X27540642Y-148674142D01*
X27569214Y-148645571D01*
X27626357Y-148617000D01*
X27740642Y-148617000D01*
X27797785Y-148645571D01*
X27826357Y-148674142D01*
X27854928Y-148731285D01*
%TO.C,C7*%
D11*
X37591670Y-59002379D02*
X38163099Y-59002379D01*
X37877384Y-59002379D02*
X37877384Y-58002379D01*
X37972622Y-58145237D01*
X38067861Y-58240475D01*
X38163099Y-58288094D01*
X36972622Y-58002379D02*
X36877384Y-58002379D01*
X36782146Y-58049999D01*
X36734527Y-58097618D01*
X36686908Y-58192856D01*
X36639289Y-58383332D01*
X36639289Y-58621427D01*
X36686908Y-58811903D01*
X36734527Y-58907141D01*
X36782146Y-58954760D01*
X36877384Y-59002379D01*
X36972622Y-59002379D01*
X37067861Y-58954760D01*
X37115480Y-58907141D01*
X37163099Y-58811903D01*
X37210718Y-58621427D01*
X37210718Y-58383332D01*
X37163099Y-58192856D01*
X37115480Y-58097618D01*
X37067861Y-58049999D01*
X36972622Y-58002379D01*
X35782146Y-58335713D02*
X35782146Y-59002379D01*
X36210718Y-58335713D02*
X36210718Y-58859522D01*
X36163099Y-58954760D01*
X36067861Y-59002379D01*
X35925003Y-59002379D01*
X35829765Y-58954760D01*
X35782146Y-58907141D01*
X34972622Y-58478570D02*
X35305956Y-58478570D01*
X35305956Y-59002379D02*
X35305956Y-58002379D01*
X34829765Y-58002379D01*
X36686908Y-63307141D02*
X36734527Y-63354760D01*
X36877384Y-63402379D01*
X36972622Y-63402379D01*
X37115480Y-63354760D01*
X37210718Y-63259522D01*
X37258337Y-63164284D01*
X37305956Y-62973808D01*
X37305956Y-62830951D01*
X37258337Y-62640475D01*
X37210718Y-62545237D01*
X37115480Y-62449999D01*
X36972622Y-62402379D01*
X36877384Y-62402379D01*
X36734527Y-62449999D01*
X36686908Y-62497618D01*
X36353575Y-62402379D02*
X35686908Y-62402379D01*
X36115480Y-63402379D01*
%TO.C,C8*%
X37591670Y-66852379D02*
X38163099Y-66852379D01*
X37877384Y-66852379D02*
X37877384Y-65852379D01*
X37972622Y-65995237D01*
X38067861Y-66090475D01*
X38163099Y-66138094D01*
X36972622Y-65852379D02*
X36877384Y-65852379D01*
X36782146Y-65899999D01*
X36734527Y-65947618D01*
X36686908Y-66042856D01*
X36639289Y-66233332D01*
X36639289Y-66471427D01*
X36686908Y-66661903D01*
X36734527Y-66757141D01*
X36782146Y-66804760D01*
X36877384Y-66852379D01*
X36972622Y-66852379D01*
X37067861Y-66804760D01*
X37115480Y-66757141D01*
X37163099Y-66661903D01*
X37210718Y-66471427D01*
X37210718Y-66233332D01*
X37163099Y-66042856D01*
X37115480Y-65947618D01*
X37067861Y-65899999D01*
X36972622Y-65852379D01*
X35782146Y-66185713D02*
X35782146Y-66852379D01*
X36210718Y-66185713D02*
X36210718Y-66709522D01*
X36163099Y-66804760D01*
X36067861Y-66852379D01*
X35925003Y-66852379D01*
X35829765Y-66804760D01*
X35782146Y-66757141D01*
X34972622Y-66328570D02*
X35305956Y-66328570D01*
X35305956Y-66852379D02*
X35305956Y-65852379D01*
X34829765Y-65852379D01*
X36686908Y-71157141D02*
X36734527Y-71204760D01*
X36877384Y-71252379D01*
X36972622Y-71252379D01*
X37115480Y-71204760D01*
X37210718Y-71109522D01*
X37258337Y-71014284D01*
X37305956Y-70823808D01*
X37305956Y-70680951D01*
X37258337Y-70490475D01*
X37210718Y-70395237D01*
X37115480Y-70299999D01*
X36972622Y-70252379D01*
X36877384Y-70252379D01*
X36734527Y-70299999D01*
X36686908Y-70347618D01*
X36115480Y-70680951D02*
X36210718Y-70633332D01*
X36258337Y-70585713D01*
X36305956Y-70490475D01*
X36305956Y-70442856D01*
X36258337Y-70347618D01*
X36210718Y-70299999D01*
X36115480Y-70252379D01*
X35925003Y-70252379D01*
X35829765Y-70299999D01*
X35782146Y-70347618D01*
X35734527Y-70442856D01*
X35734527Y-70490475D01*
X35782146Y-70585713D01*
X35829765Y-70633332D01*
X35925003Y-70680951D01*
X36115480Y-70680951D01*
X36210718Y-70728570D01*
X36258337Y-70776189D01*
X36305956Y-70871427D01*
X36305956Y-71061903D01*
X36258337Y-71157141D01*
X36210718Y-71204760D01*
X36115480Y-71252379D01*
X35925003Y-71252379D01*
X35829765Y-71204760D01*
X35782146Y-71157141D01*
X35734527Y-71061903D01*
X35734527Y-70871427D01*
X35782146Y-70776189D01*
X35829765Y-70728570D01*
X35925003Y-70680951D01*
%TO.C,D1*%
X22543880Y-61230142D02*
X22543880Y-60658714D01*
X22543880Y-60944428D02*
X21543880Y-60944428D01*
X21686738Y-60849190D01*
X21781976Y-60753952D01*
X21829595Y-60658714D01*
X22543880Y-61658714D02*
X21543880Y-61658714D01*
X22543880Y-62230142D01*
X21543880Y-62230142D01*
X21543880Y-63182523D02*
X21543880Y-62706333D01*
X22020071Y-62658714D01*
X21972452Y-62706333D01*
X21924833Y-62801571D01*
X21924833Y-63039666D01*
X21972452Y-63134904D01*
X22020071Y-63182523D01*
X22115309Y-63230142D01*
X22353404Y-63230142D01*
X22448642Y-63182523D01*
X22496261Y-63134904D01*
X22543880Y-63039666D01*
X22543880Y-62801571D01*
X22496261Y-62706333D01*
X22448642Y-62658714D01*
X21972452Y-63801571D02*
X21924833Y-63706333D01*
X21877214Y-63658714D01*
X21781976Y-63611095D01*
X21734357Y-63611095D01*
X21639119Y-63658714D01*
X21591500Y-63706333D01*
X21543880Y-63801571D01*
X21543880Y-63992047D01*
X21591500Y-64087285D01*
X21639119Y-64134904D01*
X21734357Y-64182523D01*
X21781976Y-64182523D01*
X21877214Y-64134904D01*
X21924833Y-64087285D01*
X21972452Y-63992047D01*
X21972452Y-63801571D01*
X22020071Y-63706333D01*
X22067690Y-63658714D01*
X22162928Y-63611095D01*
X22353404Y-63611095D01*
X22448642Y-63658714D01*
X22496261Y-63706333D01*
X22543880Y-63801571D01*
X22543880Y-63992047D01*
X22496261Y-64087285D01*
X22448642Y-64134904D01*
X22353404Y-64182523D01*
X22162928Y-64182523D01*
X22067690Y-64134904D01*
X22020071Y-64087285D01*
X21972452Y-63992047D01*
X22543880Y-65134904D02*
X22543880Y-64563476D01*
X22543880Y-64849190D02*
X21543880Y-64849190D01*
X21686738Y-64753952D01*
X21781976Y-64658714D01*
X21829595Y-64563476D01*
X21543880Y-65468238D02*
X21543880Y-66134904D01*
X22543880Y-65706333D01*
X20073880Y-63024904D02*
X19073880Y-63024904D01*
X19073880Y-63263000D01*
X19121500Y-63405857D01*
X19216738Y-63501095D01*
X19311976Y-63548714D01*
X19502452Y-63596333D01*
X19645309Y-63596333D01*
X19835785Y-63548714D01*
X19931023Y-63501095D01*
X20026261Y-63405857D01*
X20073880Y-63263000D01*
X20073880Y-63024904D01*
X20073880Y-64548714D02*
X20073880Y-63977285D01*
X20073880Y-64263000D02*
X19073880Y-64263000D01*
X19216738Y-64167761D01*
X19311976Y-64072523D01*
X19359595Y-63977285D01*
X17973880Y-58031095D02*
X16973880Y-58031095D01*
X17973880Y-58602523D02*
X17402452Y-58173952D01*
X16973880Y-58602523D02*
X17545309Y-58031095D01*
%TO.C,D2*%
X22543880Y-74628642D02*
X22543880Y-74057214D01*
X22543880Y-74342928D02*
X21543880Y-74342928D01*
X21686738Y-74247690D01*
X21781976Y-74152452D01*
X21829595Y-74057214D01*
X22543880Y-75057214D02*
X21543880Y-75057214D01*
X22543880Y-75628642D01*
X21543880Y-75628642D01*
X21543880Y-76581023D02*
X21543880Y-76104833D01*
X22020071Y-76057214D01*
X21972452Y-76104833D01*
X21924833Y-76200071D01*
X21924833Y-76438166D01*
X21972452Y-76533404D01*
X22020071Y-76581023D01*
X22115309Y-76628642D01*
X22353404Y-76628642D01*
X22448642Y-76581023D01*
X22496261Y-76533404D01*
X22543880Y-76438166D01*
X22543880Y-76200071D01*
X22496261Y-76104833D01*
X22448642Y-76057214D01*
X21972452Y-77200071D02*
X21924833Y-77104833D01*
X21877214Y-77057214D01*
X21781976Y-77009595D01*
X21734357Y-77009595D01*
X21639119Y-77057214D01*
X21591500Y-77104833D01*
X21543880Y-77200071D01*
X21543880Y-77390547D01*
X21591500Y-77485785D01*
X21639119Y-77533404D01*
X21734357Y-77581023D01*
X21781976Y-77581023D01*
X21877214Y-77533404D01*
X21924833Y-77485785D01*
X21972452Y-77390547D01*
X21972452Y-77200071D01*
X22020071Y-77104833D01*
X22067690Y-77057214D01*
X22162928Y-77009595D01*
X22353404Y-77009595D01*
X22448642Y-77057214D01*
X22496261Y-77104833D01*
X22543880Y-77200071D01*
X22543880Y-77390547D01*
X22496261Y-77485785D01*
X22448642Y-77533404D01*
X22353404Y-77581023D01*
X22162928Y-77581023D01*
X22067690Y-77533404D01*
X22020071Y-77485785D01*
X21972452Y-77390547D01*
X22543880Y-78533404D02*
X22543880Y-77961976D01*
X22543880Y-78247690D02*
X21543880Y-78247690D01*
X21686738Y-78152452D01*
X21781976Y-78057214D01*
X21829595Y-77961976D01*
X21543880Y-78866738D02*
X21543880Y-79533404D01*
X22543880Y-79104833D01*
X17973880Y-71429595D02*
X16973880Y-71429595D01*
X17973880Y-72001023D02*
X17402452Y-71572452D01*
X16973880Y-72001023D02*
X17545309Y-71429595D01*
X20073880Y-76423404D02*
X19073880Y-76423404D01*
X19073880Y-76661500D01*
X19121500Y-76804357D01*
X19216738Y-76899595D01*
X19311976Y-76947214D01*
X19502452Y-76994833D01*
X19645309Y-76994833D01*
X19835785Y-76947214D01*
X19931023Y-76899595D01*
X20026261Y-76804357D01*
X20073880Y-76661500D01*
X20073880Y-76423404D01*
X19169119Y-77375785D02*
X19121500Y-77423404D01*
X19073880Y-77518642D01*
X19073880Y-77756738D01*
X19121500Y-77851976D01*
X19169119Y-77899595D01*
X19264357Y-77947214D01*
X19359595Y-77947214D01*
X19502452Y-77899595D01*
X20073880Y-77328166D01*
X20073880Y-77947214D01*
%TO.C,J4*%
X32558857Y-57502761D02*
X32416000Y-57550380D01*
X32177904Y-57550380D01*
X32082666Y-57502761D01*
X32035047Y-57455142D01*
X31987428Y-57359904D01*
X31987428Y-57264666D01*
X32035047Y-57169428D01*
X32082666Y-57121809D01*
X32177904Y-57074190D01*
X32368380Y-57026571D01*
X32463619Y-56978952D01*
X32511238Y-56931333D01*
X32558857Y-56836095D01*
X32558857Y-56740857D01*
X32511238Y-56645619D01*
X32463619Y-56598000D01*
X32368380Y-56550380D01*
X32130285Y-56550380D01*
X31987428Y-56598000D01*
X31654095Y-56883714D02*
X31416000Y-57550380D01*
X31177904Y-56883714D02*
X31416000Y-57550380D01*
X31511238Y-57788476D01*
X31558857Y-57836095D01*
X31654095Y-57883714D01*
X30796952Y-56883714D02*
X30796952Y-57550380D01*
X30796952Y-56978952D02*
X30749333Y-56931333D01*
X30654095Y-56883714D01*
X30511238Y-56883714D01*
X30416000Y-56931333D01*
X30368380Y-57026571D01*
X30368380Y-57550380D01*
X30035047Y-56883714D02*
X29654095Y-56883714D01*
X29892190Y-56550380D02*
X29892190Y-57407523D01*
X29844571Y-57502761D01*
X29749333Y-57550380D01*
X29654095Y-57550380D01*
X29320761Y-57550380D02*
X29320761Y-56550380D01*
X28892190Y-57550380D02*
X28892190Y-57026571D01*
X28939809Y-56931333D01*
X29035047Y-56883714D01*
X29177904Y-56883714D01*
X29273142Y-56931333D01*
X29320761Y-56978952D01*
X28654095Y-57645619D02*
X27892190Y-57645619D01*
X27654095Y-56883714D02*
X27654095Y-57883714D01*
X27654095Y-56931333D02*
X27558857Y-56883714D01*
X27368380Y-56883714D01*
X27273142Y-56931333D01*
X27225523Y-56978952D01*
X27177904Y-57074190D01*
X27177904Y-57359904D01*
X27225523Y-57455142D01*
X27273142Y-57502761D01*
X27368380Y-57550380D01*
X27558857Y-57550380D01*
X27654095Y-57502761D01*
X26606476Y-57550380D02*
X26701714Y-57502761D01*
X26749333Y-57455142D01*
X26796952Y-57359904D01*
X26796952Y-57074190D01*
X26749333Y-56978952D01*
X26701714Y-56931333D01*
X26606476Y-56883714D01*
X26463619Y-56883714D01*
X26368380Y-56931333D01*
X26320761Y-56978952D01*
X26273142Y-57074190D01*
X26273142Y-57359904D01*
X26320761Y-57455142D01*
X26368380Y-57502761D01*
X26463619Y-57550380D01*
X26606476Y-57550380D01*
X25939809Y-56883714D02*
X25749333Y-57550380D01*
X25558857Y-57074190D01*
X25368380Y-57550380D01*
X25177904Y-56883714D01*
X24416000Y-57502761D02*
X24511238Y-57550380D01*
X24701714Y-57550380D01*
X24796952Y-57502761D01*
X24844571Y-57407523D01*
X24844571Y-57026571D01*
X24796952Y-56931333D01*
X24701714Y-56883714D01*
X24511238Y-56883714D01*
X24416000Y-56931333D01*
X24368380Y-57026571D01*
X24368380Y-57121809D01*
X24844571Y-57217047D01*
X23939809Y-57550380D02*
X23939809Y-56883714D01*
X23939809Y-57074190D02*
X23892190Y-56978952D01*
X23844571Y-56931333D01*
X23749333Y-56883714D01*
X23654095Y-56883714D01*
X23558857Y-57645619D02*
X22796952Y-57645619D01*
X22606476Y-56645619D02*
X22558857Y-56598000D01*
X22463619Y-56550380D01*
X22225523Y-56550380D01*
X22130285Y-56598000D01*
X22082666Y-56645619D01*
X22035047Y-56740857D01*
X22035047Y-56836095D01*
X22082666Y-56978952D01*
X22654095Y-57550380D01*
X22035047Y-57550380D01*
X21701714Y-57550380D02*
X21177904Y-56883714D01*
X21701714Y-56883714D02*
X21177904Y-57550380D01*
X20320761Y-56550380D02*
X20796952Y-56550380D01*
X20844571Y-57026571D01*
X20796952Y-56978952D01*
X20701714Y-56931333D01*
X20463619Y-56931333D01*
X20368380Y-56978952D01*
X20320761Y-57026571D01*
X20273142Y-57121809D01*
X20273142Y-57359904D01*
X20320761Y-57455142D01*
X20368380Y-57502761D01*
X20463619Y-57550380D01*
X20701714Y-57550380D01*
X20796952Y-57502761D01*
X20844571Y-57455142D01*
X26749333Y-69810380D02*
X26749333Y-70524666D01*
X26796952Y-70667523D01*
X26892190Y-70762761D01*
X27035047Y-70810380D01*
X27130285Y-70810380D01*
X25844571Y-70143714D02*
X25844571Y-70810380D01*
X26082666Y-69762761D02*
X26320761Y-70477047D01*
X25701714Y-70477047D01*
%TO.C,R1*%
X38722380Y-80772095D02*
X38722380Y-80200666D01*
X38722380Y-80486380D02*
X37722380Y-80486380D01*
X37865238Y-80391142D01*
X37960476Y-80295904D01*
X38008095Y-80200666D01*
X37722380Y-81391142D02*
X37722380Y-81486380D01*
X37770000Y-81581619D01*
X37817619Y-81629238D01*
X37912857Y-81676857D01*
X38103333Y-81724476D01*
X38341428Y-81724476D01*
X38531904Y-81676857D01*
X38627142Y-81629238D01*
X38674761Y-81581619D01*
X38722380Y-81486380D01*
X38722380Y-81391142D01*
X38674761Y-81295904D01*
X38627142Y-81248285D01*
X38531904Y-81200666D01*
X38341428Y-81153047D01*
X38103333Y-81153047D01*
X37912857Y-81200666D01*
X37817619Y-81248285D01*
X37770000Y-81295904D01*
X37722380Y-81391142D01*
X38722380Y-82153047D02*
X37722380Y-82153047D01*
X38436666Y-82486380D01*
X37722380Y-82819714D01*
X38722380Y-82819714D01*
X41092380Y-81367333D02*
X40616190Y-81034000D01*
X41092380Y-80795904D02*
X40092380Y-80795904D01*
X40092380Y-81176857D01*
X40140000Y-81272095D01*
X40187619Y-81319714D01*
X40282857Y-81367333D01*
X40425714Y-81367333D01*
X40520952Y-81319714D01*
X40568571Y-81272095D01*
X40616190Y-81176857D01*
X40616190Y-80795904D01*
X41092380Y-82319714D02*
X41092380Y-81748285D01*
X41092380Y-82034000D02*
X40092380Y-82034000D01*
X40235238Y-81938761D01*
X40330476Y-81843523D01*
X40378095Y-81748285D01*
%TO.C,R2*%
X63782380Y-63825452D02*
X63782380Y-63254023D01*
X63782380Y-63539738D02*
X62782380Y-63539738D01*
X62925238Y-63444500D01*
X63020476Y-63349261D01*
X63068095Y-63254023D01*
X63782380Y-64254023D02*
X62782380Y-64254023D01*
X63401428Y-64349261D02*
X63782380Y-64634976D01*
X63115714Y-64634976D02*
X63496666Y-64254023D01*
X61412380Y-63777833D02*
X60936190Y-63444500D01*
X61412380Y-63206404D02*
X60412380Y-63206404D01*
X60412380Y-63587357D01*
X60460000Y-63682595D01*
X60507619Y-63730214D01*
X60602857Y-63777833D01*
X60745714Y-63777833D01*
X60840952Y-63730214D01*
X60888571Y-63682595D01*
X60936190Y-63587357D01*
X60936190Y-63206404D01*
X60507619Y-64158785D02*
X60460000Y-64206404D01*
X60412380Y-64301642D01*
X60412380Y-64539738D01*
X60460000Y-64634976D01*
X60507619Y-64682595D01*
X60602857Y-64730214D01*
X60698095Y-64730214D01*
X60840952Y-64682595D01*
X61412380Y-64111166D01*
X61412380Y-64730214D01*
%TO.C,R3*%
X59042380Y-76652452D02*
X59042380Y-76081023D01*
X59042380Y-76366738D02*
X58042380Y-76366738D01*
X58185238Y-76271500D01*
X58280476Y-76176261D01*
X58328095Y-76081023D01*
X59042380Y-77081023D02*
X58042380Y-77081023D01*
X58661428Y-77176261D02*
X59042380Y-77461976D01*
X58375714Y-77461976D02*
X58756666Y-77081023D01*
X61412380Y-76604833D02*
X60936190Y-76271500D01*
X61412380Y-76033404D02*
X60412380Y-76033404D01*
X60412380Y-76414357D01*
X60460000Y-76509595D01*
X60507619Y-76557214D01*
X60602857Y-76604833D01*
X60745714Y-76604833D01*
X60840952Y-76557214D01*
X60888571Y-76509595D01*
X60936190Y-76414357D01*
X60936190Y-76033404D01*
X60412380Y-76938166D02*
X60412380Y-77557214D01*
X60793333Y-77223880D01*
X60793333Y-77366738D01*
X60840952Y-77461976D01*
X60888571Y-77509595D01*
X60983809Y-77557214D01*
X61221904Y-77557214D01*
X61317142Y-77509595D01*
X61364761Y-77461976D01*
X61412380Y-77366738D01*
X61412380Y-77081023D01*
X61364761Y-76985785D01*
X61317142Y-76938166D01*
%TO.C,R4*%
X48415380Y-76842952D02*
X48415380Y-76271523D01*
X48415380Y-76557238D02*
X47415380Y-76557238D01*
X47558238Y-76462000D01*
X47653476Y-76366761D01*
X47701095Y-76271523D01*
X48415380Y-77271523D02*
X47415380Y-77271523D01*
X48034428Y-77366761D02*
X48415380Y-77652476D01*
X47748714Y-77652476D02*
X48129666Y-77271523D01*
X46045380Y-76795333D02*
X45569190Y-76462000D01*
X46045380Y-76223904D02*
X45045380Y-76223904D01*
X45045380Y-76604857D01*
X45093000Y-76700095D01*
X45140619Y-76747714D01*
X45235857Y-76795333D01*
X45378714Y-76795333D01*
X45473952Y-76747714D01*
X45521571Y-76700095D01*
X45569190Y-76604857D01*
X45569190Y-76223904D01*
X45378714Y-77652476D02*
X46045380Y-77652476D01*
X44997761Y-77414380D02*
X45712047Y-77176285D01*
X45712047Y-77795333D01*
%TO.C,R5*%
X48478880Y-63825452D02*
X48478880Y-63254023D01*
X48478880Y-63539738D02*
X47478880Y-63539738D01*
X47621738Y-63444500D01*
X47716976Y-63349261D01*
X47764595Y-63254023D01*
X48478880Y-64254023D02*
X47478880Y-64254023D01*
X48097928Y-64349261D02*
X48478880Y-64634976D01*
X47812214Y-64634976D02*
X48193166Y-64254023D01*
X46108880Y-63777833D02*
X45632690Y-63444500D01*
X46108880Y-63206404D02*
X45108880Y-63206404D01*
X45108880Y-63587357D01*
X45156500Y-63682595D01*
X45204119Y-63730214D01*
X45299357Y-63777833D01*
X45442214Y-63777833D01*
X45537452Y-63730214D01*
X45585071Y-63682595D01*
X45632690Y-63587357D01*
X45632690Y-63206404D01*
X45108880Y-64682595D02*
X45108880Y-64206404D01*
X45585071Y-64158785D01*
X45537452Y-64206404D01*
X45489833Y-64301642D01*
X45489833Y-64539738D01*
X45537452Y-64634976D01*
X45585071Y-64682595D01*
X45680309Y-64730214D01*
X45918404Y-64730214D01*
X46013642Y-64682595D01*
X46061261Y-64634976D01*
X46108880Y-64539738D01*
X46108880Y-64301642D01*
X46061261Y-64206404D01*
X46013642Y-64158785D01*
%TO.C,R6*%
X38849380Y-129921095D02*
X38849380Y-129349666D01*
X38849380Y-129635380D02*
X37849380Y-129635380D01*
X37992238Y-129540142D01*
X38087476Y-129444904D01*
X38135095Y-129349666D01*
X37849380Y-130540142D02*
X37849380Y-130635380D01*
X37897000Y-130730619D01*
X37944619Y-130778238D01*
X38039857Y-130825857D01*
X38230333Y-130873476D01*
X38468428Y-130873476D01*
X38658904Y-130825857D01*
X38754142Y-130778238D01*
X38801761Y-130730619D01*
X38849380Y-130635380D01*
X38849380Y-130540142D01*
X38801761Y-130444904D01*
X38754142Y-130397285D01*
X38658904Y-130349666D01*
X38468428Y-130302047D01*
X38230333Y-130302047D01*
X38039857Y-130349666D01*
X37944619Y-130397285D01*
X37897000Y-130444904D01*
X37849380Y-130540142D01*
X38849380Y-131302047D02*
X37849380Y-131302047D01*
X38563666Y-131635380D01*
X37849380Y-131968714D01*
X38849380Y-131968714D01*
X41219380Y-130516333D02*
X40743190Y-130183000D01*
X41219380Y-129944904D02*
X40219380Y-129944904D01*
X40219380Y-130325857D01*
X40267000Y-130421095D01*
X40314619Y-130468714D01*
X40409857Y-130516333D01*
X40552714Y-130516333D01*
X40647952Y-130468714D01*
X40695571Y-130421095D01*
X40743190Y-130325857D01*
X40743190Y-129944904D01*
X40219380Y-131373476D02*
X40219380Y-131183000D01*
X40267000Y-131087761D01*
X40314619Y-131040142D01*
X40457476Y-130944904D01*
X40647952Y-130897285D01*
X41028904Y-130897285D01*
X41124142Y-130944904D01*
X41171761Y-130992523D01*
X41219380Y-131087761D01*
X41219380Y-131278238D01*
X41171761Y-131373476D01*
X41124142Y-131421095D01*
X41028904Y-131468714D01*
X40790809Y-131468714D01*
X40695571Y-131421095D01*
X40647952Y-131373476D01*
X40600333Y-131278238D01*
X40600333Y-131087761D01*
X40647952Y-130992523D01*
X40695571Y-130944904D01*
X40790809Y-130897285D01*
%TO.C,R7*%
X63464880Y-130500452D02*
X63464880Y-129929023D01*
X63464880Y-130214738D02*
X62464880Y-130214738D01*
X62607738Y-130119500D01*
X62702976Y-130024261D01*
X62750595Y-129929023D01*
X63464880Y-130929023D02*
X62464880Y-130929023D01*
X63083928Y-131024261D02*
X63464880Y-131309976D01*
X62798214Y-131309976D02*
X63179166Y-130929023D01*
X61094880Y-130452833D02*
X60618690Y-130119500D01*
X61094880Y-129881404D02*
X60094880Y-129881404D01*
X60094880Y-130262357D01*
X60142500Y-130357595D01*
X60190119Y-130405214D01*
X60285357Y-130452833D01*
X60428214Y-130452833D01*
X60523452Y-130405214D01*
X60571071Y-130357595D01*
X60618690Y-130262357D01*
X60618690Y-129881404D01*
X60094880Y-130786166D02*
X60094880Y-131452833D01*
X61094880Y-131024261D01*
%TO.C,R8*%
X63464880Y-143454452D02*
X63464880Y-142883023D01*
X63464880Y-143168738D02*
X62464880Y-143168738D01*
X62607738Y-143073500D01*
X62702976Y-142978261D01*
X62750595Y-142883023D01*
X63464880Y-143883023D02*
X62464880Y-143883023D01*
X63083928Y-143978261D02*
X63464880Y-144263976D01*
X62798214Y-144263976D02*
X63179166Y-143883023D01*
X61094880Y-143406833D02*
X60618690Y-143073500D01*
X61094880Y-142835404D02*
X60094880Y-142835404D01*
X60094880Y-143216357D01*
X60142500Y-143311595D01*
X60190119Y-143359214D01*
X60285357Y-143406833D01*
X60428214Y-143406833D01*
X60523452Y-143359214D01*
X60571071Y-143311595D01*
X60618690Y-143216357D01*
X60618690Y-142835404D01*
X60523452Y-143978261D02*
X60475833Y-143883023D01*
X60428214Y-143835404D01*
X60332976Y-143787785D01*
X60285357Y-143787785D01*
X60190119Y-143835404D01*
X60142500Y-143883023D01*
X60094880Y-143978261D01*
X60094880Y-144168738D01*
X60142500Y-144263976D01*
X60190119Y-144311595D01*
X60285357Y-144359214D01*
X60332976Y-144359214D01*
X60428214Y-144311595D01*
X60475833Y-144263976D01*
X60523452Y-144168738D01*
X60523452Y-143978261D01*
X60571071Y-143883023D01*
X60618690Y-143835404D01*
X60713928Y-143787785D01*
X60904404Y-143787785D01*
X60999642Y-143835404D01*
X61047261Y-143883023D01*
X61094880Y-143978261D01*
X61094880Y-144168738D01*
X61047261Y-144263976D01*
X60999642Y-144311595D01*
X60904404Y-144359214D01*
X60713928Y-144359214D01*
X60618690Y-144311595D01*
X60571071Y-144263976D01*
X60523452Y-144168738D01*
%TO.C,R9*%
X48097880Y-143454452D02*
X48097880Y-142883023D01*
X48097880Y-143168738D02*
X47097880Y-143168738D01*
X47240738Y-143073500D01*
X47335976Y-142978261D01*
X47383595Y-142883023D01*
X48097880Y-143883023D02*
X47097880Y-143883023D01*
X47716928Y-143978261D02*
X48097880Y-144263976D01*
X47431214Y-144263976D02*
X47812166Y-143883023D01*
X45727880Y-143406833D02*
X45251690Y-143073500D01*
X45727880Y-142835404D02*
X44727880Y-142835404D01*
X44727880Y-143216357D01*
X44775500Y-143311595D01*
X44823119Y-143359214D01*
X44918357Y-143406833D01*
X45061214Y-143406833D01*
X45156452Y-143359214D01*
X45204071Y-143311595D01*
X45251690Y-143216357D01*
X45251690Y-142835404D01*
X45727880Y-143883023D02*
X45727880Y-144073500D01*
X45680261Y-144168738D01*
X45632642Y-144216357D01*
X45489785Y-144311595D01*
X45299309Y-144359214D01*
X44918357Y-144359214D01*
X44823119Y-144311595D01*
X44775500Y-144263976D01*
X44727880Y-144168738D01*
X44727880Y-143978261D01*
X44775500Y-143883023D01*
X44823119Y-143835404D01*
X44918357Y-143787785D01*
X45156452Y-143787785D01*
X45251690Y-143835404D01*
X45299309Y-143883023D01*
X45346928Y-143978261D01*
X45346928Y-144168738D01*
X45299309Y-144263976D01*
X45251690Y-144311595D01*
X45156452Y-144359214D01*
%TO.C,R10*%
X43294380Y-130563952D02*
X43294380Y-129992523D01*
X43294380Y-130278238D02*
X42294380Y-130278238D01*
X42437238Y-130183000D01*
X42532476Y-130087761D01*
X42580095Y-129992523D01*
X43294380Y-130992523D02*
X42294380Y-130992523D01*
X42913428Y-131087761D02*
X43294380Y-131373476D01*
X42627714Y-131373476D02*
X43008666Y-130992523D01*
X45664380Y-130040142D02*
X45188190Y-129706809D01*
X45664380Y-129468714D02*
X44664380Y-129468714D01*
X44664380Y-129849666D01*
X44712000Y-129944904D01*
X44759619Y-129992523D01*
X44854857Y-130040142D01*
X44997714Y-130040142D01*
X45092952Y-129992523D01*
X45140571Y-129944904D01*
X45188190Y-129849666D01*
X45188190Y-129468714D01*
X45664380Y-130992523D02*
X45664380Y-130421095D01*
X45664380Y-130706809D02*
X44664380Y-130706809D01*
X44807238Y-130611571D01*
X44902476Y-130516333D01*
X44950095Y-130421095D01*
X44664380Y-131611571D02*
X44664380Y-131706809D01*
X44712000Y-131802047D01*
X44759619Y-131849666D01*
X44854857Y-131897285D01*
X45045333Y-131944904D01*
X45283428Y-131944904D01*
X45473904Y-131897285D01*
X45569142Y-131849666D01*
X45616761Y-131802047D01*
X45664380Y-131706809D01*
X45664380Y-131611571D01*
X45616761Y-131516333D01*
X45569142Y-131468714D01*
X45473904Y-131421095D01*
X45283428Y-131373476D01*
X45045333Y-131373476D01*
X44854857Y-131421095D01*
X44759619Y-131468714D01*
X44712000Y-131516333D01*
X44664380Y-131611571D01*
%TO.C,R11*%
X43589380Y-142811595D02*
X43589380Y-142240166D01*
X43589380Y-142525880D02*
X42589380Y-142525880D01*
X42732238Y-142430642D01*
X42827476Y-142335404D01*
X42875095Y-142240166D01*
X42589380Y-143430642D02*
X42589380Y-143525880D01*
X42637000Y-143621119D01*
X42684619Y-143668738D01*
X42779857Y-143716357D01*
X42970333Y-143763976D01*
X43208428Y-143763976D01*
X43398904Y-143716357D01*
X43494142Y-143668738D01*
X43541761Y-143621119D01*
X43589380Y-143525880D01*
X43589380Y-143430642D01*
X43541761Y-143335404D01*
X43494142Y-143287785D01*
X43398904Y-143240166D01*
X43208428Y-143192547D01*
X42970333Y-143192547D01*
X42779857Y-143240166D01*
X42684619Y-143287785D01*
X42637000Y-143335404D01*
X42589380Y-143430642D01*
X43589380Y-144192547D02*
X42589380Y-144192547D01*
X43303666Y-144525880D01*
X42589380Y-144859214D01*
X43589380Y-144859214D01*
X41219380Y-142930642D02*
X40743190Y-142597309D01*
X41219380Y-142359214D02*
X40219380Y-142359214D01*
X40219380Y-142740166D01*
X40267000Y-142835404D01*
X40314619Y-142883023D01*
X40409857Y-142930642D01*
X40552714Y-142930642D01*
X40647952Y-142883023D01*
X40695571Y-142835404D01*
X40743190Y-142740166D01*
X40743190Y-142359214D01*
X41219380Y-143883023D02*
X41219380Y-143311595D01*
X41219380Y-143597309D02*
X40219380Y-143597309D01*
X40362238Y-143502071D01*
X40457476Y-143406833D01*
X40505095Y-143311595D01*
X41219380Y-144835404D02*
X41219380Y-144263976D01*
X41219380Y-144549690D02*
X40219380Y-144549690D01*
X40362238Y-144454452D01*
X40457476Y-144359214D01*
X40505095Y-144263976D01*
%TO.C,R12*%
X38890380Y-130500452D02*
X38890380Y-129929023D01*
X38890380Y-130214738D02*
X37890380Y-130214738D01*
X38033238Y-130119500D01*
X38128476Y-130024261D01*
X38176095Y-129929023D01*
X38890380Y-130929023D02*
X37890380Y-130929023D01*
X38509428Y-131024261D02*
X38890380Y-131309976D01*
X38223714Y-131309976D02*
X38604666Y-130929023D01*
X36520380Y-129976642D02*
X36044190Y-129643309D01*
X36520380Y-129405214D02*
X35520380Y-129405214D01*
X35520380Y-129786166D01*
X35568000Y-129881404D01*
X35615619Y-129929023D01*
X35710857Y-129976642D01*
X35853714Y-129976642D01*
X35948952Y-129929023D01*
X35996571Y-129881404D01*
X36044190Y-129786166D01*
X36044190Y-129405214D01*
X36520380Y-130929023D02*
X36520380Y-130357595D01*
X36520380Y-130643309D02*
X35520380Y-130643309D01*
X35663238Y-130548071D01*
X35758476Y-130452833D01*
X35806095Y-130357595D01*
X35615619Y-131309976D02*
X35568000Y-131357595D01*
X35520380Y-131452833D01*
X35520380Y-131690928D01*
X35568000Y-131786166D01*
X35615619Y-131833785D01*
X35710857Y-131881404D01*
X35806095Y-131881404D01*
X35948952Y-131833785D01*
X36520380Y-131262357D01*
X36520380Y-131881404D01*
%TO.C,R13*%
X34086880Y-143327452D02*
X34086880Y-142756023D01*
X34086880Y-143041738D02*
X33086880Y-143041738D01*
X33229738Y-142946500D01*
X33324976Y-142851261D01*
X33372595Y-142756023D01*
X34086880Y-143756023D02*
X33086880Y-143756023D01*
X33705928Y-143851261D02*
X34086880Y-144136976D01*
X33420214Y-144136976D02*
X33801166Y-143756023D01*
X36456880Y-142803642D02*
X35980690Y-142470309D01*
X36456880Y-142232214D02*
X35456880Y-142232214D01*
X35456880Y-142613166D01*
X35504500Y-142708404D01*
X35552119Y-142756023D01*
X35647357Y-142803642D01*
X35790214Y-142803642D01*
X35885452Y-142756023D01*
X35933071Y-142708404D01*
X35980690Y-142613166D01*
X35980690Y-142232214D01*
X36456880Y-143756023D02*
X36456880Y-143184595D01*
X36456880Y-143470309D02*
X35456880Y-143470309D01*
X35599738Y-143375071D01*
X35694976Y-143279833D01*
X35742595Y-143184595D01*
X35456880Y-144089357D02*
X35456880Y-144708404D01*
X35837833Y-144375071D01*
X35837833Y-144517928D01*
X35885452Y-144613166D01*
X35933071Y-144660785D01*
X36028309Y-144708404D01*
X36266404Y-144708404D01*
X36361642Y-144660785D01*
X36409261Y-144613166D01*
X36456880Y-144517928D01*
X36456880Y-144232214D01*
X36409261Y-144136976D01*
X36361642Y-144089357D01*
%TO.C,R14*%
X18084880Y-143517952D02*
X18084880Y-142946523D01*
X18084880Y-143232238D02*
X17084880Y-143232238D01*
X17227738Y-143137000D01*
X17322976Y-143041761D01*
X17370595Y-142946523D01*
X18084880Y-143946523D02*
X17084880Y-143946523D01*
X17703928Y-144041761D02*
X18084880Y-144327476D01*
X17418214Y-144327476D02*
X17799166Y-143946523D01*
X20454880Y-142994142D02*
X19978690Y-142660809D01*
X20454880Y-142422714D02*
X19454880Y-142422714D01*
X19454880Y-142803666D01*
X19502500Y-142898904D01*
X19550119Y-142946523D01*
X19645357Y-142994142D01*
X19788214Y-142994142D01*
X19883452Y-142946523D01*
X19931071Y-142898904D01*
X19978690Y-142803666D01*
X19978690Y-142422714D01*
X20454880Y-143946523D02*
X20454880Y-143375095D01*
X20454880Y-143660809D02*
X19454880Y-143660809D01*
X19597738Y-143565571D01*
X19692976Y-143470333D01*
X19740595Y-143375095D01*
X19788214Y-144803666D02*
X20454880Y-144803666D01*
X19407261Y-144565571D02*
X20121547Y-144327476D01*
X20121547Y-144946523D01*
%TO.C,R15*%
X18148380Y-130563952D02*
X18148380Y-129992523D01*
X18148380Y-130278238D02*
X17148380Y-130278238D01*
X17291238Y-130183000D01*
X17386476Y-130087761D01*
X17434095Y-129992523D01*
X18148380Y-130992523D02*
X17148380Y-130992523D01*
X17767428Y-131087761D02*
X18148380Y-131373476D01*
X17481714Y-131373476D02*
X17862666Y-130992523D01*
X20518380Y-130040142D02*
X20042190Y-129706809D01*
X20518380Y-129468714D02*
X19518380Y-129468714D01*
X19518380Y-129849666D01*
X19566000Y-129944904D01*
X19613619Y-129992523D01*
X19708857Y-130040142D01*
X19851714Y-130040142D01*
X19946952Y-129992523D01*
X19994571Y-129944904D01*
X20042190Y-129849666D01*
X20042190Y-129468714D01*
X20518380Y-130992523D02*
X20518380Y-130421095D01*
X20518380Y-130706809D02*
X19518380Y-130706809D01*
X19661238Y-130611571D01*
X19756476Y-130516333D01*
X19804095Y-130421095D01*
X19518380Y-131897285D02*
X19518380Y-131421095D01*
X19994571Y-131373476D01*
X19946952Y-131421095D01*
X19899333Y-131516333D01*
X19899333Y-131754428D01*
X19946952Y-131849666D01*
X19994571Y-131897285D01*
X20089809Y-131944904D01*
X20327904Y-131944904D01*
X20423142Y-131897285D01*
X20470761Y-131849666D01*
X20518380Y-131754428D01*
X20518380Y-131516333D01*
X20470761Y-131421095D01*
X20423142Y-131373476D01*
%TO.C,U1*%
X55332047Y-78998380D02*
X54760619Y-78998380D01*
X55046333Y-79998380D02*
X55046333Y-78998380D01*
X53951095Y-79998380D02*
X54427285Y-79998380D01*
X54427285Y-78998380D01*
X53427285Y-78998380D02*
X53332047Y-78998380D01*
X53236809Y-79046000D01*
X53189190Y-79093619D01*
X53141571Y-79188857D01*
X53093952Y-79379333D01*
X53093952Y-79617428D01*
X53141571Y-79807904D01*
X53189190Y-79903142D01*
X53236809Y-79950761D01*
X53332047Y-79998380D01*
X53427285Y-79998380D01*
X53522523Y-79950761D01*
X53570142Y-79903142D01*
X53617761Y-79807904D01*
X53665380Y-79617428D01*
X53665380Y-79379333D01*
X53617761Y-79188857D01*
X53570142Y-79093619D01*
X53522523Y-79046000D01*
X53427285Y-78998380D01*
X52760619Y-78998380D02*
X52093952Y-78998380D01*
X52522523Y-79998380D01*
X51284428Y-79331714D02*
X51284428Y-79998380D01*
X51522523Y-78950761D02*
X51760619Y-79665047D01*
X51141571Y-79665047D01*
X53974904Y-69048380D02*
X53974904Y-69857904D01*
X53927285Y-69953142D01*
X53879666Y-70000761D01*
X53784428Y-70048380D01*
X53593952Y-70048380D01*
X53498714Y-70000761D01*
X53451095Y-69953142D01*
X53403476Y-69857904D01*
X53403476Y-69048380D01*
X52403476Y-70048380D02*
X52974904Y-70048380D01*
X52689190Y-70048380D02*
X52689190Y-69048380D01*
X52784428Y-69191238D01*
X52879666Y-69286476D01*
X52974904Y-69334095D01*
%TO.C,U2*%
X55205047Y-147070380D02*
X54633619Y-147070380D01*
X54919333Y-148070380D02*
X54919333Y-147070380D01*
X53824095Y-148070380D02*
X54300285Y-148070380D01*
X54300285Y-147070380D01*
X53300285Y-147070380D02*
X53205047Y-147070380D01*
X53109809Y-147118000D01*
X53062190Y-147165619D01*
X53014571Y-147260857D01*
X52966952Y-147451333D01*
X52966952Y-147689428D01*
X53014571Y-147879904D01*
X53062190Y-147975142D01*
X53109809Y-148022761D01*
X53205047Y-148070380D01*
X53300285Y-148070380D01*
X53395523Y-148022761D01*
X53443142Y-147975142D01*
X53490761Y-147879904D01*
X53538380Y-147689428D01*
X53538380Y-147451333D01*
X53490761Y-147260857D01*
X53443142Y-147165619D01*
X53395523Y-147118000D01*
X53300285Y-147070380D01*
X52633619Y-147070380D02*
X51966952Y-147070380D01*
X52395523Y-148070380D01*
X51157428Y-147403714D02*
X51157428Y-148070380D01*
X51395523Y-147022761D02*
X51633619Y-147737047D01*
X51014571Y-147737047D01*
X53847904Y-137120380D02*
X53847904Y-137929904D01*
X53800285Y-138025142D01*
X53752666Y-138072761D01*
X53657428Y-138120380D01*
X53466952Y-138120380D01*
X53371714Y-138072761D01*
X53324095Y-138025142D01*
X53276476Y-137929904D01*
X53276476Y-137120380D01*
X52847904Y-137215619D02*
X52800285Y-137168000D01*
X52705047Y-137120380D01*
X52466952Y-137120380D01*
X52371714Y-137168000D01*
X52324095Y-137215619D01*
X52276476Y-137310857D01*
X52276476Y-137406095D01*
X52324095Y-137548952D01*
X52895523Y-138120380D01*
X52276476Y-138120380D01*
%TO.C,U3*%
X30249547Y-147260880D02*
X29678119Y-147260880D01*
X29963833Y-148260880D02*
X29963833Y-147260880D01*
X28868595Y-148260880D02*
X29344785Y-148260880D01*
X29344785Y-147260880D01*
X28344785Y-147260880D02*
X28249547Y-147260880D01*
X28154309Y-147308500D01*
X28106690Y-147356119D01*
X28059071Y-147451357D01*
X28011452Y-147641833D01*
X28011452Y-147879928D01*
X28059071Y-148070404D01*
X28106690Y-148165642D01*
X28154309Y-148213261D01*
X28249547Y-148260880D01*
X28344785Y-148260880D01*
X28440023Y-148213261D01*
X28487642Y-148165642D01*
X28535261Y-148070404D01*
X28582880Y-147879928D01*
X28582880Y-147641833D01*
X28535261Y-147451357D01*
X28487642Y-147356119D01*
X28440023Y-147308500D01*
X28344785Y-147260880D01*
X27678119Y-147260880D02*
X27011452Y-147260880D01*
X27440023Y-148260880D01*
X26201928Y-147594214D02*
X26201928Y-148260880D01*
X26440023Y-147213261D02*
X26678119Y-147927547D01*
X26059071Y-147927547D01*
X28892404Y-137310880D02*
X28892404Y-138120404D01*
X28844785Y-138215642D01*
X28797166Y-138263261D01*
X28701928Y-138310880D01*
X28511452Y-138310880D01*
X28416214Y-138263261D01*
X28368595Y-138215642D01*
X28320976Y-138120404D01*
X28320976Y-137310880D01*
X27940023Y-137310880D02*
X27320976Y-137310880D01*
X27654309Y-137691833D01*
X27511452Y-137691833D01*
X27416214Y-137739452D01*
X27368595Y-137787071D01*
X27320976Y-137882309D01*
X27320976Y-138120404D01*
X27368595Y-138215642D01*
X27416214Y-138263261D01*
X27511452Y-138310880D01*
X27797166Y-138310880D01*
X27892404Y-138263261D01*
X27940023Y-138215642D01*
%TD*%
M02*
