%TF.GenerationSoftware,KiCad,Pcbnew,(5.1.9)-1*%
%TF.CreationDate,2021-09-13T20:57:42+01:00*%
%TF.ProjectId,KOSMO Mult faceplate,4b4f534d-4f20-44d7-956c-742066616365,rev?*%
%TF.SameCoordinates,Original*%
%TF.FileFunction,Other,Fab,Top*%
%FSLAX46Y46*%
G04 Gerber Fmt 4.6, Leading zero omitted, Abs format (unit mm)*
G04 Created by KiCad (PCBNEW (5.1.9)-1) date 2021-09-13 20:57:42*
%MOMM*%
%LPD*%
G01*
G04 APERTURE LIST*
%ADD10C,0.150000*%
G04 APERTURE END LIST*
%TO.C,H26*%
D10*
X37576452Y-177267380D02*
X37100261Y-177267380D01*
X37100261Y-176267380D01*
X38290738Y-177219761D02*
X38195500Y-177267380D01*
X38005023Y-177267380D01*
X37909785Y-177219761D01*
X37862166Y-177124523D01*
X37862166Y-176743571D01*
X37909785Y-176648333D01*
X38005023Y-176600714D01*
X38195500Y-176600714D01*
X38290738Y-176648333D01*
X38338357Y-176743571D01*
X38338357Y-176838809D01*
X37862166Y-176934047D01*
X39195500Y-177267380D02*
X39195500Y-176267380D01*
X39195500Y-177219761D02*
X39100261Y-177267380D01*
X38909785Y-177267380D01*
X38814547Y-177219761D01*
X38766928Y-177172142D01*
X38719309Y-177076904D01*
X38719309Y-176791190D01*
X38766928Y-176695952D01*
X38814547Y-176648333D01*
X38909785Y-176600714D01*
X39100261Y-176600714D01*
X39195500Y-176648333D01*
X39433595Y-177362619D02*
X40195500Y-177362619D01*
X40433595Y-177267380D02*
X40433595Y-176267380D01*
X40433595Y-176743571D02*
X41005023Y-176743571D01*
X41005023Y-177267380D02*
X41005023Y-176267380D01*
X41624071Y-177267380D02*
X41528833Y-177219761D01*
X41481214Y-177172142D01*
X41433595Y-177076904D01*
X41433595Y-176791190D01*
X41481214Y-176695952D01*
X41528833Y-176648333D01*
X41624071Y-176600714D01*
X41766928Y-176600714D01*
X41862166Y-176648333D01*
X41909785Y-176695952D01*
X41957404Y-176791190D01*
X41957404Y-177076904D01*
X41909785Y-177172142D01*
X41862166Y-177219761D01*
X41766928Y-177267380D01*
X41624071Y-177267380D01*
X42528833Y-177267380D02*
X42433595Y-177219761D01*
X42385976Y-177124523D01*
X42385976Y-176267380D01*
X43290738Y-177219761D02*
X43195500Y-177267380D01*
X43005023Y-177267380D01*
X42909785Y-177219761D01*
X42862166Y-177124523D01*
X42862166Y-176743571D01*
X42909785Y-176648333D01*
X43005023Y-176600714D01*
X43195500Y-176600714D01*
X43290738Y-176648333D01*
X43338357Y-176743571D01*
X43338357Y-176838809D01*
X42862166Y-176934047D01*
X39257404Y-171267380D02*
X39257404Y-170267380D01*
X39257404Y-170743571D02*
X39828833Y-170743571D01*
X39828833Y-171267380D02*
X39828833Y-170267380D01*
X40257404Y-170362619D02*
X40305023Y-170315000D01*
X40400261Y-170267380D01*
X40638357Y-170267380D01*
X40733595Y-170315000D01*
X40781214Y-170362619D01*
X40828833Y-170457857D01*
X40828833Y-170553095D01*
X40781214Y-170695952D01*
X40209785Y-171267380D01*
X40828833Y-171267380D01*
X41685976Y-170267380D02*
X41495500Y-170267380D01*
X41400261Y-170315000D01*
X41352642Y-170362619D01*
X41257404Y-170505476D01*
X41209785Y-170695952D01*
X41209785Y-171076904D01*
X41257404Y-171172142D01*
X41305023Y-171219761D01*
X41400261Y-171267380D01*
X41590738Y-171267380D01*
X41685976Y-171219761D01*
X41733595Y-171172142D01*
X41781214Y-171076904D01*
X41781214Y-170838809D01*
X41733595Y-170743571D01*
X41685976Y-170695952D01*
X41590738Y-170648333D01*
X41400261Y-170648333D01*
X41305023Y-170695952D01*
X41257404Y-170743571D01*
X41209785Y-170838809D01*
%TO.C,REF\u002A\u002A*%
X38544666Y-200469380D02*
X38211333Y-199993190D01*
X37973238Y-200469380D02*
X37973238Y-199469380D01*
X38354190Y-199469380D01*
X38449428Y-199517000D01*
X38497047Y-199564619D01*
X38544666Y-199659857D01*
X38544666Y-199802714D01*
X38497047Y-199897952D01*
X38449428Y-199945571D01*
X38354190Y-199993190D01*
X37973238Y-199993190D01*
X38973238Y-199945571D02*
X39306571Y-199945571D01*
X39449428Y-200469380D02*
X38973238Y-200469380D01*
X38973238Y-199469380D01*
X39449428Y-199469380D01*
X40211333Y-199945571D02*
X39878000Y-199945571D01*
X39878000Y-200469380D02*
X39878000Y-199469380D01*
X40354190Y-199469380D01*
X40878000Y-199469380D02*
X40878000Y-199707476D01*
X40639904Y-199612238D02*
X40878000Y-199707476D01*
X41116095Y-199612238D01*
X40735142Y-199897952D02*
X40878000Y-199707476D01*
X41020857Y-199897952D01*
X41639904Y-199469380D02*
X41639904Y-199707476D01*
X41401809Y-199612238D02*
X41639904Y-199707476D01*
X41878000Y-199612238D01*
X41497047Y-199897952D02*
X41639904Y-199707476D01*
X41782761Y-199897952D01*
X37354190Y-198469380D02*
X37163714Y-198469380D01*
X37068476Y-198517000D01*
X37020857Y-198564619D01*
X36925619Y-198707476D01*
X36878000Y-198897952D01*
X36878000Y-199278904D01*
X36925619Y-199374142D01*
X36973238Y-199421761D01*
X37068476Y-199469380D01*
X37258952Y-199469380D01*
X37354190Y-199421761D01*
X37401809Y-199374142D01*
X37449428Y-199278904D01*
X37449428Y-199040809D01*
X37401809Y-198945571D01*
X37354190Y-198897952D01*
X37258952Y-198850333D01*
X37068476Y-198850333D01*
X36973238Y-198897952D01*
X36925619Y-198945571D01*
X36878000Y-199040809D01*
X37878000Y-199088428D02*
X38639904Y-199088428D01*
X38258952Y-199469380D02*
X38258952Y-198707476D01*
X39639904Y-199469380D02*
X39068476Y-199469380D01*
X39354190Y-199469380D02*
X39354190Y-198469380D01*
X39258952Y-198612238D01*
X39163714Y-198707476D01*
X39068476Y-198755095D01*
X40211333Y-199469380D02*
X40116095Y-199421761D01*
X40068476Y-199326523D01*
X40068476Y-198469380D01*
X40735142Y-199469380D02*
X40639904Y-199421761D01*
X40592285Y-199374142D01*
X40544666Y-199278904D01*
X40544666Y-198993190D01*
X40592285Y-198897952D01*
X40639904Y-198850333D01*
X40735142Y-198802714D01*
X40878000Y-198802714D01*
X40973238Y-198850333D01*
X41020857Y-198897952D01*
X41068476Y-198993190D01*
X41068476Y-199278904D01*
X41020857Y-199374142D01*
X40973238Y-199421761D01*
X40878000Y-199469380D01*
X40735142Y-199469380D01*
X41925619Y-198802714D02*
X41925619Y-199612238D01*
X41878000Y-199707476D01*
X41830380Y-199755095D01*
X41735142Y-199802714D01*
X41592285Y-199802714D01*
X41497047Y-199755095D01*
X41925619Y-199421761D02*
X41830380Y-199469380D01*
X41639904Y-199469380D01*
X41544666Y-199421761D01*
X41497047Y-199374142D01*
X41449428Y-199278904D01*
X41449428Y-198993190D01*
X41497047Y-198897952D01*
X41544666Y-198850333D01*
X41639904Y-198802714D01*
X41830380Y-198802714D01*
X41925619Y-198850333D01*
X42544666Y-199469380D02*
X42449428Y-199421761D01*
X42401809Y-199374142D01*
X42354190Y-199278904D01*
X42354190Y-198993190D01*
X42401809Y-198897952D01*
X42449428Y-198850333D01*
X42544666Y-198802714D01*
X42687523Y-198802714D01*
X42782761Y-198850333D01*
X42830380Y-198897952D01*
X42878000Y-198993190D01*
X42878000Y-199278904D01*
X42830380Y-199374142D01*
X42782761Y-199421761D01*
X42687523Y-199469380D01*
X42544666Y-199469380D01*
%TO.C,H5*%
X11497523Y-216488380D02*
X11497523Y-215488380D01*
X11830857Y-216202666D01*
X12164190Y-215488380D01*
X12164190Y-216488380D01*
X12783238Y-216488380D02*
X12688000Y-216440761D01*
X12640380Y-216393142D01*
X12592761Y-216297904D01*
X12592761Y-216012190D01*
X12640380Y-215916952D01*
X12688000Y-215869333D01*
X12783238Y-215821714D01*
X12926095Y-215821714D01*
X13021333Y-215869333D01*
X13068952Y-215916952D01*
X13116571Y-216012190D01*
X13116571Y-216297904D01*
X13068952Y-216393142D01*
X13021333Y-216440761D01*
X12926095Y-216488380D01*
X12783238Y-216488380D01*
X13973714Y-215821714D02*
X13973714Y-216488380D01*
X13545142Y-215821714D02*
X13545142Y-216345523D01*
X13592761Y-216440761D01*
X13688000Y-216488380D01*
X13830857Y-216488380D01*
X13926095Y-216440761D01*
X13973714Y-216393142D01*
X14449904Y-215821714D02*
X14449904Y-216488380D01*
X14449904Y-215916952D02*
X14497523Y-215869333D01*
X14592761Y-215821714D01*
X14735619Y-215821714D01*
X14830857Y-215869333D01*
X14878476Y-215964571D01*
X14878476Y-216488380D01*
X15211809Y-215821714D02*
X15592761Y-215821714D01*
X15354666Y-215488380D02*
X15354666Y-216345523D01*
X15402285Y-216440761D01*
X15497523Y-216488380D01*
X15592761Y-216488380D01*
X15926095Y-216488380D02*
X15926095Y-215821714D01*
X15926095Y-215488380D02*
X15878476Y-215536000D01*
X15926095Y-215583619D01*
X15973714Y-215536000D01*
X15926095Y-215488380D01*
X15926095Y-215583619D01*
X16402285Y-215821714D02*
X16402285Y-216488380D01*
X16402285Y-215916952D02*
X16449904Y-215869333D01*
X16545142Y-215821714D01*
X16688000Y-215821714D01*
X16783238Y-215869333D01*
X16830857Y-215964571D01*
X16830857Y-216488380D01*
X17735619Y-215821714D02*
X17735619Y-216631238D01*
X17688000Y-216726476D01*
X17640380Y-216774095D01*
X17545142Y-216821714D01*
X17402285Y-216821714D01*
X17307047Y-216774095D01*
X17735619Y-216440761D02*
X17640380Y-216488380D01*
X17449904Y-216488380D01*
X17354666Y-216440761D01*
X17307047Y-216393142D01*
X17259428Y-216297904D01*
X17259428Y-216012190D01*
X17307047Y-215916952D01*
X17354666Y-215869333D01*
X17449904Y-215821714D01*
X17640380Y-215821714D01*
X17735619Y-215869333D01*
X17973714Y-216583619D02*
X18735619Y-216583619D01*
X18973714Y-216488380D02*
X18973714Y-215488380D01*
X18973714Y-215964571D02*
X19545142Y-215964571D01*
X19545142Y-216488380D02*
X19545142Y-215488380D01*
X20164190Y-216488380D02*
X20068952Y-216440761D01*
X20021333Y-216393142D01*
X19973714Y-216297904D01*
X19973714Y-216012190D01*
X20021333Y-215916952D01*
X20068952Y-215869333D01*
X20164190Y-215821714D01*
X20307047Y-215821714D01*
X20402285Y-215869333D01*
X20449904Y-215916952D01*
X20497523Y-216012190D01*
X20497523Y-216297904D01*
X20449904Y-216393142D01*
X20402285Y-216440761D01*
X20307047Y-216488380D01*
X20164190Y-216488380D01*
X21068952Y-216488380D02*
X20973714Y-216440761D01*
X20926095Y-216345523D01*
X20926095Y-215488380D01*
X21830857Y-216440761D02*
X21735619Y-216488380D01*
X21545142Y-216488380D01*
X21449904Y-216440761D01*
X21402285Y-216345523D01*
X21402285Y-215964571D01*
X21449904Y-215869333D01*
X21545142Y-215821714D01*
X21735619Y-215821714D01*
X21830857Y-215869333D01*
X21878476Y-215964571D01*
X21878476Y-216059809D01*
X21402285Y-216155047D01*
X22068952Y-216583619D02*
X22830857Y-216583619D01*
X23021333Y-216440761D02*
X23164190Y-216488380D01*
X23402285Y-216488380D01*
X23497523Y-216440761D01*
X23545142Y-216393142D01*
X23592761Y-216297904D01*
X23592761Y-216202666D01*
X23545142Y-216107428D01*
X23497523Y-216059809D01*
X23402285Y-216012190D01*
X23211809Y-215964571D01*
X23116571Y-215916952D01*
X23068952Y-215869333D01*
X23021333Y-215774095D01*
X23021333Y-215678857D01*
X23068952Y-215583619D01*
X23116571Y-215536000D01*
X23211809Y-215488380D01*
X23449904Y-215488380D01*
X23592761Y-215536000D01*
X24164190Y-216488380D02*
X24068952Y-216440761D01*
X24021333Y-216345523D01*
X24021333Y-215488380D01*
X24688000Y-216488380D02*
X24592761Y-216440761D01*
X24545142Y-216393142D01*
X24497523Y-216297904D01*
X24497523Y-216012190D01*
X24545142Y-215916952D01*
X24592761Y-215869333D01*
X24688000Y-215821714D01*
X24830857Y-215821714D01*
X24926095Y-215869333D01*
X24973714Y-215916952D01*
X25021333Y-216012190D01*
X25021333Y-216297904D01*
X24973714Y-216393142D01*
X24926095Y-216440761D01*
X24830857Y-216488380D01*
X24688000Y-216488380D01*
X25307047Y-215821714D02*
X25688000Y-215821714D01*
X25449904Y-215488380D02*
X25449904Y-216345523D01*
X25497523Y-216440761D01*
X25592761Y-216488380D01*
X25688000Y-216488380D01*
X25878476Y-215821714D02*
X26259428Y-215821714D01*
X26021333Y-215488380D02*
X26021333Y-216345523D01*
X26068952Y-216440761D01*
X26164190Y-216488380D01*
X26259428Y-216488380D01*
X26973714Y-216440761D02*
X26878476Y-216488380D01*
X26688000Y-216488380D01*
X26592761Y-216440761D01*
X26545142Y-216345523D01*
X26545142Y-215964571D01*
X26592761Y-215869333D01*
X26688000Y-215821714D01*
X26878476Y-215821714D01*
X26973714Y-215869333D01*
X27021333Y-215964571D01*
X27021333Y-216059809D01*
X26545142Y-216155047D01*
X27878476Y-216488380D02*
X27878476Y-215488380D01*
X27878476Y-216440761D02*
X27783238Y-216488380D01*
X27592761Y-216488380D01*
X27497523Y-216440761D01*
X27449904Y-216393142D01*
X27402285Y-216297904D01*
X27402285Y-216012190D01*
X27449904Y-215916952D01*
X27497523Y-215869333D01*
X27592761Y-215821714D01*
X27783238Y-215821714D01*
X27878476Y-215869333D01*
X19226095Y-212288380D02*
X19226095Y-211288380D01*
X19226095Y-211764571D02*
X19797523Y-211764571D01*
X19797523Y-212288380D02*
X19797523Y-211288380D01*
X20749904Y-211288380D02*
X20273714Y-211288380D01*
X20226095Y-211764571D01*
X20273714Y-211716952D01*
X20368952Y-211669333D01*
X20607047Y-211669333D01*
X20702285Y-211716952D01*
X20749904Y-211764571D01*
X20797523Y-211859809D01*
X20797523Y-212097904D01*
X20749904Y-212193142D01*
X20702285Y-212240761D01*
X20607047Y-212288380D01*
X20368952Y-212288380D01*
X20273714Y-212240761D01*
X20226095Y-212193142D01*
%TO.C,H10*%
X52518523Y-22495880D02*
X52518523Y-21495880D01*
X52851857Y-22210166D01*
X53185190Y-21495880D01*
X53185190Y-22495880D01*
X53804238Y-22495880D02*
X53709000Y-22448261D01*
X53661380Y-22400642D01*
X53613761Y-22305404D01*
X53613761Y-22019690D01*
X53661380Y-21924452D01*
X53709000Y-21876833D01*
X53804238Y-21829214D01*
X53947095Y-21829214D01*
X54042333Y-21876833D01*
X54089952Y-21924452D01*
X54137571Y-22019690D01*
X54137571Y-22305404D01*
X54089952Y-22400642D01*
X54042333Y-22448261D01*
X53947095Y-22495880D01*
X53804238Y-22495880D01*
X54994714Y-21829214D02*
X54994714Y-22495880D01*
X54566142Y-21829214D02*
X54566142Y-22353023D01*
X54613761Y-22448261D01*
X54709000Y-22495880D01*
X54851857Y-22495880D01*
X54947095Y-22448261D01*
X54994714Y-22400642D01*
X55470904Y-21829214D02*
X55470904Y-22495880D01*
X55470904Y-21924452D02*
X55518523Y-21876833D01*
X55613761Y-21829214D01*
X55756619Y-21829214D01*
X55851857Y-21876833D01*
X55899476Y-21972071D01*
X55899476Y-22495880D01*
X56232809Y-21829214D02*
X56613761Y-21829214D01*
X56375666Y-21495880D02*
X56375666Y-22353023D01*
X56423285Y-22448261D01*
X56518523Y-22495880D01*
X56613761Y-22495880D01*
X56947095Y-22495880D02*
X56947095Y-21829214D01*
X56947095Y-21495880D02*
X56899476Y-21543500D01*
X56947095Y-21591119D01*
X56994714Y-21543500D01*
X56947095Y-21495880D01*
X56947095Y-21591119D01*
X57423285Y-21829214D02*
X57423285Y-22495880D01*
X57423285Y-21924452D02*
X57470904Y-21876833D01*
X57566142Y-21829214D01*
X57709000Y-21829214D01*
X57804238Y-21876833D01*
X57851857Y-21972071D01*
X57851857Y-22495880D01*
X58756619Y-21829214D02*
X58756619Y-22638738D01*
X58709000Y-22733976D01*
X58661380Y-22781595D01*
X58566142Y-22829214D01*
X58423285Y-22829214D01*
X58328047Y-22781595D01*
X58756619Y-22448261D02*
X58661380Y-22495880D01*
X58470904Y-22495880D01*
X58375666Y-22448261D01*
X58328047Y-22400642D01*
X58280428Y-22305404D01*
X58280428Y-22019690D01*
X58328047Y-21924452D01*
X58375666Y-21876833D01*
X58470904Y-21829214D01*
X58661380Y-21829214D01*
X58756619Y-21876833D01*
X58994714Y-22591119D02*
X59756619Y-22591119D01*
X59994714Y-22495880D02*
X59994714Y-21495880D01*
X59994714Y-21972071D02*
X60566142Y-21972071D01*
X60566142Y-22495880D02*
X60566142Y-21495880D01*
X61185190Y-22495880D02*
X61089952Y-22448261D01*
X61042333Y-22400642D01*
X60994714Y-22305404D01*
X60994714Y-22019690D01*
X61042333Y-21924452D01*
X61089952Y-21876833D01*
X61185190Y-21829214D01*
X61328047Y-21829214D01*
X61423285Y-21876833D01*
X61470904Y-21924452D01*
X61518523Y-22019690D01*
X61518523Y-22305404D01*
X61470904Y-22400642D01*
X61423285Y-22448261D01*
X61328047Y-22495880D01*
X61185190Y-22495880D01*
X62089952Y-22495880D02*
X61994714Y-22448261D01*
X61947095Y-22353023D01*
X61947095Y-21495880D01*
X62851857Y-22448261D02*
X62756619Y-22495880D01*
X62566142Y-22495880D01*
X62470904Y-22448261D01*
X62423285Y-22353023D01*
X62423285Y-21972071D01*
X62470904Y-21876833D01*
X62566142Y-21829214D01*
X62756619Y-21829214D01*
X62851857Y-21876833D01*
X62899476Y-21972071D01*
X62899476Y-22067309D01*
X62423285Y-22162547D01*
X63089952Y-22591119D02*
X63851857Y-22591119D01*
X64042333Y-22448261D02*
X64185190Y-22495880D01*
X64423285Y-22495880D01*
X64518523Y-22448261D01*
X64566142Y-22400642D01*
X64613761Y-22305404D01*
X64613761Y-22210166D01*
X64566142Y-22114928D01*
X64518523Y-22067309D01*
X64423285Y-22019690D01*
X64232809Y-21972071D01*
X64137571Y-21924452D01*
X64089952Y-21876833D01*
X64042333Y-21781595D01*
X64042333Y-21686357D01*
X64089952Y-21591119D01*
X64137571Y-21543500D01*
X64232809Y-21495880D01*
X64470904Y-21495880D01*
X64613761Y-21543500D01*
X65185190Y-22495880D02*
X65089952Y-22448261D01*
X65042333Y-22353023D01*
X65042333Y-21495880D01*
X65709000Y-22495880D02*
X65613761Y-22448261D01*
X65566142Y-22400642D01*
X65518523Y-22305404D01*
X65518523Y-22019690D01*
X65566142Y-21924452D01*
X65613761Y-21876833D01*
X65709000Y-21829214D01*
X65851857Y-21829214D01*
X65947095Y-21876833D01*
X65994714Y-21924452D01*
X66042333Y-22019690D01*
X66042333Y-22305404D01*
X65994714Y-22400642D01*
X65947095Y-22448261D01*
X65851857Y-22495880D01*
X65709000Y-22495880D01*
X66328047Y-21829214D02*
X66709000Y-21829214D01*
X66470904Y-21495880D02*
X66470904Y-22353023D01*
X66518523Y-22448261D01*
X66613761Y-22495880D01*
X66709000Y-22495880D01*
X66899476Y-21829214D02*
X67280428Y-21829214D01*
X67042333Y-21495880D02*
X67042333Y-22353023D01*
X67089952Y-22448261D01*
X67185190Y-22495880D01*
X67280428Y-22495880D01*
X67994714Y-22448261D02*
X67899476Y-22495880D01*
X67709000Y-22495880D01*
X67613761Y-22448261D01*
X67566142Y-22353023D01*
X67566142Y-21972071D01*
X67613761Y-21876833D01*
X67709000Y-21829214D01*
X67899476Y-21829214D01*
X67994714Y-21876833D01*
X68042333Y-21972071D01*
X68042333Y-22067309D01*
X67566142Y-22162547D01*
X68899476Y-22495880D02*
X68899476Y-21495880D01*
X68899476Y-22448261D02*
X68804238Y-22495880D01*
X68613761Y-22495880D01*
X68518523Y-22448261D01*
X68470904Y-22400642D01*
X68423285Y-22305404D01*
X68423285Y-22019690D01*
X68470904Y-21924452D01*
X68518523Y-21876833D01*
X68613761Y-21829214D01*
X68804238Y-21829214D01*
X68899476Y-21876833D01*
X59770904Y-18295880D02*
X59770904Y-17295880D01*
X59770904Y-17772071D02*
X60342333Y-17772071D01*
X60342333Y-18295880D02*
X60342333Y-17295880D01*
X61342333Y-18295880D02*
X60770904Y-18295880D01*
X61056619Y-18295880D02*
X61056619Y-17295880D01*
X60961380Y-17438738D01*
X60866142Y-17533976D01*
X60770904Y-17581595D01*
X61961380Y-17295880D02*
X62056619Y-17295880D01*
X62151857Y-17343500D01*
X62199476Y-17391119D01*
X62247095Y-17486357D01*
X62294714Y-17676833D01*
X62294714Y-17914928D01*
X62247095Y-18105404D01*
X62199476Y-18200642D01*
X62151857Y-18248261D01*
X62056619Y-18295880D01*
X61961380Y-18295880D01*
X61866142Y-18248261D01*
X61818523Y-18200642D01*
X61770904Y-18105404D01*
X61723285Y-17914928D01*
X61723285Y-17676833D01*
X61770904Y-17486357D01*
X61818523Y-17391119D01*
X61866142Y-17343500D01*
X61961380Y-17295880D01*
%TO.C,H19*%
X11497523Y-22495880D02*
X11497523Y-21495880D01*
X11830857Y-22210166D01*
X12164190Y-21495880D01*
X12164190Y-22495880D01*
X12783238Y-22495880D02*
X12688000Y-22448261D01*
X12640380Y-22400642D01*
X12592761Y-22305404D01*
X12592761Y-22019690D01*
X12640380Y-21924452D01*
X12688000Y-21876833D01*
X12783238Y-21829214D01*
X12926095Y-21829214D01*
X13021333Y-21876833D01*
X13068952Y-21924452D01*
X13116571Y-22019690D01*
X13116571Y-22305404D01*
X13068952Y-22400642D01*
X13021333Y-22448261D01*
X12926095Y-22495880D01*
X12783238Y-22495880D01*
X13973714Y-21829214D02*
X13973714Y-22495880D01*
X13545142Y-21829214D02*
X13545142Y-22353023D01*
X13592761Y-22448261D01*
X13688000Y-22495880D01*
X13830857Y-22495880D01*
X13926095Y-22448261D01*
X13973714Y-22400642D01*
X14449904Y-21829214D02*
X14449904Y-22495880D01*
X14449904Y-21924452D02*
X14497523Y-21876833D01*
X14592761Y-21829214D01*
X14735619Y-21829214D01*
X14830857Y-21876833D01*
X14878476Y-21972071D01*
X14878476Y-22495880D01*
X15211809Y-21829214D02*
X15592761Y-21829214D01*
X15354666Y-21495880D02*
X15354666Y-22353023D01*
X15402285Y-22448261D01*
X15497523Y-22495880D01*
X15592761Y-22495880D01*
X15926095Y-22495880D02*
X15926095Y-21829214D01*
X15926095Y-21495880D02*
X15878476Y-21543500D01*
X15926095Y-21591119D01*
X15973714Y-21543500D01*
X15926095Y-21495880D01*
X15926095Y-21591119D01*
X16402285Y-21829214D02*
X16402285Y-22495880D01*
X16402285Y-21924452D02*
X16449904Y-21876833D01*
X16545142Y-21829214D01*
X16688000Y-21829214D01*
X16783238Y-21876833D01*
X16830857Y-21972071D01*
X16830857Y-22495880D01*
X17735619Y-21829214D02*
X17735619Y-22638738D01*
X17688000Y-22733976D01*
X17640380Y-22781595D01*
X17545142Y-22829214D01*
X17402285Y-22829214D01*
X17307047Y-22781595D01*
X17735619Y-22448261D02*
X17640380Y-22495880D01*
X17449904Y-22495880D01*
X17354666Y-22448261D01*
X17307047Y-22400642D01*
X17259428Y-22305404D01*
X17259428Y-22019690D01*
X17307047Y-21924452D01*
X17354666Y-21876833D01*
X17449904Y-21829214D01*
X17640380Y-21829214D01*
X17735619Y-21876833D01*
X17973714Y-22591119D02*
X18735619Y-22591119D01*
X18973714Y-22495880D02*
X18973714Y-21495880D01*
X18973714Y-21972071D02*
X19545142Y-21972071D01*
X19545142Y-22495880D02*
X19545142Y-21495880D01*
X20164190Y-22495880D02*
X20068952Y-22448261D01*
X20021333Y-22400642D01*
X19973714Y-22305404D01*
X19973714Y-22019690D01*
X20021333Y-21924452D01*
X20068952Y-21876833D01*
X20164190Y-21829214D01*
X20307047Y-21829214D01*
X20402285Y-21876833D01*
X20449904Y-21924452D01*
X20497523Y-22019690D01*
X20497523Y-22305404D01*
X20449904Y-22400642D01*
X20402285Y-22448261D01*
X20307047Y-22495880D01*
X20164190Y-22495880D01*
X21068952Y-22495880D02*
X20973714Y-22448261D01*
X20926095Y-22353023D01*
X20926095Y-21495880D01*
X21830857Y-22448261D02*
X21735619Y-22495880D01*
X21545142Y-22495880D01*
X21449904Y-22448261D01*
X21402285Y-22353023D01*
X21402285Y-21972071D01*
X21449904Y-21876833D01*
X21545142Y-21829214D01*
X21735619Y-21829214D01*
X21830857Y-21876833D01*
X21878476Y-21972071D01*
X21878476Y-22067309D01*
X21402285Y-22162547D01*
X22068952Y-22591119D02*
X22830857Y-22591119D01*
X23021333Y-22448261D02*
X23164190Y-22495880D01*
X23402285Y-22495880D01*
X23497523Y-22448261D01*
X23545142Y-22400642D01*
X23592761Y-22305404D01*
X23592761Y-22210166D01*
X23545142Y-22114928D01*
X23497523Y-22067309D01*
X23402285Y-22019690D01*
X23211809Y-21972071D01*
X23116571Y-21924452D01*
X23068952Y-21876833D01*
X23021333Y-21781595D01*
X23021333Y-21686357D01*
X23068952Y-21591119D01*
X23116571Y-21543500D01*
X23211809Y-21495880D01*
X23449904Y-21495880D01*
X23592761Y-21543500D01*
X24164190Y-22495880D02*
X24068952Y-22448261D01*
X24021333Y-22353023D01*
X24021333Y-21495880D01*
X24688000Y-22495880D02*
X24592761Y-22448261D01*
X24545142Y-22400642D01*
X24497523Y-22305404D01*
X24497523Y-22019690D01*
X24545142Y-21924452D01*
X24592761Y-21876833D01*
X24688000Y-21829214D01*
X24830857Y-21829214D01*
X24926095Y-21876833D01*
X24973714Y-21924452D01*
X25021333Y-22019690D01*
X25021333Y-22305404D01*
X24973714Y-22400642D01*
X24926095Y-22448261D01*
X24830857Y-22495880D01*
X24688000Y-22495880D01*
X25307047Y-21829214D02*
X25688000Y-21829214D01*
X25449904Y-21495880D02*
X25449904Y-22353023D01*
X25497523Y-22448261D01*
X25592761Y-22495880D01*
X25688000Y-22495880D01*
X25878476Y-21829214D02*
X26259428Y-21829214D01*
X26021333Y-21495880D02*
X26021333Y-22353023D01*
X26068952Y-22448261D01*
X26164190Y-22495880D01*
X26259428Y-22495880D01*
X26973714Y-22448261D02*
X26878476Y-22495880D01*
X26688000Y-22495880D01*
X26592761Y-22448261D01*
X26545142Y-22353023D01*
X26545142Y-21972071D01*
X26592761Y-21876833D01*
X26688000Y-21829214D01*
X26878476Y-21829214D01*
X26973714Y-21876833D01*
X27021333Y-21972071D01*
X27021333Y-22067309D01*
X26545142Y-22162547D01*
X27878476Y-22495880D02*
X27878476Y-21495880D01*
X27878476Y-22448261D02*
X27783238Y-22495880D01*
X27592761Y-22495880D01*
X27497523Y-22448261D01*
X27449904Y-22400642D01*
X27402285Y-22305404D01*
X27402285Y-22019690D01*
X27449904Y-21924452D01*
X27497523Y-21876833D01*
X27592761Y-21829214D01*
X27783238Y-21829214D01*
X27878476Y-21876833D01*
X18749904Y-18295880D02*
X18749904Y-17295880D01*
X18749904Y-17772071D02*
X19321333Y-17772071D01*
X19321333Y-18295880D02*
X19321333Y-17295880D01*
X20321333Y-18295880D02*
X19749904Y-18295880D01*
X20035619Y-18295880D02*
X20035619Y-17295880D01*
X19940380Y-17438738D01*
X19845142Y-17533976D01*
X19749904Y-17581595D01*
X20797523Y-18295880D02*
X20988000Y-18295880D01*
X21083238Y-18248261D01*
X21130857Y-18200642D01*
X21226095Y-18057785D01*
X21273714Y-17867309D01*
X21273714Y-17486357D01*
X21226095Y-17391119D01*
X21178476Y-17343500D01*
X21083238Y-17295880D01*
X20892761Y-17295880D01*
X20797523Y-17343500D01*
X20749904Y-17391119D01*
X20702285Y-17486357D01*
X20702285Y-17724452D01*
X20749904Y-17819690D01*
X20797523Y-17867309D01*
X20892761Y-17914928D01*
X21083238Y-17914928D01*
X21178476Y-17867309D01*
X21226095Y-17819690D01*
X21273714Y-17724452D01*
%TO.C,H20*%
X37639952Y-65316880D02*
X37163761Y-65316880D01*
X37163761Y-64316880D01*
X38354238Y-65269261D02*
X38259000Y-65316880D01*
X38068523Y-65316880D01*
X37973285Y-65269261D01*
X37925666Y-65174023D01*
X37925666Y-64793071D01*
X37973285Y-64697833D01*
X38068523Y-64650214D01*
X38259000Y-64650214D01*
X38354238Y-64697833D01*
X38401857Y-64793071D01*
X38401857Y-64888309D01*
X37925666Y-64983547D01*
X39259000Y-65316880D02*
X39259000Y-64316880D01*
X39259000Y-65269261D02*
X39163761Y-65316880D01*
X38973285Y-65316880D01*
X38878047Y-65269261D01*
X38830428Y-65221642D01*
X38782809Y-65126404D01*
X38782809Y-64840690D01*
X38830428Y-64745452D01*
X38878047Y-64697833D01*
X38973285Y-64650214D01*
X39163761Y-64650214D01*
X39259000Y-64697833D01*
X39497095Y-65412119D02*
X40259000Y-65412119D01*
X40497095Y-65316880D02*
X40497095Y-64316880D01*
X40497095Y-64793071D02*
X41068523Y-64793071D01*
X41068523Y-65316880D02*
X41068523Y-64316880D01*
X41687571Y-65316880D02*
X41592333Y-65269261D01*
X41544714Y-65221642D01*
X41497095Y-65126404D01*
X41497095Y-64840690D01*
X41544714Y-64745452D01*
X41592333Y-64697833D01*
X41687571Y-64650214D01*
X41830428Y-64650214D01*
X41925666Y-64697833D01*
X41973285Y-64745452D01*
X42020904Y-64840690D01*
X42020904Y-65126404D01*
X41973285Y-65221642D01*
X41925666Y-65269261D01*
X41830428Y-65316880D01*
X41687571Y-65316880D01*
X42592333Y-65316880D02*
X42497095Y-65269261D01*
X42449476Y-65174023D01*
X42449476Y-64316880D01*
X43354238Y-65269261D02*
X43259000Y-65316880D01*
X43068523Y-65316880D01*
X42973285Y-65269261D01*
X42925666Y-65174023D01*
X42925666Y-64793071D01*
X42973285Y-64697833D01*
X43068523Y-64650214D01*
X43259000Y-64650214D01*
X43354238Y-64697833D01*
X43401857Y-64793071D01*
X43401857Y-64888309D01*
X42925666Y-64983547D01*
X39320904Y-59316880D02*
X39320904Y-58316880D01*
X39320904Y-58793071D02*
X39892333Y-58793071D01*
X39892333Y-59316880D02*
X39892333Y-58316880D01*
X40320904Y-58412119D02*
X40368523Y-58364500D01*
X40463761Y-58316880D01*
X40701857Y-58316880D01*
X40797095Y-58364500D01*
X40844714Y-58412119D01*
X40892333Y-58507357D01*
X40892333Y-58602595D01*
X40844714Y-58745452D01*
X40273285Y-59316880D01*
X40892333Y-59316880D01*
X41511380Y-58316880D02*
X41606619Y-58316880D01*
X41701857Y-58364500D01*
X41749476Y-58412119D01*
X41797095Y-58507357D01*
X41844714Y-58697833D01*
X41844714Y-58935928D01*
X41797095Y-59126404D01*
X41749476Y-59221642D01*
X41701857Y-59269261D01*
X41606619Y-59316880D01*
X41511380Y-59316880D01*
X41416142Y-59269261D01*
X41368523Y-59221642D01*
X41320904Y-59126404D01*
X41273285Y-58935928D01*
X41273285Y-58697833D01*
X41320904Y-58507357D01*
X41368523Y-58412119D01*
X41416142Y-58364500D01*
X41511380Y-58316880D01*
%TO.C,H21*%
X37576452Y-110274880D02*
X37100261Y-110274880D01*
X37100261Y-109274880D01*
X38290738Y-110227261D02*
X38195500Y-110274880D01*
X38005023Y-110274880D01*
X37909785Y-110227261D01*
X37862166Y-110132023D01*
X37862166Y-109751071D01*
X37909785Y-109655833D01*
X38005023Y-109608214D01*
X38195500Y-109608214D01*
X38290738Y-109655833D01*
X38338357Y-109751071D01*
X38338357Y-109846309D01*
X37862166Y-109941547D01*
X39195500Y-110274880D02*
X39195500Y-109274880D01*
X39195500Y-110227261D02*
X39100261Y-110274880D01*
X38909785Y-110274880D01*
X38814547Y-110227261D01*
X38766928Y-110179642D01*
X38719309Y-110084404D01*
X38719309Y-109798690D01*
X38766928Y-109703452D01*
X38814547Y-109655833D01*
X38909785Y-109608214D01*
X39100261Y-109608214D01*
X39195500Y-109655833D01*
X39433595Y-110370119D02*
X40195500Y-110370119D01*
X40433595Y-110274880D02*
X40433595Y-109274880D01*
X40433595Y-109751071D02*
X41005023Y-109751071D01*
X41005023Y-110274880D02*
X41005023Y-109274880D01*
X41624071Y-110274880D02*
X41528833Y-110227261D01*
X41481214Y-110179642D01*
X41433595Y-110084404D01*
X41433595Y-109798690D01*
X41481214Y-109703452D01*
X41528833Y-109655833D01*
X41624071Y-109608214D01*
X41766928Y-109608214D01*
X41862166Y-109655833D01*
X41909785Y-109703452D01*
X41957404Y-109798690D01*
X41957404Y-110084404D01*
X41909785Y-110179642D01*
X41862166Y-110227261D01*
X41766928Y-110274880D01*
X41624071Y-110274880D01*
X42528833Y-110274880D02*
X42433595Y-110227261D01*
X42385976Y-110132023D01*
X42385976Y-109274880D01*
X43290738Y-110227261D02*
X43195500Y-110274880D01*
X43005023Y-110274880D01*
X42909785Y-110227261D01*
X42862166Y-110132023D01*
X42862166Y-109751071D01*
X42909785Y-109655833D01*
X43005023Y-109608214D01*
X43195500Y-109608214D01*
X43290738Y-109655833D01*
X43338357Y-109751071D01*
X43338357Y-109846309D01*
X42862166Y-109941547D01*
X39257404Y-104274880D02*
X39257404Y-103274880D01*
X39257404Y-103751071D02*
X39828833Y-103751071D01*
X39828833Y-104274880D02*
X39828833Y-103274880D01*
X40257404Y-103370119D02*
X40305023Y-103322500D01*
X40400261Y-103274880D01*
X40638357Y-103274880D01*
X40733595Y-103322500D01*
X40781214Y-103370119D01*
X40828833Y-103465357D01*
X40828833Y-103560595D01*
X40781214Y-103703452D01*
X40209785Y-104274880D01*
X40828833Y-104274880D01*
X41781214Y-104274880D02*
X41209785Y-104274880D01*
X41495500Y-104274880D02*
X41495500Y-103274880D01*
X41400261Y-103417738D01*
X41305023Y-103512976D01*
X41209785Y-103560595D01*
%TO.C,H22*%
X37576452Y-132245880D02*
X37100261Y-132245880D01*
X37100261Y-131245880D01*
X38290738Y-132198261D02*
X38195500Y-132245880D01*
X38005023Y-132245880D01*
X37909785Y-132198261D01*
X37862166Y-132103023D01*
X37862166Y-131722071D01*
X37909785Y-131626833D01*
X38005023Y-131579214D01*
X38195500Y-131579214D01*
X38290738Y-131626833D01*
X38338357Y-131722071D01*
X38338357Y-131817309D01*
X37862166Y-131912547D01*
X39195500Y-132245880D02*
X39195500Y-131245880D01*
X39195500Y-132198261D02*
X39100261Y-132245880D01*
X38909785Y-132245880D01*
X38814547Y-132198261D01*
X38766928Y-132150642D01*
X38719309Y-132055404D01*
X38719309Y-131769690D01*
X38766928Y-131674452D01*
X38814547Y-131626833D01*
X38909785Y-131579214D01*
X39100261Y-131579214D01*
X39195500Y-131626833D01*
X39433595Y-132341119D02*
X40195500Y-132341119D01*
X40433595Y-132245880D02*
X40433595Y-131245880D01*
X40433595Y-131722071D02*
X41005023Y-131722071D01*
X41005023Y-132245880D02*
X41005023Y-131245880D01*
X41624071Y-132245880D02*
X41528833Y-132198261D01*
X41481214Y-132150642D01*
X41433595Y-132055404D01*
X41433595Y-131769690D01*
X41481214Y-131674452D01*
X41528833Y-131626833D01*
X41624071Y-131579214D01*
X41766928Y-131579214D01*
X41862166Y-131626833D01*
X41909785Y-131674452D01*
X41957404Y-131769690D01*
X41957404Y-132055404D01*
X41909785Y-132150642D01*
X41862166Y-132198261D01*
X41766928Y-132245880D01*
X41624071Y-132245880D01*
X42528833Y-132245880D02*
X42433595Y-132198261D01*
X42385976Y-132103023D01*
X42385976Y-131245880D01*
X43290738Y-132198261D02*
X43195500Y-132245880D01*
X43005023Y-132245880D01*
X42909785Y-132198261D01*
X42862166Y-132103023D01*
X42862166Y-131722071D01*
X42909785Y-131626833D01*
X43005023Y-131579214D01*
X43195500Y-131579214D01*
X43290738Y-131626833D01*
X43338357Y-131722071D01*
X43338357Y-131817309D01*
X42862166Y-131912547D01*
X39257404Y-126245880D02*
X39257404Y-125245880D01*
X39257404Y-125722071D02*
X39828833Y-125722071D01*
X39828833Y-126245880D02*
X39828833Y-125245880D01*
X40257404Y-125341119D02*
X40305023Y-125293500D01*
X40400261Y-125245880D01*
X40638357Y-125245880D01*
X40733595Y-125293500D01*
X40781214Y-125341119D01*
X40828833Y-125436357D01*
X40828833Y-125531595D01*
X40781214Y-125674452D01*
X40209785Y-126245880D01*
X40828833Y-126245880D01*
X41209785Y-125341119D02*
X41257404Y-125293500D01*
X41352642Y-125245880D01*
X41590738Y-125245880D01*
X41685976Y-125293500D01*
X41733595Y-125341119D01*
X41781214Y-125436357D01*
X41781214Y-125531595D01*
X41733595Y-125674452D01*
X41162166Y-126245880D01*
X41781214Y-126245880D01*
%TO.C,H25*%
X37512952Y-43282380D02*
X37036761Y-43282380D01*
X37036761Y-42282380D01*
X38227238Y-43234761D02*
X38132000Y-43282380D01*
X37941523Y-43282380D01*
X37846285Y-43234761D01*
X37798666Y-43139523D01*
X37798666Y-42758571D01*
X37846285Y-42663333D01*
X37941523Y-42615714D01*
X38132000Y-42615714D01*
X38227238Y-42663333D01*
X38274857Y-42758571D01*
X38274857Y-42853809D01*
X37798666Y-42949047D01*
X39132000Y-43282380D02*
X39132000Y-42282380D01*
X39132000Y-43234761D02*
X39036761Y-43282380D01*
X38846285Y-43282380D01*
X38751047Y-43234761D01*
X38703428Y-43187142D01*
X38655809Y-43091904D01*
X38655809Y-42806190D01*
X38703428Y-42710952D01*
X38751047Y-42663333D01*
X38846285Y-42615714D01*
X39036761Y-42615714D01*
X39132000Y-42663333D01*
X39370095Y-43377619D02*
X40132000Y-43377619D01*
X40370095Y-43282380D02*
X40370095Y-42282380D01*
X40370095Y-42758571D02*
X40941523Y-42758571D01*
X40941523Y-43282380D02*
X40941523Y-42282380D01*
X41560571Y-43282380D02*
X41465333Y-43234761D01*
X41417714Y-43187142D01*
X41370095Y-43091904D01*
X41370095Y-42806190D01*
X41417714Y-42710952D01*
X41465333Y-42663333D01*
X41560571Y-42615714D01*
X41703428Y-42615714D01*
X41798666Y-42663333D01*
X41846285Y-42710952D01*
X41893904Y-42806190D01*
X41893904Y-43091904D01*
X41846285Y-43187142D01*
X41798666Y-43234761D01*
X41703428Y-43282380D01*
X41560571Y-43282380D01*
X42465333Y-43282380D02*
X42370095Y-43234761D01*
X42322476Y-43139523D01*
X42322476Y-42282380D01*
X43227238Y-43234761D02*
X43132000Y-43282380D01*
X42941523Y-43282380D01*
X42846285Y-43234761D01*
X42798666Y-43139523D01*
X42798666Y-42758571D01*
X42846285Y-42663333D01*
X42941523Y-42615714D01*
X43132000Y-42615714D01*
X43227238Y-42663333D01*
X43274857Y-42758571D01*
X43274857Y-42853809D01*
X42798666Y-42949047D01*
X39193904Y-37282380D02*
X39193904Y-36282380D01*
X39193904Y-36758571D02*
X39765333Y-36758571D01*
X39765333Y-37282380D02*
X39765333Y-36282380D01*
X40193904Y-36377619D02*
X40241523Y-36330000D01*
X40336761Y-36282380D01*
X40574857Y-36282380D01*
X40670095Y-36330000D01*
X40717714Y-36377619D01*
X40765333Y-36472857D01*
X40765333Y-36568095D01*
X40717714Y-36710952D01*
X40146285Y-37282380D01*
X40765333Y-37282380D01*
X41670095Y-36282380D02*
X41193904Y-36282380D01*
X41146285Y-36758571D01*
X41193904Y-36710952D01*
X41289142Y-36663333D01*
X41527238Y-36663333D01*
X41622476Y-36710952D01*
X41670095Y-36758571D01*
X41717714Y-36853809D01*
X41717714Y-37091904D01*
X41670095Y-37187142D01*
X41622476Y-37234761D01*
X41527238Y-37282380D01*
X41289142Y-37282380D01*
X41193904Y-37234761D01*
X41146285Y-37187142D01*
%TO.C,H28*%
X52515523Y-216488380D02*
X52515523Y-215488380D01*
X52848857Y-216202666D01*
X53182190Y-215488380D01*
X53182190Y-216488380D01*
X53801238Y-216488380D02*
X53706000Y-216440761D01*
X53658380Y-216393142D01*
X53610761Y-216297904D01*
X53610761Y-216012190D01*
X53658380Y-215916952D01*
X53706000Y-215869333D01*
X53801238Y-215821714D01*
X53944095Y-215821714D01*
X54039333Y-215869333D01*
X54086952Y-215916952D01*
X54134571Y-216012190D01*
X54134571Y-216297904D01*
X54086952Y-216393142D01*
X54039333Y-216440761D01*
X53944095Y-216488380D01*
X53801238Y-216488380D01*
X54991714Y-215821714D02*
X54991714Y-216488380D01*
X54563142Y-215821714D02*
X54563142Y-216345523D01*
X54610761Y-216440761D01*
X54706000Y-216488380D01*
X54848857Y-216488380D01*
X54944095Y-216440761D01*
X54991714Y-216393142D01*
X55467904Y-215821714D02*
X55467904Y-216488380D01*
X55467904Y-215916952D02*
X55515523Y-215869333D01*
X55610761Y-215821714D01*
X55753619Y-215821714D01*
X55848857Y-215869333D01*
X55896476Y-215964571D01*
X55896476Y-216488380D01*
X56229809Y-215821714D02*
X56610761Y-215821714D01*
X56372666Y-215488380D02*
X56372666Y-216345523D01*
X56420285Y-216440761D01*
X56515523Y-216488380D01*
X56610761Y-216488380D01*
X56944095Y-216488380D02*
X56944095Y-215821714D01*
X56944095Y-215488380D02*
X56896476Y-215536000D01*
X56944095Y-215583619D01*
X56991714Y-215536000D01*
X56944095Y-215488380D01*
X56944095Y-215583619D01*
X57420285Y-215821714D02*
X57420285Y-216488380D01*
X57420285Y-215916952D02*
X57467904Y-215869333D01*
X57563142Y-215821714D01*
X57706000Y-215821714D01*
X57801238Y-215869333D01*
X57848857Y-215964571D01*
X57848857Y-216488380D01*
X58753619Y-215821714D02*
X58753619Y-216631238D01*
X58706000Y-216726476D01*
X58658380Y-216774095D01*
X58563142Y-216821714D01*
X58420285Y-216821714D01*
X58325047Y-216774095D01*
X58753619Y-216440761D02*
X58658380Y-216488380D01*
X58467904Y-216488380D01*
X58372666Y-216440761D01*
X58325047Y-216393142D01*
X58277428Y-216297904D01*
X58277428Y-216012190D01*
X58325047Y-215916952D01*
X58372666Y-215869333D01*
X58467904Y-215821714D01*
X58658380Y-215821714D01*
X58753619Y-215869333D01*
X58991714Y-216583619D02*
X59753619Y-216583619D01*
X59991714Y-216488380D02*
X59991714Y-215488380D01*
X59991714Y-215964571D02*
X60563142Y-215964571D01*
X60563142Y-216488380D02*
X60563142Y-215488380D01*
X61182190Y-216488380D02*
X61086952Y-216440761D01*
X61039333Y-216393142D01*
X60991714Y-216297904D01*
X60991714Y-216012190D01*
X61039333Y-215916952D01*
X61086952Y-215869333D01*
X61182190Y-215821714D01*
X61325047Y-215821714D01*
X61420285Y-215869333D01*
X61467904Y-215916952D01*
X61515523Y-216012190D01*
X61515523Y-216297904D01*
X61467904Y-216393142D01*
X61420285Y-216440761D01*
X61325047Y-216488380D01*
X61182190Y-216488380D01*
X62086952Y-216488380D02*
X61991714Y-216440761D01*
X61944095Y-216345523D01*
X61944095Y-215488380D01*
X62848857Y-216440761D02*
X62753619Y-216488380D01*
X62563142Y-216488380D01*
X62467904Y-216440761D01*
X62420285Y-216345523D01*
X62420285Y-215964571D01*
X62467904Y-215869333D01*
X62563142Y-215821714D01*
X62753619Y-215821714D01*
X62848857Y-215869333D01*
X62896476Y-215964571D01*
X62896476Y-216059809D01*
X62420285Y-216155047D01*
X63086952Y-216583619D02*
X63848857Y-216583619D01*
X64039333Y-216440761D02*
X64182190Y-216488380D01*
X64420285Y-216488380D01*
X64515523Y-216440761D01*
X64563142Y-216393142D01*
X64610761Y-216297904D01*
X64610761Y-216202666D01*
X64563142Y-216107428D01*
X64515523Y-216059809D01*
X64420285Y-216012190D01*
X64229809Y-215964571D01*
X64134571Y-215916952D01*
X64086952Y-215869333D01*
X64039333Y-215774095D01*
X64039333Y-215678857D01*
X64086952Y-215583619D01*
X64134571Y-215536000D01*
X64229809Y-215488380D01*
X64467904Y-215488380D01*
X64610761Y-215536000D01*
X65182190Y-216488380D02*
X65086952Y-216440761D01*
X65039333Y-216345523D01*
X65039333Y-215488380D01*
X65706000Y-216488380D02*
X65610761Y-216440761D01*
X65563142Y-216393142D01*
X65515523Y-216297904D01*
X65515523Y-216012190D01*
X65563142Y-215916952D01*
X65610761Y-215869333D01*
X65706000Y-215821714D01*
X65848857Y-215821714D01*
X65944095Y-215869333D01*
X65991714Y-215916952D01*
X66039333Y-216012190D01*
X66039333Y-216297904D01*
X65991714Y-216393142D01*
X65944095Y-216440761D01*
X65848857Y-216488380D01*
X65706000Y-216488380D01*
X66325047Y-215821714D02*
X66706000Y-215821714D01*
X66467904Y-215488380D02*
X66467904Y-216345523D01*
X66515523Y-216440761D01*
X66610761Y-216488380D01*
X66706000Y-216488380D01*
X66896476Y-215821714D02*
X67277428Y-215821714D01*
X67039333Y-215488380D02*
X67039333Y-216345523D01*
X67086952Y-216440761D01*
X67182190Y-216488380D01*
X67277428Y-216488380D01*
X67991714Y-216440761D02*
X67896476Y-216488380D01*
X67706000Y-216488380D01*
X67610761Y-216440761D01*
X67563142Y-216345523D01*
X67563142Y-215964571D01*
X67610761Y-215869333D01*
X67706000Y-215821714D01*
X67896476Y-215821714D01*
X67991714Y-215869333D01*
X68039333Y-215964571D01*
X68039333Y-216059809D01*
X67563142Y-216155047D01*
X68896476Y-216488380D02*
X68896476Y-215488380D01*
X68896476Y-216440761D02*
X68801238Y-216488380D01*
X68610761Y-216488380D01*
X68515523Y-216440761D01*
X68467904Y-216393142D01*
X68420285Y-216297904D01*
X68420285Y-216012190D01*
X68467904Y-215916952D01*
X68515523Y-215869333D01*
X68610761Y-215821714D01*
X68801238Y-215821714D01*
X68896476Y-215869333D01*
X59767904Y-212288380D02*
X59767904Y-211288380D01*
X59767904Y-211764571D02*
X60339333Y-211764571D01*
X60339333Y-212288380D02*
X60339333Y-211288380D01*
X60767904Y-211383619D02*
X60815523Y-211336000D01*
X60910761Y-211288380D01*
X61148857Y-211288380D01*
X61244095Y-211336000D01*
X61291714Y-211383619D01*
X61339333Y-211478857D01*
X61339333Y-211574095D01*
X61291714Y-211716952D01*
X60720285Y-212288380D01*
X61339333Y-212288380D01*
X61910761Y-211716952D02*
X61815523Y-211669333D01*
X61767904Y-211621714D01*
X61720285Y-211526476D01*
X61720285Y-211478857D01*
X61767904Y-211383619D01*
X61815523Y-211336000D01*
X61910761Y-211288380D01*
X62101238Y-211288380D01*
X62196476Y-211336000D01*
X62244095Y-211383619D01*
X62291714Y-211478857D01*
X62291714Y-211526476D01*
X62244095Y-211621714D01*
X62196476Y-211669333D01*
X62101238Y-211716952D01*
X61910761Y-211716952D01*
X61815523Y-211764571D01*
X61767904Y-211812190D01*
X61720285Y-211907428D01*
X61720285Y-212097904D01*
X61767904Y-212193142D01*
X61815523Y-212240761D01*
X61910761Y-212288380D01*
X62101238Y-212288380D01*
X62196476Y-212240761D01*
X62244095Y-212193142D01*
X62291714Y-212097904D01*
X62291714Y-211907428D01*
X62244095Y-211812190D01*
X62196476Y-211764571D01*
X62101238Y-211716952D01*
%TO.C,H2*%
X24559023Y-47345880D02*
X24559023Y-48060166D01*
X24511404Y-48203023D01*
X24416166Y-48298261D01*
X24273309Y-48345880D01*
X24178071Y-48345880D01*
X25463785Y-48345880D02*
X25463785Y-47822071D01*
X25416166Y-47726833D01*
X25320928Y-47679214D01*
X25130452Y-47679214D01*
X25035214Y-47726833D01*
X25463785Y-48298261D02*
X25368547Y-48345880D01*
X25130452Y-48345880D01*
X25035214Y-48298261D01*
X24987595Y-48203023D01*
X24987595Y-48107785D01*
X25035214Y-48012547D01*
X25130452Y-47964928D01*
X25368547Y-47964928D01*
X25463785Y-47917309D01*
X26368547Y-48298261D02*
X26273309Y-48345880D01*
X26082833Y-48345880D01*
X25987595Y-48298261D01*
X25939976Y-48250642D01*
X25892357Y-48155404D01*
X25892357Y-47869690D01*
X25939976Y-47774452D01*
X25987595Y-47726833D01*
X26082833Y-47679214D01*
X26273309Y-47679214D01*
X26368547Y-47726833D01*
X26797119Y-48345880D02*
X26797119Y-47345880D01*
X26892357Y-47964928D02*
X27178071Y-48345880D01*
X27178071Y-47679214D02*
X26797119Y-48060166D01*
X27368547Y-48441119D02*
X28130452Y-48441119D01*
X28368547Y-48345880D02*
X28368547Y-47345880D01*
X28368547Y-47822071D02*
X28939976Y-47822071D01*
X28939976Y-48345880D02*
X28939976Y-47345880D01*
X29559023Y-48345880D02*
X29463785Y-48298261D01*
X29416166Y-48250642D01*
X29368547Y-48155404D01*
X29368547Y-47869690D01*
X29416166Y-47774452D01*
X29463785Y-47726833D01*
X29559023Y-47679214D01*
X29701880Y-47679214D01*
X29797119Y-47726833D01*
X29844738Y-47774452D01*
X29892357Y-47869690D01*
X29892357Y-48155404D01*
X29844738Y-48250642D01*
X29797119Y-48298261D01*
X29701880Y-48345880D01*
X29559023Y-48345880D01*
X30463785Y-48345880D02*
X30368547Y-48298261D01*
X30320928Y-48203023D01*
X30320928Y-47345880D01*
X31225690Y-48298261D02*
X31130452Y-48345880D01*
X30939976Y-48345880D01*
X30844738Y-48298261D01*
X30797119Y-48203023D01*
X30797119Y-47822071D01*
X30844738Y-47726833D01*
X30939976Y-47679214D01*
X31130452Y-47679214D01*
X31225690Y-47726833D01*
X31273309Y-47822071D01*
X31273309Y-47917309D01*
X30797119Y-48012547D01*
X27287595Y-37345880D02*
X27287595Y-36345880D01*
X27287595Y-36822071D02*
X27859023Y-36822071D01*
X27859023Y-37345880D02*
X27859023Y-36345880D01*
X28287595Y-36441119D02*
X28335214Y-36393500D01*
X28430452Y-36345880D01*
X28668547Y-36345880D01*
X28763785Y-36393500D01*
X28811404Y-36441119D01*
X28859023Y-36536357D01*
X28859023Y-36631595D01*
X28811404Y-36774452D01*
X28239976Y-37345880D01*
X28859023Y-37345880D01*
%TO.C,H3*%
X24495523Y-136309380D02*
X24495523Y-137023666D01*
X24447904Y-137166523D01*
X24352666Y-137261761D01*
X24209809Y-137309380D01*
X24114571Y-137309380D01*
X25400285Y-137309380D02*
X25400285Y-136785571D01*
X25352666Y-136690333D01*
X25257428Y-136642714D01*
X25066952Y-136642714D01*
X24971714Y-136690333D01*
X25400285Y-137261761D02*
X25305047Y-137309380D01*
X25066952Y-137309380D01*
X24971714Y-137261761D01*
X24924095Y-137166523D01*
X24924095Y-137071285D01*
X24971714Y-136976047D01*
X25066952Y-136928428D01*
X25305047Y-136928428D01*
X25400285Y-136880809D01*
X26305047Y-137261761D02*
X26209809Y-137309380D01*
X26019333Y-137309380D01*
X25924095Y-137261761D01*
X25876476Y-137214142D01*
X25828857Y-137118904D01*
X25828857Y-136833190D01*
X25876476Y-136737952D01*
X25924095Y-136690333D01*
X26019333Y-136642714D01*
X26209809Y-136642714D01*
X26305047Y-136690333D01*
X26733619Y-137309380D02*
X26733619Y-136309380D01*
X26828857Y-136928428D02*
X27114571Y-137309380D01*
X27114571Y-136642714D02*
X26733619Y-137023666D01*
X27305047Y-137404619D02*
X28066952Y-137404619D01*
X28305047Y-137309380D02*
X28305047Y-136309380D01*
X28305047Y-136785571D02*
X28876476Y-136785571D01*
X28876476Y-137309380D02*
X28876476Y-136309380D01*
X29495523Y-137309380D02*
X29400285Y-137261761D01*
X29352666Y-137214142D01*
X29305047Y-137118904D01*
X29305047Y-136833190D01*
X29352666Y-136737952D01*
X29400285Y-136690333D01*
X29495523Y-136642714D01*
X29638380Y-136642714D01*
X29733619Y-136690333D01*
X29781238Y-136737952D01*
X29828857Y-136833190D01*
X29828857Y-137118904D01*
X29781238Y-137214142D01*
X29733619Y-137261761D01*
X29638380Y-137309380D01*
X29495523Y-137309380D01*
X30400285Y-137309380D02*
X30305047Y-137261761D01*
X30257428Y-137166523D01*
X30257428Y-136309380D01*
X31162190Y-137261761D02*
X31066952Y-137309380D01*
X30876476Y-137309380D01*
X30781238Y-137261761D01*
X30733619Y-137166523D01*
X30733619Y-136785571D01*
X30781238Y-136690333D01*
X30876476Y-136642714D01*
X31066952Y-136642714D01*
X31162190Y-136690333D01*
X31209809Y-136785571D01*
X31209809Y-136880809D01*
X30733619Y-136976047D01*
X27224095Y-126309380D02*
X27224095Y-125309380D01*
X27224095Y-125785571D02*
X27795523Y-125785571D01*
X27795523Y-126309380D02*
X27795523Y-125309380D01*
X28176476Y-125309380D02*
X28795523Y-125309380D01*
X28462190Y-125690333D01*
X28605047Y-125690333D01*
X28700285Y-125737952D01*
X28747904Y-125785571D01*
X28795523Y-125880809D01*
X28795523Y-126118904D01*
X28747904Y-126214142D01*
X28700285Y-126261761D01*
X28605047Y-126309380D01*
X28319333Y-126309380D01*
X28224095Y-126261761D01*
X28176476Y-126214142D01*
%TO.C,H4*%
X49514523Y-47282380D02*
X49514523Y-47996666D01*
X49466904Y-48139523D01*
X49371666Y-48234761D01*
X49228809Y-48282380D01*
X49133571Y-48282380D01*
X50419285Y-48282380D02*
X50419285Y-47758571D01*
X50371666Y-47663333D01*
X50276428Y-47615714D01*
X50085952Y-47615714D01*
X49990714Y-47663333D01*
X50419285Y-48234761D02*
X50324047Y-48282380D01*
X50085952Y-48282380D01*
X49990714Y-48234761D01*
X49943095Y-48139523D01*
X49943095Y-48044285D01*
X49990714Y-47949047D01*
X50085952Y-47901428D01*
X50324047Y-47901428D01*
X50419285Y-47853809D01*
X51324047Y-48234761D02*
X51228809Y-48282380D01*
X51038333Y-48282380D01*
X50943095Y-48234761D01*
X50895476Y-48187142D01*
X50847857Y-48091904D01*
X50847857Y-47806190D01*
X50895476Y-47710952D01*
X50943095Y-47663333D01*
X51038333Y-47615714D01*
X51228809Y-47615714D01*
X51324047Y-47663333D01*
X51752619Y-48282380D02*
X51752619Y-47282380D01*
X51847857Y-47901428D02*
X52133571Y-48282380D01*
X52133571Y-47615714D02*
X51752619Y-47996666D01*
X52324047Y-48377619D02*
X53085952Y-48377619D01*
X53324047Y-48282380D02*
X53324047Y-47282380D01*
X53324047Y-47758571D02*
X53895476Y-47758571D01*
X53895476Y-48282380D02*
X53895476Y-47282380D01*
X54514523Y-48282380D02*
X54419285Y-48234761D01*
X54371666Y-48187142D01*
X54324047Y-48091904D01*
X54324047Y-47806190D01*
X54371666Y-47710952D01*
X54419285Y-47663333D01*
X54514523Y-47615714D01*
X54657380Y-47615714D01*
X54752619Y-47663333D01*
X54800238Y-47710952D01*
X54847857Y-47806190D01*
X54847857Y-48091904D01*
X54800238Y-48187142D01*
X54752619Y-48234761D01*
X54657380Y-48282380D01*
X54514523Y-48282380D01*
X55419285Y-48282380D02*
X55324047Y-48234761D01*
X55276428Y-48139523D01*
X55276428Y-47282380D01*
X56181190Y-48234761D02*
X56085952Y-48282380D01*
X55895476Y-48282380D01*
X55800238Y-48234761D01*
X55752619Y-48139523D01*
X55752619Y-47758571D01*
X55800238Y-47663333D01*
X55895476Y-47615714D01*
X56085952Y-47615714D01*
X56181190Y-47663333D01*
X56228809Y-47758571D01*
X56228809Y-47853809D01*
X55752619Y-47949047D01*
X52243095Y-37282380D02*
X52243095Y-36282380D01*
X52243095Y-36758571D02*
X52814523Y-36758571D01*
X52814523Y-37282380D02*
X52814523Y-36282380D01*
X53719285Y-36615714D02*
X53719285Y-37282380D01*
X53481190Y-36234761D02*
X53243095Y-36949047D01*
X53862142Y-36949047D01*
%TO.C,H7*%
X49514523Y-136245880D02*
X49514523Y-136960166D01*
X49466904Y-137103023D01*
X49371666Y-137198261D01*
X49228809Y-137245880D01*
X49133571Y-137245880D01*
X50419285Y-137245880D02*
X50419285Y-136722071D01*
X50371666Y-136626833D01*
X50276428Y-136579214D01*
X50085952Y-136579214D01*
X49990714Y-136626833D01*
X50419285Y-137198261D02*
X50324047Y-137245880D01*
X50085952Y-137245880D01*
X49990714Y-137198261D01*
X49943095Y-137103023D01*
X49943095Y-137007785D01*
X49990714Y-136912547D01*
X50085952Y-136864928D01*
X50324047Y-136864928D01*
X50419285Y-136817309D01*
X51324047Y-137198261D02*
X51228809Y-137245880D01*
X51038333Y-137245880D01*
X50943095Y-137198261D01*
X50895476Y-137150642D01*
X50847857Y-137055404D01*
X50847857Y-136769690D01*
X50895476Y-136674452D01*
X50943095Y-136626833D01*
X51038333Y-136579214D01*
X51228809Y-136579214D01*
X51324047Y-136626833D01*
X51752619Y-137245880D02*
X51752619Y-136245880D01*
X51847857Y-136864928D02*
X52133571Y-137245880D01*
X52133571Y-136579214D02*
X51752619Y-136960166D01*
X52324047Y-137341119D02*
X53085952Y-137341119D01*
X53324047Y-137245880D02*
X53324047Y-136245880D01*
X53324047Y-136722071D02*
X53895476Y-136722071D01*
X53895476Y-137245880D02*
X53895476Y-136245880D01*
X54514523Y-137245880D02*
X54419285Y-137198261D01*
X54371666Y-137150642D01*
X54324047Y-137055404D01*
X54324047Y-136769690D01*
X54371666Y-136674452D01*
X54419285Y-136626833D01*
X54514523Y-136579214D01*
X54657380Y-136579214D01*
X54752619Y-136626833D01*
X54800238Y-136674452D01*
X54847857Y-136769690D01*
X54847857Y-137055404D01*
X54800238Y-137150642D01*
X54752619Y-137198261D01*
X54657380Y-137245880D01*
X54514523Y-137245880D01*
X55419285Y-137245880D02*
X55324047Y-137198261D01*
X55276428Y-137103023D01*
X55276428Y-136245880D01*
X56181190Y-137198261D02*
X56085952Y-137245880D01*
X55895476Y-137245880D01*
X55800238Y-137198261D01*
X55752619Y-137103023D01*
X55752619Y-136722071D01*
X55800238Y-136626833D01*
X55895476Y-136579214D01*
X56085952Y-136579214D01*
X56181190Y-136626833D01*
X56228809Y-136722071D01*
X56228809Y-136817309D01*
X55752619Y-136912547D01*
X52243095Y-126245880D02*
X52243095Y-125245880D01*
X52243095Y-125722071D02*
X52814523Y-125722071D01*
X52814523Y-126245880D02*
X52814523Y-125245880D01*
X53195476Y-125245880D02*
X53862142Y-125245880D01*
X53433571Y-126245880D01*
%TO.C,H8*%
X49514523Y-203301880D02*
X49514523Y-204016166D01*
X49466904Y-204159023D01*
X49371666Y-204254261D01*
X49228809Y-204301880D01*
X49133571Y-204301880D01*
X50419285Y-204301880D02*
X50419285Y-203778071D01*
X50371666Y-203682833D01*
X50276428Y-203635214D01*
X50085952Y-203635214D01*
X49990714Y-203682833D01*
X50419285Y-204254261D02*
X50324047Y-204301880D01*
X50085952Y-204301880D01*
X49990714Y-204254261D01*
X49943095Y-204159023D01*
X49943095Y-204063785D01*
X49990714Y-203968547D01*
X50085952Y-203920928D01*
X50324047Y-203920928D01*
X50419285Y-203873309D01*
X51324047Y-204254261D02*
X51228809Y-204301880D01*
X51038333Y-204301880D01*
X50943095Y-204254261D01*
X50895476Y-204206642D01*
X50847857Y-204111404D01*
X50847857Y-203825690D01*
X50895476Y-203730452D01*
X50943095Y-203682833D01*
X51038333Y-203635214D01*
X51228809Y-203635214D01*
X51324047Y-203682833D01*
X51752619Y-204301880D02*
X51752619Y-203301880D01*
X51847857Y-203920928D02*
X52133571Y-204301880D01*
X52133571Y-203635214D02*
X51752619Y-204016166D01*
X52324047Y-204397119D02*
X53085952Y-204397119D01*
X53324047Y-204301880D02*
X53324047Y-203301880D01*
X53324047Y-203778071D02*
X53895476Y-203778071D01*
X53895476Y-204301880D02*
X53895476Y-203301880D01*
X54514523Y-204301880D02*
X54419285Y-204254261D01*
X54371666Y-204206642D01*
X54324047Y-204111404D01*
X54324047Y-203825690D01*
X54371666Y-203730452D01*
X54419285Y-203682833D01*
X54514523Y-203635214D01*
X54657380Y-203635214D01*
X54752619Y-203682833D01*
X54800238Y-203730452D01*
X54847857Y-203825690D01*
X54847857Y-204111404D01*
X54800238Y-204206642D01*
X54752619Y-204254261D01*
X54657380Y-204301880D01*
X54514523Y-204301880D01*
X55419285Y-204301880D02*
X55324047Y-204254261D01*
X55276428Y-204159023D01*
X55276428Y-203301880D01*
X56181190Y-204254261D02*
X56085952Y-204301880D01*
X55895476Y-204301880D01*
X55800238Y-204254261D01*
X55752619Y-204159023D01*
X55752619Y-203778071D01*
X55800238Y-203682833D01*
X55895476Y-203635214D01*
X56085952Y-203635214D01*
X56181190Y-203682833D01*
X56228809Y-203778071D01*
X56228809Y-203873309D01*
X55752619Y-203968547D01*
X52243095Y-193301880D02*
X52243095Y-192301880D01*
X52243095Y-192778071D02*
X52814523Y-192778071D01*
X52814523Y-193301880D02*
X52814523Y-192301880D01*
X53433571Y-192730452D02*
X53338333Y-192682833D01*
X53290714Y-192635214D01*
X53243095Y-192539976D01*
X53243095Y-192492357D01*
X53290714Y-192397119D01*
X53338333Y-192349500D01*
X53433571Y-192301880D01*
X53624047Y-192301880D01*
X53719285Y-192349500D01*
X53766904Y-192397119D01*
X53814523Y-192492357D01*
X53814523Y-192539976D01*
X53766904Y-192635214D01*
X53719285Y-192682833D01*
X53624047Y-192730452D01*
X53433571Y-192730452D01*
X53338333Y-192778071D01*
X53290714Y-192825690D01*
X53243095Y-192920928D01*
X53243095Y-193111404D01*
X53290714Y-193206642D01*
X53338333Y-193254261D01*
X53433571Y-193301880D01*
X53624047Y-193301880D01*
X53719285Y-193254261D01*
X53766904Y-193206642D01*
X53814523Y-193111404D01*
X53814523Y-192920928D01*
X53766904Y-192825690D01*
X53719285Y-192778071D01*
X53624047Y-192730452D01*
%TO.C,H9*%
X24495523Y-69253380D02*
X24495523Y-69967666D01*
X24447904Y-70110523D01*
X24352666Y-70205761D01*
X24209809Y-70253380D01*
X24114571Y-70253380D01*
X25400285Y-70253380D02*
X25400285Y-69729571D01*
X25352666Y-69634333D01*
X25257428Y-69586714D01*
X25066952Y-69586714D01*
X24971714Y-69634333D01*
X25400285Y-70205761D02*
X25305047Y-70253380D01*
X25066952Y-70253380D01*
X24971714Y-70205761D01*
X24924095Y-70110523D01*
X24924095Y-70015285D01*
X24971714Y-69920047D01*
X25066952Y-69872428D01*
X25305047Y-69872428D01*
X25400285Y-69824809D01*
X26305047Y-70205761D02*
X26209809Y-70253380D01*
X26019333Y-70253380D01*
X25924095Y-70205761D01*
X25876476Y-70158142D01*
X25828857Y-70062904D01*
X25828857Y-69777190D01*
X25876476Y-69681952D01*
X25924095Y-69634333D01*
X26019333Y-69586714D01*
X26209809Y-69586714D01*
X26305047Y-69634333D01*
X26733619Y-70253380D02*
X26733619Y-69253380D01*
X26828857Y-69872428D02*
X27114571Y-70253380D01*
X27114571Y-69586714D02*
X26733619Y-69967666D01*
X27305047Y-70348619D02*
X28066952Y-70348619D01*
X28305047Y-70253380D02*
X28305047Y-69253380D01*
X28305047Y-69729571D02*
X28876476Y-69729571D01*
X28876476Y-70253380D02*
X28876476Y-69253380D01*
X29495523Y-70253380D02*
X29400285Y-70205761D01*
X29352666Y-70158142D01*
X29305047Y-70062904D01*
X29305047Y-69777190D01*
X29352666Y-69681952D01*
X29400285Y-69634333D01*
X29495523Y-69586714D01*
X29638380Y-69586714D01*
X29733619Y-69634333D01*
X29781238Y-69681952D01*
X29828857Y-69777190D01*
X29828857Y-70062904D01*
X29781238Y-70158142D01*
X29733619Y-70205761D01*
X29638380Y-70253380D01*
X29495523Y-70253380D01*
X30400285Y-70253380D02*
X30305047Y-70205761D01*
X30257428Y-70110523D01*
X30257428Y-69253380D01*
X31162190Y-70205761D02*
X31066952Y-70253380D01*
X30876476Y-70253380D01*
X30781238Y-70205761D01*
X30733619Y-70110523D01*
X30733619Y-69729571D01*
X30781238Y-69634333D01*
X30876476Y-69586714D01*
X31066952Y-69586714D01*
X31162190Y-69634333D01*
X31209809Y-69729571D01*
X31209809Y-69824809D01*
X30733619Y-69920047D01*
X27224095Y-59253380D02*
X27224095Y-58253380D01*
X27224095Y-58729571D02*
X27795523Y-58729571D01*
X27795523Y-59253380D02*
X27795523Y-58253380D01*
X28319333Y-59253380D02*
X28509809Y-59253380D01*
X28605047Y-59205761D01*
X28652666Y-59158142D01*
X28747904Y-59015285D01*
X28795523Y-58824809D01*
X28795523Y-58443857D01*
X28747904Y-58348619D01*
X28700285Y-58301000D01*
X28605047Y-58253380D01*
X28414571Y-58253380D01*
X28319333Y-58301000D01*
X28271714Y-58348619D01*
X28224095Y-58443857D01*
X28224095Y-58681952D01*
X28271714Y-58777190D01*
X28319333Y-58824809D01*
X28414571Y-58872428D01*
X28605047Y-58872428D01*
X28700285Y-58824809D01*
X28747904Y-58777190D01*
X28795523Y-58681952D01*
%TO.C,H12*%
X24495523Y-181267380D02*
X24495523Y-181981666D01*
X24447904Y-182124523D01*
X24352666Y-182219761D01*
X24209809Y-182267380D01*
X24114571Y-182267380D01*
X25400285Y-182267380D02*
X25400285Y-181743571D01*
X25352666Y-181648333D01*
X25257428Y-181600714D01*
X25066952Y-181600714D01*
X24971714Y-181648333D01*
X25400285Y-182219761D02*
X25305047Y-182267380D01*
X25066952Y-182267380D01*
X24971714Y-182219761D01*
X24924095Y-182124523D01*
X24924095Y-182029285D01*
X24971714Y-181934047D01*
X25066952Y-181886428D01*
X25305047Y-181886428D01*
X25400285Y-181838809D01*
X26305047Y-182219761D02*
X26209809Y-182267380D01*
X26019333Y-182267380D01*
X25924095Y-182219761D01*
X25876476Y-182172142D01*
X25828857Y-182076904D01*
X25828857Y-181791190D01*
X25876476Y-181695952D01*
X25924095Y-181648333D01*
X26019333Y-181600714D01*
X26209809Y-181600714D01*
X26305047Y-181648333D01*
X26733619Y-182267380D02*
X26733619Y-181267380D01*
X26828857Y-181886428D02*
X27114571Y-182267380D01*
X27114571Y-181600714D02*
X26733619Y-181981666D01*
X27305047Y-182362619D02*
X28066952Y-182362619D01*
X28305047Y-182267380D02*
X28305047Y-181267380D01*
X28305047Y-181743571D02*
X28876476Y-181743571D01*
X28876476Y-182267380D02*
X28876476Y-181267380D01*
X29495523Y-182267380D02*
X29400285Y-182219761D01*
X29352666Y-182172142D01*
X29305047Y-182076904D01*
X29305047Y-181791190D01*
X29352666Y-181695952D01*
X29400285Y-181648333D01*
X29495523Y-181600714D01*
X29638380Y-181600714D01*
X29733619Y-181648333D01*
X29781238Y-181695952D01*
X29828857Y-181791190D01*
X29828857Y-182076904D01*
X29781238Y-182172142D01*
X29733619Y-182219761D01*
X29638380Y-182267380D01*
X29495523Y-182267380D01*
X30400285Y-182267380D02*
X30305047Y-182219761D01*
X30257428Y-182124523D01*
X30257428Y-181267380D01*
X31162190Y-182219761D02*
X31066952Y-182267380D01*
X30876476Y-182267380D01*
X30781238Y-182219761D01*
X30733619Y-182124523D01*
X30733619Y-181743571D01*
X30781238Y-181648333D01*
X30876476Y-181600714D01*
X31066952Y-181600714D01*
X31162190Y-181648333D01*
X31209809Y-181743571D01*
X31209809Y-181838809D01*
X30733619Y-181934047D01*
X26747904Y-171267380D02*
X26747904Y-170267380D01*
X26747904Y-170743571D02*
X27319333Y-170743571D01*
X27319333Y-171267380D02*
X27319333Y-170267380D01*
X28319333Y-171267380D02*
X27747904Y-171267380D01*
X28033619Y-171267380D02*
X28033619Y-170267380D01*
X27938380Y-170410238D01*
X27843142Y-170505476D01*
X27747904Y-170553095D01*
X28700285Y-170362619D02*
X28747904Y-170315000D01*
X28843142Y-170267380D01*
X29081238Y-170267380D01*
X29176476Y-170315000D01*
X29224095Y-170362619D01*
X29271714Y-170457857D01*
X29271714Y-170553095D01*
X29224095Y-170695952D01*
X28652666Y-171267380D01*
X29271714Y-171267380D01*
%TO.C,H13*%
X24495523Y-203301880D02*
X24495523Y-204016166D01*
X24447904Y-204159023D01*
X24352666Y-204254261D01*
X24209809Y-204301880D01*
X24114571Y-204301880D01*
X25400285Y-204301880D02*
X25400285Y-203778071D01*
X25352666Y-203682833D01*
X25257428Y-203635214D01*
X25066952Y-203635214D01*
X24971714Y-203682833D01*
X25400285Y-204254261D02*
X25305047Y-204301880D01*
X25066952Y-204301880D01*
X24971714Y-204254261D01*
X24924095Y-204159023D01*
X24924095Y-204063785D01*
X24971714Y-203968547D01*
X25066952Y-203920928D01*
X25305047Y-203920928D01*
X25400285Y-203873309D01*
X26305047Y-204254261D02*
X26209809Y-204301880D01*
X26019333Y-204301880D01*
X25924095Y-204254261D01*
X25876476Y-204206642D01*
X25828857Y-204111404D01*
X25828857Y-203825690D01*
X25876476Y-203730452D01*
X25924095Y-203682833D01*
X26019333Y-203635214D01*
X26209809Y-203635214D01*
X26305047Y-203682833D01*
X26733619Y-204301880D02*
X26733619Y-203301880D01*
X26828857Y-203920928D02*
X27114571Y-204301880D01*
X27114571Y-203635214D02*
X26733619Y-204016166D01*
X27305047Y-204397119D02*
X28066952Y-204397119D01*
X28305047Y-204301880D02*
X28305047Y-203301880D01*
X28305047Y-203778071D02*
X28876476Y-203778071D01*
X28876476Y-204301880D02*
X28876476Y-203301880D01*
X29495523Y-204301880D02*
X29400285Y-204254261D01*
X29352666Y-204206642D01*
X29305047Y-204111404D01*
X29305047Y-203825690D01*
X29352666Y-203730452D01*
X29400285Y-203682833D01*
X29495523Y-203635214D01*
X29638380Y-203635214D01*
X29733619Y-203682833D01*
X29781238Y-203730452D01*
X29828857Y-203825690D01*
X29828857Y-204111404D01*
X29781238Y-204206642D01*
X29733619Y-204254261D01*
X29638380Y-204301880D01*
X29495523Y-204301880D01*
X30400285Y-204301880D02*
X30305047Y-204254261D01*
X30257428Y-204159023D01*
X30257428Y-203301880D01*
X31162190Y-204254261D02*
X31066952Y-204301880D01*
X30876476Y-204301880D01*
X30781238Y-204254261D01*
X30733619Y-204159023D01*
X30733619Y-203778071D01*
X30781238Y-203682833D01*
X30876476Y-203635214D01*
X31066952Y-203635214D01*
X31162190Y-203682833D01*
X31209809Y-203778071D01*
X31209809Y-203873309D01*
X30733619Y-203968547D01*
X26747904Y-193301880D02*
X26747904Y-192301880D01*
X26747904Y-192778071D02*
X27319333Y-192778071D01*
X27319333Y-193301880D02*
X27319333Y-192301880D01*
X28319333Y-193301880D02*
X27747904Y-193301880D01*
X28033619Y-193301880D02*
X28033619Y-192301880D01*
X27938380Y-192444738D01*
X27843142Y-192539976D01*
X27747904Y-192587595D01*
X28652666Y-192301880D02*
X29271714Y-192301880D01*
X28938380Y-192682833D01*
X29081238Y-192682833D01*
X29176476Y-192730452D01*
X29224095Y-192778071D01*
X29271714Y-192873309D01*
X29271714Y-193111404D01*
X29224095Y-193206642D01*
X29176476Y-193254261D01*
X29081238Y-193301880D01*
X28795523Y-193301880D01*
X28700285Y-193254261D01*
X28652666Y-193206642D01*
%TO.C,H14*%
X49514523Y-69316880D02*
X49514523Y-70031166D01*
X49466904Y-70174023D01*
X49371666Y-70269261D01*
X49228809Y-70316880D01*
X49133571Y-70316880D01*
X50419285Y-70316880D02*
X50419285Y-69793071D01*
X50371666Y-69697833D01*
X50276428Y-69650214D01*
X50085952Y-69650214D01*
X49990714Y-69697833D01*
X50419285Y-70269261D02*
X50324047Y-70316880D01*
X50085952Y-70316880D01*
X49990714Y-70269261D01*
X49943095Y-70174023D01*
X49943095Y-70078785D01*
X49990714Y-69983547D01*
X50085952Y-69935928D01*
X50324047Y-69935928D01*
X50419285Y-69888309D01*
X51324047Y-70269261D02*
X51228809Y-70316880D01*
X51038333Y-70316880D01*
X50943095Y-70269261D01*
X50895476Y-70221642D01*
X50847857Y-70126404D01*
X50847857Y-69840690D01*
X50895476Y-69745452D01*
X50943095Y-69697833D01*
X51038333Y-69650214D01*
X51228809Y-69650214D01*
X51324047Y-69697833D01*
X51752619Y-70316880D02*
X51752619Y-69316880D01*
X51847857Y-69935928D02*
X52133571Y-70316880D01*
X52133571Y-69650214D02*
X51752619Y-70031166D01*
X52324047Y-70412119D02*
X53085952Y-70412119D01*
X53324047Y-70316880D02*
X53324047Y-69316880D01*
X53324047Y-69793071D02*
X53895476Y-69793071D01*
X53895476Y-70316880D02*
X53895476Y-69316880D01*
X54514523Y-70316880D02*
X54419285Y-70269261D01*
X54371666Y-70221642D01*
X54324047Y-70126404D01*
X54324047Y-69840690D01*
X54371666Y-69745452D01*
X54419285Y-69697833D01*
X54514523Y-69650214D01*
X54657380Y-69650214D01*
X54752619Y-69697833D01*
X54800238Y-69745452D01*
X54847857Y-69840690D01*
X54847857Y-70126404D01*
X54800238Y-70221642D01*
X54752619Y-70269261D01*
X54657380Y-70316880D01*
X54514523Y-70316880D01*
X55419285Y-70316880D02*
X55324047Y-70269261D01*
X55276428Y-70174023D01*
X55276428Y-69316880D01*
X56181190Y-70269261D02*
X56085952Y-70316880D01*
X55895476Y-70316880D01*
X55800238Y-70269261D01*
X55752619Y-70174023D01*
X55752619Y-69793071D01*
X55800238Y-69697833D01*
X55895476Y-69650214D01*
X56085952Y-69650214D01*
X56181190Y-69697833D01*
X56228809Y-69793071D01*
X56228809Y-69888309D01*
X55752619Y-69983547D01*
X51766904Y-59316880D02*
X51766904Y-58316880D01*
X51766904Y-58793071D02*
X52338333Y-58793071D01*
X52338333Y-59316880D02*
X52338333Y-58316880D01*
X53338333Y-59316880D02*
X52766904Y-59316880D01*
X53052619Y-59316880D02*
X53052619Y-58316880D01*
X52957380Y-58459738D01*
X52862142Y-58554976D01*
X52766904Y-58602595D01*
X54195476Y-58650214D02*
X54195476Y-59316880D01*
X53957380Y-58269261D02*
X53719285Y-58983547D01*
X54338333Y-58983547D01*
%TO.C,H16*%
X49514523Y-181267380D02*
X49514523Y-181981666D01*
X49466904Y-182124523D01*
X49371666Y-182219761D01*
X49228809Y-182267380D01*
X49133571Y-182267380D01*
X50419285Y-182267380D02*
X50419285Y-181743571D01*
X50371666Y-181648333D01*
X50276428Y-181600714D01*
X50085952Y-181600714D01*
X49990714Y-181648333D01*
X50419285Y-182219761D02*
X50324047Y-182267380D01*
X50085952Y-182267380D01*
X49990714Y-182219761D01*
X49943095Y-182124523D01*
X49943095Y-182029285D01*
X49990714Y-181934047D01*
X50085952Y-181886428D01*
X50324047Y-181886428D01*
X50419285Y-181838809D01*
X51324047Y-182219761D02*
X51228809Y-182267380D01*
X51038333Y-182267380D01*
X50943095Y-182219761D01*
X50895476Y-182172142D01*
X50847857Y-182076904D01*
X50847857Y-181791190D01*
X50895476Y-181695952D01*
X50943095Y-181648333D01*
X51038333Y-181600714D01*
X51228809Y-181600714D01*
X51324047Y-181648333D01*
X51752619Y-182267380D02*
X51752619Y-181267380D01*
X51847857Y-181886428D02*
X52133571Y-182267380D01*
X52133571Y-181600714D02*
X51752619Y-181981666D01*
X52324047Y-182362619D02*
X53085952Y-182362619D01*
X53324047Y-182267380D02*
X53324047Y-181267380D01*
X53324047Y-181743571D02*
X53895476Y-181743571D01*
X53895476Y-182267380D02*
X53895476Y-181267380D01*
X54514523Y-182267380D02*
X54419285Y-182219761D01*
X54371666Y-182172142D01*
X54324047Y-182076904D01*
X54324047Y-181791190D01*
X54371666Y-181695952D01*
X54419285Y-181648333D01*
X54514523Y-181600714D01*
X54657380Y-181600714D01*
X54752619Y-181648333D01*
X54800238Y-181695952D01*
X54847857Y-181791190D01*
X54847857Y-182076904D01*
X54800238Y-182172142D01*
X54752619Y-182219761D01*
X54657380Y-182267380D01*
X54514523Y-182267380D01*
X55419285Y-182267380D02*
X55324047Y-182219761D01*
X55276428Y-182124523D01*
X55276428Y-181267380D01*
X56181190Y-182219761D02*
X56085952Y-182267380D01*
X55895476Y-182267380D01*
X55800238Y-182219761D01*
X55752619Y-182124523D01*
X55752619Y-181743571D01*
X55800238Y-181648333D01*
X55895476Y-181600714D01*
X56085952Y-181600714D01*
X56181190Y-181648333D01*
X56228809Y-181743571D01*
X56228809Y-181838809D01*
X55752619Y-181934047D01*
X51766904Y-171267380D02*
X51766904Y-170267380D01*
X51766904Y-170743571D02*
X52338333Y-170743571D01*
X52338333Y-171267380D02*
X52338333Y-170267380D01*
X53338333Y-171267380D02*
X52766904Y-171267380D01*
X53052619Y-171267380D02*
X53052619Y-170267380D01*
X52957380Y-170410238D01*
X52862142Y-170505476D01*
X52766904Y-170553095D01*
X54195476Y-170267380D02*
X54005000Y-170267380D01*
X53909761Y-170315000D01*
X53862142Y-170362619D01*
X53766904Y-170505476D01*
X53719285Y-170695952D01*
X53719285Y-171076904D01*
X53766904Y-171172142D01*
X53814523Y-171219761D01*
X53909761Y-171267380D01*
X54100238Y-171267380D01*
X54195476Y-171219761D01*
X54243095Y-171172142D01*
X54290714Y-171076904D01*
X54290714Y-170838809D01*
X54243095Y-170743571D01*
X54195476Y-170695952D01*
X54100238Y-170648333D01*
X53909761Y-170648333D01*
X53814523Y-170695952D01*
X53766904Y-170743571D01*
X53719285Y-170838809D01*
%TO.C,H17*%
X49514523Y-114274880D02*
X49514523Y-114989166D01*
X49466904Y-115132023D01*
X49371666Y-115227261D01*
X49228809Y-115274880D01*
X49133571Y-115274880D01*
X50419285Y-115274880D02*
X50419285Y-114751071D01*
X50371666Y-114655833D01*
X50276428Y-114608214D01*
X50085952Y-114608214D01*
X49990714Y-114655833D01*
X50419285Y-115227261D02*
X50324047Y-115274880D01*
X50085952Y-115274880D01*
X49990714Y-115227261D01*
X49943095Y-115132023D01*
X49943095Y-115036785D01*
X49990714Y-114941547D01*
X50085952Y-114893928D01*
X50324047Y-114893928D01*
X50419285Y-114846309D01*
X51324047Y-115227261D02*
X51228809Y-115274880D01*
X51038333Y-115274880D01*
X50943095Y-115227261D01*
X50895476Y-115179642D01*
X50847857Y-115084404D01*
X50847857Y-114798690D01*
X50895476Y-114703452D01*
X50943095Y-114655833D01*
X51038333Y-114608214D01*
X51228809Y-114608214D01*
X51324047Y-114655833D01*
X51752619Y-115274880D02*
X51752619Y-114274880D01*
X51847857Y-114893928D02*
X52133571Y-115274880D01*
X52133571Y-114608214D02*
X51752619Y-114989166D01*
X52324047Y-115370119D02*
X53085952Y-115370119D01*
X53324047Y-115274880D02*
X53324047Y-114274880D01*
X53324047Y-114751071D02*
X53895476Y-114751071D01*
X53895476Y-115274880D02*
X53895476Y-114274880D01*
X54514523Y-115274880D02*
X54419285Y-115227261D01*
X54371666Y-115179642D01*
X54324047Y-115084404D01*
X54324047Y-114798690D01*
X54371666Y-114703452D01*
X54419285Y-114655833D01*
X54514523Y-114608214D01*
X54657380Y-114608214D01*
X54752619Y-114655833D01*
X54800238Y-114703452D01*
X54847857Y-114798690D01*
X54847857Y-115084404D01*
X54800238Y-115179642D01*
X54752619Y-115227261D01*
X54657380Y-115274880D01*
X54514523Y-115274880D01*
X55419285Y-115274880D02*
X55324047Y-115227261D01*
X55276428Y-115132023D01*
X55276428Y-114274880D01*
X56181190Y-115227261D02*
X56085952Y-115274880D01*
X55895476Y-115274880D01*
X55800238Y-115227261D01*
X55752619Y-115132023D01*
X55752619Y-114751071D01*
X55800238Y-114655833D01*
X55895476Y-114608214D01*
X56085952Y-114608214D01*
X56181190Y-114655833D01*
X56228809Y-114751071D01*
X56228809Y-114846309D01*
X55752619Y-114941547D01*
X51766904Y-104274880D02*
X51766904Y-103274880D01*
X51766904Y-103751071D02*
X52338333Y-103751071D01*
X52338333Y-104274880D02*
X52338333Y-103274880D01*
X53338333Y-104274880D02*
X52766904Y-104274880D01*
X53052619Y-104274880D02*
X53052619Y-103274880D01*
X52957380Y-103417738D01*
X52862142Y-103512976D01*
X52766904Y-103560595D01*
X53671666Y-103274880D02*
X54338333Y-103274880D01*
X53909761Y-104274880D01*
%TO.C,H18*%
X24495523Y-114274880D02*
X24495523Y-114989166D01*
X24447904Y-115132023D01*
X24352666Y-115227261D01*
X24209809Y-115274880D01*
X24114571Y-115274880D01*
X25400285Y-115274880D02*
X25400285Y-114751071D01*
X25352666Y-114655833D01*
X25257428Y-114608214D01*
X25066952Y-114608214D01*
X24971714Y-114655833D01*
X25400285Y-115227261D02*
X25305047Y-115274880D01*
X25066952Y-115274880D01*
X24971714Y-115227261D01*
X24924095Y-115132023D01*
X24924095Y-115036785D01*
X24971714Y-114941547D01*
X25066952Y-114893928D01*
X25305047Y-114893928D01*
X25400285Y-114846309D01*
X26305047Y-115227261D02*
X26209809Y-115274880D01*
X26019333Y-115274880D01*
X25924095Y-115227261D01*
X25876476Y-115179642D01*
X25828857Y-115084404D01*
X25828857Y-114798690D01*
X25876476Y-114703452D01*
X25924095Y-114655833D01*
X26019333Y-114608214D01*
X26209809Y-114608214D01*
X26305047Y-114655833D01*
X26733619Y-115274880D02*
X26733619Y-114274880D01*
X26828857Y-114893928D02*
X27114571Y-115274880D01*
X27114571Y-114608214D02*
X26733619Y-114989166D01*
X27305047Y-115370119D02*
X28066952Y-115370119D01*
X28305047Y-115274880D02*
X28305047Y-114274880D01*
X28305047Y-114751071D02*
X28876476Y-114751071D01*
X28876476Y-115274880D02*
X28876476Y-114274880D01*
X29495523Y-115274880D02*
X29400285Y-115227261D01*
X29352666Y-115179642D01*
X29305047Y-115084404D01*
X29305047Y-114798690D01*
X29352666Y-114703452D01*
X29400285Y-114655833D01*
X29495523Y-114608214D01*
X29638380Y-114608214D01*
X29733619Y-114655833D01*
X29781238Y-114703452D01*
X29828857Y-114798690D01*
X29828857Y-115084404D01*
X29781238Y-115179642D01*
X29733619Y-115227261D01*
X29638380Y-115274880D01*
X29495523Y-115274880D01*
X30400285Y-115274880D02*
X30305047Y-115227261D01*
X30257428Y-115132023D01*
X30257428Y-114274880D01*
X31162190Y-115227261D02*
X31066952Y-115274880D01*
X30876476Y-115274880D01*
X30781238Y-115227261D01*
X30733619Y-115132023D01*
X30733619Y-114751071D01*
X30781238Y-114655833D01*
X30876476Y-114608214D01*
X31066952Y-114608214D01*
X31162190Y-114655833D01*
X31209809Y-114751071D01*
X31209809Y-114846309D01*
X30733619Y-114941547D01*
X26747904Y-104274880D02*
X26747904Y-103274880D01*
X26747904Y-103751071D02*
X27319333Y-103751071D01*
X27319333Y-104274880D02*
X27319333Y-103274880D01*
X28319333Y-104274880D02*
X27747904Y-104274880D01*
X28033619Y-104274880D02*
X28033619Y-103274880D01*
X27938380Y-103417738D01*
X27843142Y-103512976D01*
X27747904Y-103560595D01*
X28890761Y-103703452D02*
X28795523Y-103655833D01*
X28747904Y-103608214D01*
X28700285Y-103512976D01*
X28700285Y-103465357D01*
X28747904Y-103370119D01*
X28795523Y-103322500D01*
X28890761Y-103274880D01*
X29081238Y-103274880D01*
X29176476Y-103322500D01*
X29224095Y-103370119D01*
X29271714Y-103465357D01*
X29271714Y-103512976D01*
X29224095Y-103608214D01*
X29176476Y-103655833D01*
X29081238Y-103703452D01*
X28890761Y-103703452D01*
X28795523Y-103751071D01*
X28747904Y-103798690D01*
X28700285Y-103893928D01*
X28700285Y-104084404D01*
X28747904Y-104179642D01*
X28795523Y-104227261D01*
X28890761Y-104274880D01*
X29081238Y-104274880D01*
X29176476Y-104227261D01*
X29224095Y-104179642D01*
X29271714Y-104084404D01*
X29271714Y-103893928D01*
X29224095Y-103798690D01*
X29176476Y-103751071D01*
X29081238Y-103703452D01*
%TO.C,H23*%
X37576452Y-199301880D02*
X37100261Y-199301880D01*
X37100261Y-198301880D01*
X38290738Y-199254261D02*
X38195500Y-199301880D01*
X38005023Y-199301880D01*
X37909785Y-199254261D01*
X37862166Y-199159023D01*
X37862166Y-198778071D01*
X37909785Y-198682833D01*
X38005023Y-198635214D01*
X38195500Y-198635214D01*
X38290738Y-198682833D01*
X38338357Y-198778071D01*
X38338357Y-198873309D01*
X37862166Y-198968547D01*
X39195500Y-199301880D02*
X39195500Y-198301880D01*
X39195500Y-199254261D02*
X39100261Y-199301880D01*
X38909785Y-199301880D01*
X38814547Y-199254261D01*
X38766928Y-199206642D01*
X38719309Y-199111404D01*
X38719309Y-198825690D01*
X38766928Y-198730452D01*
X38814547Y-198682833D01*
X38909785Y-198635214D01*
X39100261Y-198635214D01*
X39195500Y-198682833D01*
X39433595Y-199397119D02*
X40195500Y-199397119D01*
X40433595Y-199301880D02*
X40433595Y-198301880D01*
X40433595Y-198778071D02*
X41005023Y-198778071D01*
X41005023Y-199301880D02*
X41005023Y-198301880D01*
X41624071Y-199301880D02*
X41528833Y-199254261D01*
X41481214Y-199206642D01*
X41433595Y-199111404D01*
X41433595Y-198825690D01*
X41481214Y-198730452D01*
X41528833Y-198682833D01*
X41624071Y-198635214D01*
X41766928Y-198635214D01*
X41862166Y-198682833D01*
X41909785Y-198730452D01*
X41957404Y-198825690D01*
X41957404Y-199111404D01*
X41909785Y-199206642D01*
X41862166Y-199254261D01*
X41766928Y-199301880D01*
X41624071Y-199301880D01*
X42528833Y-199301880D02*
X42433595Y-199254261D01*
X42385976Y-199159023D01*
X42385976Y-198301880D01*
X43290738Y-199254261D02*
X43195500Y-199301880D01*
X43005023Y-199301880D01*
X42909785Y-199254261D01*
X42862166Y-199159023D01*
X42862166Y-198778071D01*
X42909785Y-198682833D01*
X43005023Y-198635214D01*
X43195500Y-198635214D01*
X43290738Y-198682833D01*
X43338357Y-198778071D01*
X43338357Y-198873309D01*
X42862166Y-198968547D01*
X39257404Y-193301880D02*
X39257404Y-192301880D01*
X39257404Y-192778071D02*
X39828833Y-192778071D01*
X39828833Y-193301880D02*
X39828833Y-192301880D01*
X40257404Y-192397119D02*
X40305023Y-192349500D01*
X40400261Y-192301880D01*
X40638357Y-192301880D01*
X40733595Y-192349500D01*
X40781214Y-192397119D01*
X40828833Y-192492357D01*
X40828833Y-192587595D01*
X40781214Y-192730452D01*
X40209785Y-193301880D01*
X40828833Y-193301880D01*
X41162166Y-192301880D02*
X41781214Y-192301880D01*
X41447880Y-192682833D01*
X41590738Y-192682833D01*
X41685976Y-192730452D01*
X41733595Y-192778071D01*
X41781214Y-192873309D01*
X41781214Y-193111404D01*
X41733595Y-193206642D01*
X41685976Y-193254261D01*
X41590738Y-193301880D01*
X41305023Y-193301880D01*
X41209785Y-193254261D01*
X41162166Y-193206642D01*
%TD*%
M02*
