%TF.GenerationSoftware,KiCad,Pcbnew,(5.1.9)-1*%
%TF.CreationDate,2021-09-13T20:57:42+01:00*%
%TF.ProjectId,KOSMO Mult faceplate,4b4f534d-4f20-44d7-956c-742066616365,rev?*%
%TF.SameCoordinates,Original*%
%TF.FileFunction,Copper,L1,Top*%
%TF.FilePolarity,Positive*%
%FSLAX46Y46*%
G04 Gerber Fmt 4.6, Leading zero omitted, Abs format (unit mm)*
G04 Created by KiCad (PCBNEW (5.1.9)-1) date 2021-09-13 20:57:42*
%MOMM*%
%LPD*%
G01*
G04 APERTURE LIST*
%TA.AperFunction,ComponentPad*%
%ADD10C,5.500000*%
%TD*%
%TA.AperFunction,ComponentPad*%
%ADD11O,6.800000X4.000000*%
%TD*%
%TA.AperFunction,ComponentPad*%
%ADD12C,14.000000*%
%TD*%
%TA.AperFunction,Conductor*%
%ADD13C,0.254000*%
%TD*%
%TA.AperFunction,Conductor*%
%ADD14C,0.100000*%
%TD*%
G04 APERTURE END LIST*
D10*
%TO.P,H26,1*%
%TO.N,N/C*%
X40195500Y-170815000D03*
%TD*%
D11*
%TO.P,H5,1*%
%TO.N,GND*%
X19688000Y-211836000D03*
%TD*%
%TO.P,H10,1*%
%TO.N,GND*%
X60709000Y-17843500D03*
%TD*%
%TO.P,H19,1*%
%TO.N,GND*%
X19688000Y-17843500D03*
%TD*%
D10*
%TO.P,H20,1*%
%TO.N,N/C*%
X40259000Y-58864500D03*
%TD*%
%TO.P,H21,1*%
%TO.N,N/C*%
X40195500Y-103822500D03*
%TD*%
%TO.P,H22,1*%
%TO.N,N/C*%
X40195500Y-125793500D03*
%TD*%
%TO.P,H25,1*%
%TO.N,N/C*%
X40132000Y-36830000D03*
%TD*%
D11*
%TO.P,H28,1*%
%TO.N,GND*%
X60706000Y-211836000D03*
%TD*%
D12*
%TO.P,H2,1*%
%TO.N,GND*%
X27749500Y-36893500D03*
%TD*%
%TO.P,H3,1*%
%TO.N,GND*%
X27686000Y-125857000D03*
%TD*%
%TO.P,H4,1*%
%TO.N,GND*%
X52705000Y-36830000D03*
%TD*%
%TO.P,H7,1*%
%TO.N,GND*%
X52705000Y-125793500D03*
%TD*%
%TO.P,H8,1*%
%TO.N,GND*%
X52705000Y-192849500D03*
%TD*%
%TO.P,H9,1*%
%TO.N,GND*%
X27686000Y-58801000D03*
%TD*%
%TO.P,H12,1*%
%TO.N,GND*%
X27686000Y-170815000D03*
%TD*%
%TO.P,H13,1*%
%TO.N,GND*%
X27686000Y-192849500D03*
%TD*%
%TO.P,H14,1*%
%TO.N,GND*%
X52705000Y-58864500D03*
%TD*%
%TO.P,H16,1*%
%TO.N,GND*%
X52705000Y-170815000D03*
%TD*%
%TO.P,H17,1*%
%TO.N,GND*%
X52705000Y-103822500D03*
%TD*%
%TO.P,H18,1*%
%TO.N,GND*%
X27686000Y-103822500D03*
%TD*%
D10*
%TO.P,H23,1*%
%TO.N,N/C*%
X40195500Y-192849500D03*
%TD*%
D13*
%TO.N,GND*%
X57739475Y-15723135D02*
X57355970Y-16070076D01*
X57047519Y-16485169D01*
X56825975Y-16952462D01*
X56729333Y-17306338D01*
X56836009Y-17716500D01*
X60582000Y-17716500D01*
X60582000Y-17696500D01*
X60836000Y-17696500D01*
X60836000Y-17716500D01*
X60856000Y-17716500D01*
X60856000Y-17970500D01*
X60836000Y-17970500D01*
X60836000Y-20478500D01*
X62236000Y-20478500D01*
X62747623Y-20403093D01*
X63234704Y-20229322D01*
X63678525Y-19963865D01*
X64062030Y-19616924D01*
X64370481Y-19201831D01*
X64554500Y-18813688D01*
X64554501Y-210872142D01*
X64367481Y-210477669D01*
X64059030Y-210062576D01*
X63675525Y-209715635D01*
X63231704Y-209450178D01*
X62744623Y-209276407D01*
X62233000Y-209201000D01*
X60833000Y-209201000D01*
X60833000Y-211709000D01*
X60853000Y-211709000D01*
X60853000Y-211963000D01*
X60833000Y-211963000D01*
X60833000Y-211983000D01*
X60579000Y-211983000D01*
X60579000Y-211963000D01*
X56833009Y-211963000D01*
X56726333Y-212373162D01*
X56822975Y-212727038D01*
X57044519Y-213194331D01*
X57352970Y-213609424D01*
X57736475Y-213956365D01*
X58180296Y-214221822D01*
X58186401Y-214224000D01*
X22207599Y-214224000D01*
X22213704Y-214221822D01*
X22657525Y-213956365D01*
X23041030Y-213609424D01*
X23349481Y-213194331D01*
X23571025Y-212727038D01*
X23667667Y-212373162D01*
X23560991Y-211963000D01*
X19815000Y-211963000D01*
X19815000Y-211983000D01*
X19561000Y-211983000D01*
X19561000Y-211963000D01*
X19541000Y-211963000D01*
X19541000Y-211709000D01*
X19561000Y-211709000D01*
X19561000Y-209201000D01*
X19815000Y-209201000D01*
X19815000Y-211709000D01*
X23560991Y-211709000D01*
X23667667Y-211298838D01*
X56726333Y-211298838D01*
X56833009Y-211709000D01*
X60579000Y-211709000D01*
X60579000Y-209201000D01*
X59179000Y-209201000D01*
X58667377Y-209276407D01*
X58180296Y-209450178D01*
X57736475Y-209715635D01*
X57352970Y-210062576D01*
X57044519Y-210477669D01*
X56822975Y-210944962D01*
X56726333Y-211298838D01*
X23667667Y-211298838D01*
X23571025Y-210944962D01*
X23349481Y-210477669D01*
X23041030Y-210062576D01*
X22657525Y-209715635D01*
X22213704Y-209450178D01*
X21726623Y-209276407D01*
X21215000Y-209201000D01*
X19815000Y-209201000D01*
X19561000Y-209201000D01*
X18161000Y-209201000D01*
X17649377Y-209276407D01*
X17162296Y-209450178D01*
X16718475Y-209715635D01*
X16334970Y-210062576D01*
X16026519Y-210477669D01*
X15900000Y-210744530D01*
X15900000Y-198251174D01*
X22463932Y-198251174D01*
X23279908Y-199130030D01*
X24589840Y-199868937D01*
X26018756Y-200338091D01*
X27511743Y-200519463D01*
X29011428Y-200406083D01*
X30460176Y-200002307D01*
X31802314Y-199323653D01*
X32092092Y-199130030D01*
X32908068Y-198251174D01*
X47482932Y-198251174D01*
X48298908Y-199130030D01*
X49608840Y-199868937D01*
X51037756Y-200338091D01*
X52530743Y-200519463D01*
X54030428Y-200406083D01*
X55479176Y-200002307D01*
X56821314Y-199323653D01*
X57111092Y-199130030D01*
X57927068Y-198251174D01*
X52705000Y-193029105D01*
X47482932Y-198251174D01*
X32908068Y-198251174D01*
X27686000Y-193029105D01*
X22463932Y-198251174D01*
X15900000Y-198251174D01*
X15900000Y-192675243D01*
X20016037Y-192675243D01*
X20129417Y-194174928D01*
X20533193Y-195623676D01*
X21211847Y-196965814D01*
X21405470Y-197255592D01*
X22284326Y-198071568D01*
X27506395Y-192849500D01*
X27865605Y-192849500D01*
X33087674Y-198071568D01*
X33966530Y-197255592D01*
X34705437Y-195945660D01*
X35174591Y-194516744D01*
X35355963Y-193023757D01*
X35317584Y-192516107D01*
X36810500Y-192516107D01*
X36810500Y-193182893D01*
X36940583Y-193836868D01*
X37195752Y-194452899D01*
X37566198Y-195007312D01*
X38037688Y-195478802D01*
X38592101Y-195849248D01*
X39208132Y-196104417D01*
X39862107Y-196234500D01*
X40528893Y-196234500D01*
X41182868Y-196104417D01*
X41798899Y-195849248D01*
X42353312Y-195478802D01*
X42824802Y-195007312D01*
X43195248Y-194452899D01*
X43450417Y-193836868D01*
X43580500Y-193182893D01*
X43580500Y-192675243D01*
X45035037Y-192675243D01*
X45148417Y-194174928D01*
X45552193Y-195623676D01*
X46230847Y-196965814D01*
X46424470Y-197255592D01*
X47303326Y-198071568D01*
X52525395Y-192849500D01*
X52884605Y-192849500D01*
X58106674Y-198071568D01*
X58985530Y-197255592D01*
X59724437Y-195945660D01*
X60193591Y-194516744D01*
X60374963Y-193023757D01*
X60261583Y-191524072D01*
X59857807Y-190075324D01*
X59179153Y-188733186D01*
X58985530Y-188443408D01*
X58106674Y-187627432D01*
X52884605Y-192849500D01*
X52525395Y-192849500D01*
X47303326Y-187627432D01*
X46424470Y-188443408D01*
X45685563Y-189753340D01*
X45216409Y-191182256D01*
X45035037Y-192675243D01*
X43580500Y-192675243D01*
X43580500Y-192516107D01*
X43450417Y-191862132D01*
X43195248Y-191246101D01*
X42824802Y-190691688D01*
X42353312Y-190220198D01*
X41798899Y-189849752D01*
X41182868Y-189594583D01*
X40528893Y-189464500D01*
X39862107Y-189464500D01*
X39208132Y-189594583D01*
X38592101Y-189849752D01*
X38037688Y-190220198D01*
X37566198Y-190691688D01*
X37195752Y-191246101D01*
X36940583Y-191862132D01*
X36810500Y-192516107D01*
X35317584Y-192516107D01*
X35242583Y-191524072D01*
X34838807Y-190075324D01*
X34160153Y-188733186D01*
X33966530Y-188443408D01*
X33087674Y-187627432D01*
X27865605Y-192849500D01*
X27506395Y-192849500D01*
X22284326Y-187627432D01*
X21405470Y-188443408D01*
X20666563Y-189753340D01*
X20197409Y-191182256D01*
X20016037Y-192675243D01*
X15900000Y-192675243D01*
X15900000Y-187447826D01*
X22463932Y-187447826D01*
X27686000Y-192669895D01*
X32908068Y-187447826D01*
X47482932Y-187447826D01*
X52705000Y-192669895D01*
X57927068Y-187447826D01*
X57111092Y-186568970D01*
X55801160Y-185830063D01*
X54372244Y-185360909D01*
X52879257Y-185179537D01*
X51379572Y-185292917D01*
X49930824Y-185696693D01*
X48588686Y-186375347D01*
X48298908Y-186568970D01*
X47482932Y-187447826D01*
X32908068Y-187447826D01*
X32092092Y-186568970D01*
X30782160Y-185830063D01*
X29353244Y-185360909D01*
X27860257Y-185179537D01*
X26360572Y-185292917D01*
X24911824Y-185696693D01*
X23569686Y-186375347D01*
X23279908Y-186568970D01*
X22463932Y-187447826D01*
X15900000Y-187447826D01*
X15900000Y-176216674D01*
X22463932Y-176216674D01*
X23279908Y-177095530D01*
X24589840Y-177834437D01*
X26018756Y-178303591D01*
X27511743Y-178484963D01*
X29011428Y-178371583D01*
X30460176Y-177967807D01*
X31802314Y-177289153D01*
X32092092Y-177095530D01*
X32908068Y-176216674D01*
X47482932Y-176216674D01*
X48298908Y-177095530D01*
X49608840Y-177834437D01*
X51037756Y-178303591D01*
X52530743Y-178484963D01*
X54030428Y-178371583D01*
X55479176Y-177967807D01*
X56821314Y-177289153D01*
X57111092Y-177095530D01*
X57927068Y-176216674D01*
X52705000Y-170994605D01*
X47482932Y-176216674D01*
X32908068Y-176216674D01*
X27686000Y-170994605D01*
X22463932Y-176216674D01*
X15900000Y-176216674D01*
X15900000Y-170640743D01*
X20016037Y-170640743D01*
X20129417Y-172140428D01*
X20533193Y-173589176D01*
X21211847Y-174931314D01*
X21405470Y-175221092D01*
X22284326Y-176037068D01*
X27506395Y-170815000D01*
X27865605Y-170815000D01*
X33087674Y-176037068D01*
X33966530Y-175221092D01*
X34705437Y-173911160D01*
X35174591Y-172482244D01*
X35355963Y-170989257D01*
X35317584Y-170481607D01*
X36810500Y-170481607D01*
X36810500Y-171148393D01*
X36940583Y-171802368D01*
X37195752Y-172418399D01*
X37566198Y-172972812D01*
X38037688Y-173444302D01*
X38592101Y-173814748D01*
X39208132Y-174069917D01*
X39862107Y-174200000D01*
X40528893Y-174200000D01*
X41182868Y-174069917D01*
X41798899Y-173814748D01*
X42353312Y-173444302D01*
X42824802Y-172972812D01*
X43195248Y-172418399D01*
X43450417Y-171802368D01*
X43580500Y-171148393D01*
X43580500Y-170640743D01*
X45035037Y-170640743D01*
X45148417Y-172140428D01*
X45552193Y-173589176D01*
X46230847Y-174931314D01*
X46424470Y-175221092D01*
X47303326Y-176037068D01*
X52525395Y-170815000D01*
X52884605Y-170815000D01*
X58106674Y-176037068D01*
X58985530Y-175221092D01*
X59724437Y-173911160D01*
X60193591Y-172482244D01*
X60374963Y-170989257D01*
X60261583Y-169489572D01*
X59857807Y-168040824D01*
X59179153Y-166698686D01*
X58985530Y-166408908D01*
X58106674Y-165592932D01*
X52884605Y-170815000D01*
X52525395Y-170815000D01*
X47303326Y-165592932D01*
X46424470Y-166408908D01*
X45685563Y-167718840D01*
X45216409Y-169147756D01*
X45035037Y-170640743D01*
X43580500Y-170640743D01*
X43580500Y-170481607D01*
X43450417Y-169827632D01*
X43195248Y-169211601D01*
X42824802Y-168657188D01*
X42353312Y-168185698D01*
X41798899Y-167815252D01*
X41182868Y-167560083D01*
X40528893Y-167430000D01*
X39862107Y-167430000D01*
X39208132Y-167560083D01*
X38592101Y-167815252D01*
X38037688Y-168185698D01*
X37566198Y-168657188D01*
X37195752Y-169211601D01*
X36940583Y-169827632D01*
X36810500Y-170481607D01*
X35317584Y-170481607D01*
X35242583Y-169489572D01*
X34838807Y-168040824D01*
X34160153Y-166698686D01*
X33966530Y-166408908D01*
X33087674Y-165592932D01*
X27865605Y-170815000D01*
X27506395Y-170815000D01*
X22284326Y-165592932D01*
X21405470Y-166408908D01*
X20666563Y-167718840D01*
X20197409Y-169147756D01*
X20016037Y-170640743D01*
X15900000Y-170640743D01*
X15900000Y-165413326D01*
X22463932Y-165413326D01*
X27686000Y-170635395D01*
X32908068Y-165413326D01*
X47482932Y-165413326D01*
X52705000Y-170635395D01*
X57927068Y-165413326D01*
X57111092Y-164534470D01*
X55801160Y-163795563D01*
X54372244Y-163326409D01*
X52879257Y-163145037D01*
X51379572Y-163258417D01*
X49930824Y-163662193D01*
X48588686Y-164340847D01*
X48298908Y-164534470D01*
X47482932Y-165413326D01*
X32908068Y-165413326D01*
X32092092Y-164534470D01*
X30782160Y-163795563D01*
X29353244Y-163326409D01*
X27860257Y-163145037D01*
X26360572Y-163258417D01*
X24911824Y-163662193D01*
X23569686Y-164340847D01*
X23279908Y-164534470D01*
X22463932Y-165413326D01*
X15900000Y-165413326D01*
X15900000Y-131258674D01*
X22463932Y-131258674D01*
X23279908Y-132137530D01*
X24589840Y-132876437D01*
X26018756Y-133345591D01*
X27511743Y-133526963D01*
X29011428Y-133413583D01*
X30460176Y-133009807D01*
X31802314Y-132331153D01*
X32092092Y-132137530D01*
X32908068Y-131258674D01*
X32844569Y-131195174D01*
X47482932Y-131195174D01*
X48298908Y-132074030D01*
X49608840Y-132812937D01*
X51037756Y-133282091D01*
X52530743Y-133463463D01*
X54030428Y-133350083D01*
X55479176Y-132946307D01*
X56821314Y-132267653D01*
X57111092Y-132074030D01*
X57927068Y-131195174D01*
X52705000Y-125973105D01*
X47482932Y-131195174D01*
X32844569Y-131195174D01*
X27686000Y-126036605D01*
X22463932Y-131258674D01*
X15900000Y-131258674D01*
X15900000Y-125682743D01*
X20016037Y-125682743D01*
X20129417Y-127182428D01*
X20533193Y-128631176D01*
X21211847Y-129973314D01*
X21405470Y-130263092D01*
X22284326Y-131079068D01*
X27506395Y-125857000D01*
X27865605Y-125857000D01*
X33087674Y-131079068D01*
X33966530Y-130263092D01*
X34705437Y-128953160D01*
X35174591Y-127524244D01*
X35355963Y-126031257D01*
X35312783Y-125460107D01*
X36810500Y-125460107D01*
X36810500Y-126126893D01*
X36940583Y-126780868D01*
X37195752Y-127396899D01*
X37566198Y-127951312D01*
X38037688Y-128422802D01*
X38592101Y-128793248D01*
X39208132Y-129048417D01*
X39862107Y-129178500D01*
X40528893Y-129178500D01*
X41182868Y-129048417D01*
X41798899Y-128793248D01*
X42353312Y-128422802D01*
X42824802Y-127951312D01*
X43195248Y-127396899D01*
X43450417Y-126780868D01*
X43580500Y-126126893D01*
X43580500Y-125619243D01*
X45035037Y-125619243D01*
X45148417Y-127118928D01*
X45552193Y-128567676D01*
X46230847Y-129909814D01*
X46424470Y-130199592D01*
X47303326Y-131015568D01*
X52525395Y-125793500D01*
X52884605Y-125793500D01*
X58106674Y-131015568D01*
X58985530Y-130199592D01*
X59724437Y-128889660D01*
X60193591Y-127460744D01*
X60374963Y-125967757D01*
X60261583Y-124468072D01*
X59857807Y-123019324D01*
X59179153Y-121677186D01*
X58985530Y-121387408D01*
X58106674Y-120571432D01*
X52884605Y-125793500D01*
X52525395Y-125793500D01*
X47303326Y-120571432D01*
X46424470Y-121387408D01*
X45685563Y-122697340D01*
X45216409Y-124126256D01*
X45035037Y-125619243D01*
X43580500Y-125619243D01*
X43580500Y-125460107D01*
X43450417Y-124806132D01*
X43195248Y-124190101D01*
X42824802Y-123635688D01*
X42353312Y-123164198D01*
X41798899Y-122793752D01*
X41182868Y-122538583D01*
X40528893Y-122408500D01*
X39862107Y-122408500D01*
X39208132Y-122538583D01*
X38592101Y-122793752D01*
X38037688Y-123164198D01*
X37566198Y-123635688D01*
X37195752Y-124190101D01*
X36940583Y-124806132D01*
X36810500Y-125460107D01*
X35312783Y-125460107D01*
X35242583Y-124531572D01*
X34838807Y-123082824D01*
X34160153Y-121740686D01*
X33966530Y-121450908D01*
X33087674Y-120634932D01*
X27865605Y-125857000D01*
X27506395Y-125857000D01*
X22284326Y-120634932D01*
X21405470Y-121450908D01*
X20666563Y-122760840D01*
X20197409Y-124189756D01*
X20016037Y-125682743D01*
X15900000Y-125682743D01*
X15900000Y-120455326D01*
X22463932Y-120455326D01*
X27686000Y-125677395D01*
X32908068Y-120455326D01*
X32849112Y-120391826D01*
X47482932Y-120391826D01*
X52705000Y-125613895D01*
X57927068Y-120391826D01*
X57111092Y-119512970D01*
X55801160Y-118774063D01*
X54372244Y-118304909D01*
X52879257Y-118123537D01*
X51379572Y-118236917D01*
X49930824Y-118640693D01*
X48588686Y-119319347D01*
X48298908Y-119512970D01*
X47482932Y-120391826D01*
X32849112Y-120391826D01*
X32092092Y-119576470D01*
X30782160Y-118837563D01*
X29353244Y-118368409D01*
X27860257Y-118187037D01*
X26360572Y-118300417D01*
X24911824Y-118704193D01*
X23569686Y-119382847D01*
X23279908Y-119576470D01*
X22463932Y-120455326D01*
X15900000Y-120455326D01*
X15900000Y-109224174D01*
X22463932Y-109224174D01*
X23279908Y-110103030D01*
X24589840Y-110841937D01*
X26018756Y-111311091D01*
X27511743Y-111492463D01*
X29011428Y-111379083D01*
X30460176Y-110975307D01*
X31802314Y-110296653D01*
X32092092Y-110103030D01*
X32908068Y-109224174D01*
X47482932Y-109224174D01*
X48298908Y-110103030D01*
X49608840Y-110841937D01*
X51037756Y-111311091D01*
X52530743Y-111492463D01*
X54030428Y-111379083D01*
X55479176Y-110975307D01*
X56821314Y-110296653D01*
X57111092Y-110103030D01*
X57927068Y-109224174D01*
X52705000Y-104002105D01*
X47482932Y-109224174D01*
X32908068Y-109224174D01*
X27686000Y-104002105D01*
X22463932Y-109224174D01*
X15900000Y-109224174D01*
X15900000Y-103648243D01*
X20016037Y-103648243D01*
X20129417Y-105147928D01*
X20533193Y-106596676D01*
X21211847Y-107938814D01*
X21405470Y-108228592D01*
X22284326Y-109044568D01*
X27506395Y-103822500D01*
X27865605Y-103822500D01*
X33087674Y-109044568D01*
X33966530Y-108228592D01*
X34705437Y-106918660D01*
X35174591Y-105489744D01*
X35355963Y-103996757D01*
X35317584Y-103489107D01*
X36810500Y-103489107D01*
X36810500Y-104155893D01*
X36940583Y-104809868D01*
X37195752Y-105425899D01*
X37566198Y-105980312D01*
X38037688Y-106451802D01*
X38592101Y-106822248D01*
X39208132Y-107077417D01*
X39862107Y-107207500D01*
X40528893Y-107207500D01*
X41182868Y-107077417D01*
X41798899Y-106822248D01*
X42353312Y-106451802D01*
X42824802Y-105980312D01*
X43195248Y-105425899D01*
X43450417Y-104809868D01*
X43580500Y-104155893D01*
X43580500Y-103648243D01*
X45035037Y-103648243D01*
X45148417Y-105147928D01*
X45552193Y-106596676D01*
X46230847Y-107938814D01*
X46424470Y-108228592D01*
X47303326Y-109044568D01*
X52525395Y-103822500D01*
X52884605Y-103822500D01*
X58106674Y-109044568D01*
X58985530Y-108228592D01*
X59724437Y-106918660D01*
X60193591Y-105489744D01*
X60374963Y-103996757D01*
X60261583Y-102497072D01*
X59857807Y-101048324D01*
X59179153Y-99706186D01*
X58985530Y-99416408D01*
X58106674Y-98600432D01*
X52884605Y-103822500D01*
X52525395Y-103822500D01*
X47303326Y-98600432D01*
X46424470Y-99416408D01*
X45685563Y-100726340D01*
X45216409Y-102155256D01*
X45035037Y-103648243D01*
X43580500Y-103648243D01*
X43580500Y-103489107D01*
X43450417Y-102835132D01*
X43195248Y-102219101D01*
X42824802Y-101664688D01*
X42353312Y-101193198D01*
X41798899Y-100822752D01*
X41182868Y-100567583D01*
X40528893Y-100437500D01*
X39862107Y-100437500D01*
X39208132Y-100567583D01*
X38592101Y-100822752D01*
X38037688Y-101193198D01*
X37566198Y-101664688D01*
X37195752Y-102219101D01*
X36940583Y-102835132D01*
X36810500Y-103489107D01*
X35317584Y-103489107D01*
X35242583Y-102497072D01*
X34838807Y-101048324D01*
X34160153Y-99706186D01*
X33966530Y-99416408D01*
X33087674Y-98600432D01*
X27865605Y-103822500D01*
X27506395Y-103822500D01*
X22284326Y-98600432D01*
X21405470Y-99416408D01*
X20666563Y-100726340D01*
X20197409Y-102155256D01*
X20016037Y-103648243D01*
X15900000Y-103648243D01*
X15900000Y-98420826D01*
X22463932Y-98420826D01*
X27686000Y-103642895D01*
X32908068Y-98420826D01*
X47482932Y-98420826D01*
X52705000Y-103642895D01*
X57927068Y-98420826D01*
X57111092Y-97541970D01*
X55801160Y-96803063D01*
X54372244Y-96333909D01*
X52879257Y-96152537D01*
X51379572Y-96265917D01*
X49930824Y-96669693D01*
X48588686Y-97348347D01*
X48298908Y-97541970D01*
X47482932Y-98420826D01*
X32908068Y-98420826D01*
X32092092Y-97541970D01*
X30782160Y-96803063D01*
X29353244Y-96333909D01*
X27860257Y-96152537D01*
X26360572Y-96265917D01*
X24911824Y-96669693D01*
X23569686Y-97348347D01*
X23279908Y-97541970D01*
X22463932Y-98420826D01*
X15900000Y-98420826D01*
X15900000Y-64202674D01*
X22463932Y-64202674D01*
X23279908Y-65081530D01*
X24589840Y-65820437D01*
X26018756Y-66289591D01*
X27511743Y-66470963D01*
X29011428Y-66357583D01*
X30460176Y-65953807D01*
X31802314Y-65275153D01*
X32092092Y-65081530D01*
X32849111Y-64266174D01*
X47482932Y-64266174D01*
X48298908Y-65145030D01*
X49608840Y-65883937D01*
X51037756Y-66353091D01*
X52530743Y-66534463D01*
X54030428Y-66421083D01*
X55479176Y-66017307D01*
X56821314Y-65338653D01*
X57111092Y-65145030D01*
X57927068Y-64266174D01*
X52705000Y-59044105D01*
X47482932Y-64266174D01*
X32849111Y-64266174D01*
X32908068Y-64202674D01*
X27686000Y-58980605D01*
X22463932Y-64202674D01*
X15900000Y-64202674D01*
X15900000Y-58626743D01*
X20016037Y-58626743D01*
X20129417Y-60126428D01*
X20533193Y-61575176D01*
X21211847Y-62917314D01*
X21405470Y-63207092D01*
X22284326Y-64023068D01*
X27506395Y-58801000D01*
X27865605Y-58801000D01*
X33087674Y-64023068D01*
X33966530Y-63207092D01*
X34705437Y-61897160D01*
X35174591Y-60468244D01*
X35355963Y-58975257D01*
X35322385Y-58531107D01*
X36874000Y-58531107D01*
X36874000Y-59197893D01*
X37004083Y-59851868D01*
X37259252Y-60467899D01*
X37629698Y-61022312D01*
X38101188Y-61493802D01*
X38655601Y-61864248D01*
X39271632Y-62119417D01*
X39925607Y-62249500D01*
X40592393Y-62249500D01*
X41246368Y-62119417D01*
X41862399Y-61864248D01*
X42416812Y-61493802D01*
X42888302Y-61022312D01*
X43258748Y-60467899D01*
X43513917Y-59851868D01*
X43644000Y-59197893D01*
X43644000Y-58690243D01*
X45035037Y-58690243D01*
X45148417Y-60189928D01*
X45552193Y-61638676D01*
X46230847Y-62980814D01*
X46424470Y-63270592D01*
X47303326Y-64086568D01*
X52525395Y-58864500D01*
X52884605Y-58864500D01*
X58106674Y-64086568D01*
X58985530Y-63270592D01*
X59724437Y-61960660D01*
X60193591Y-60531744D01*
X60374963Y-59038757D01*
X60261583Y-57539072D01*
X59857807Y-56090324D01*
X59179153Y-54748186D01*
X58985530Y-54458408D01*
X58106674Y-53642432D01*
X52884605Y-58864500D01*
X52525395Y-58864500D01*
X47303326Y-53642432D01*
X46424470Y-54458408D01*
X45685563Y-55768340D01*
X45216409Y-57197256D01*
X45035037Y-58690243D01*
X43644000Y-58690243D01*
X43644000Y-58531107D01*
X43513917Y-57877132D01*
X43258748Y-57261101D01*
X42888302Y-56706688D01*
X42416812Y-56235198D01*
X41862399Y-55864752D01*
X41246368Y-55609583D01*
X40592393Y-55479500D01*
X39925607Y-55479500D01*
X39271632Y-55609583D01*
X38655601Y-55864752D01*
X38101188Y-56235198D01*
X37629698Y-56706688D01*
X37259252Y-57261101D01*
X37004083Y-57877132D01*
X36874000Y-58531107D01*
X35322385Y-58531107D01*
X35242583Y-57475572D01*
X34838807Y-56026824D01*
X34160153Y-54684686D01*
X33966530Y-54394908D01*
X33087674Y-53578932D01*
X27865605Y-58801000D01*
X27506395Y-58801000D01*
X22284326Y-53578932D01*
X21405470Y-54394908D01*
X20666563Y-55704840D01*
X20197409Y-57133756D01*
X20016037Y-58626743D01*
X15900000Y-58626743D01*
X15900000Y-53399326D01*
X22463932Y-53399326D01*
X27686000Y-58621395D01*
X32844568Y-53462826D01*
X47482932Y-53462826D01*
X52705000Y-58684895D01*
X57927068Y-53462826D01*
X57111092Y-52583970D01*
X55801160Y-51845063D01*
X54372244Y-51375909D01*
X52879257Y-51194537D01*
X51379572Y-51307917D01*
X49930824Y-51711693D01*
X48588686Y-52390347D01*
X48298908Y-52583970D01*
X47482932Y-53462826D01*
X32844568Y-53462826D01*
X32908068Y-53399326D01*
X32092092Y-52520470D01*
X30782160Y-51781563D01*
X29353244Y-51312409D01*
X27860257Y-51131037D01*
X26360572Y-51244417D01*
X24911824Y-51648193D01*
X23569686Y-52326847D01*
X23279908Y-52520470D01*
X22463932Y-53399326D01*
X15900000Y-53399326D01*
X15900000Y-42295174D01*
X22527432Y-42295174D01*
X23343408Y-43174030D01*
X24653340Y-43912937D01*
X26082256Y-44382091D01*
X27575243Y-44563463D01*
X29074928Y-44450083D01*
X30523676Y-44046307D01*
X31865814Y-43367653D01*
X32155592Y-43174030D01*
X32971568Y-42295174D01*
X32908069Y-42231674D01*
X47482932Y-42231674D01*
X48298908Y-43110530D01*
X49608840Y-43849437D01*
X51037756Y-44318591D01*
X52530743Y-44499963D01*
X54030428Y-44386583D01*
X55479176Y-43982807D01*
X56821314Y-43304153D01*
X57111092Y-43110530D01*
X57927068Y-42231674D01*
X52705000Y-37009605D01*
X47482932Y-42231674D01*
X32908069Y-42231674D01*
X27749500Y-37073105D01*
X22527432Y-42295174D01*
X15900000Y-42295174D01*
X15900000Y-36719243D01*
X20079537Y-36719243D01*
X20192917Y-38218928D01*
X20596693Y-39667676D01*
X21275347Y-41009814D01*
X21468970Y-41299592D01*
X22347826Y-42115568D01*
X27569895Y-36893500D01*
X27929105Y-36893500D01*
X33151174Y-42115568D01*
X34030030Y-41299592D01*
X34768937Y-39989660D01*
X35238091Y-38560744D01*
X35419463Y-37067757D01*
X35376283Y-36496607D01*
X36747000Y-36496607D01*
X36747000Y-37163393D01*
X36877083Y-37817368D01*
X37132252Y-38433399D01*
X37502698Y-38987812D01*
X37974188Y-39459302D01*
X38528601Y-39829748D01*
X39144632Y-40084917D01*
X39798607Y-40215000D01*
X40465393Y-40215000D01*
X41119368Y-40084917D01*
X41735399Y-39829748D01*
X42289812Y-39459302D01*
X42761302Y-38987812D01*
X43131748Y-38433399D01*
X43386917Y-37817368D01*
X43517000Y-37163393D01*
X43517000Y-36655743D01*
X45035037Y-36655743D01*
X45148417Y-38155428D01*
X45552193Y-39604176D01*
X46230847Y-40946314D01*
X46424470Y-41236092D01*
X47303326Y-42052068D01*
X52525395Y-36830000D01*
X52884605Y-36830000D01*
X58106674Y-42052068D01*
X58985530Y-41236092D01*
X59724437Y-39926160D01*
X60193591Y-38497244D01*
X60374963Y-37004257D01*
X60261583Y-35504572D01*
X59857807Y-34055824D01*
X59179153Y-32713686D01*
X58985530Y-32423908D01*
X58106674Y-31607932D01*
X52884605Y-36830000D01*
X52525395Y-36830000D01*
X47303326Y-31607932D01*
X46424470Y-32423908D01*
X45685563Y-33733840D01*
X45216409Y-35162756D01*
X45035037Y-36655743D01*
X43517000Y-36655743D01*
X43517000Y-36496607D01*
X43386917Y-35842632D01*
X43131748Y-35226601D01*
X42761302Y-34672188D01*
X42289812Y-34200698D01*
X41735399Y-33830252D01*
X41119368Y-33575083D01*
X40465393Y-33445000D01*
X39798607Y-33445000D01*
X39144632Y-33575083D01*
X38528601Y-33830252D01*
X37974188Y-34200698D01*
X37502698Y-34672188D01*
X37132252Y-35226601D01*
X36877083Y-35842632D01*
X36747000Y-36496607D01*
X35376283Y-36496607D01*
X35306083Y-35568072D01*
X34902307Y-34119324D01*
X34223653Y-32777186D01*
X34030030Y-32487408D01*
X33151174Y-31671432D01*
X27929105Y-36893500D01*
X27569895Y-36893500D01*
X22347826Y-31671432D01*
X21468970Y-32487408D01*
X20730063Y-33797340D01*
X20260909Y-35226256D01*
X20079537Y-36719243D01*
X15900000Y-36719243D01*
X15900000Y-31491826D01*
X22527432Y-31491826D01*
X27749500Y-36713895D01*
X32971568Y-31491826D01*
X32912612Y-31428326D01*
X47482932Y-31428326D01*
X52705000Y-36650395D01*
X57927068Y-31428326D01*
X57111092Y-30549470D01*
X55801160Y-29810563D01*
X54372244Y-29341409D01*
X52879257Y-29160037D01*
X51379572Y-29273417D01*
X49930824Y-29677193D01*
X48588686Y-30355847D01*
X48298908Y-30549470D01*
X47482932Y-31428326D01*
X32912612Y-31428326D01*
X32155592Y-30612970D01*
X30845660Y-29874063D01*
X29416744Y-29404909D01*
X27923757Y-29223537D01*
X26424072Y-29336917D01*
X24975324Y-29740693D01*
X23633186Y-30419347D01*
X23343408Y-30612970D01*
X22527432Y-31491826D01*
X15900000Y-31491826D01*
X15900000Y-18934970D01*
X16026519Y-19201831D01*
X16334970Y-19616924D01*
X16718475Y-19963865D01*
X17162296Y-20229322D01*
X17649377Y-20403093D01*
X18161000Y-20478500D01*
X19561000Y-20478500D01*
X19561000Y-17970500D01*
X19815000Y-17970500D01*
X19815000Y-20478500D01*
X21215000Y-20478500D01*
X21726623Y-20403093D01*
X22213704Y-20229322D01*
X22657525Y-19963865D01*
X23041030Y-19616924D01*
X23349481Y-19201831D01*
X23571025Y-18734538D01*
X23667667Y-18380662D01*
X56729333Y-18380662D01*
X56825975Y-18734538D01*
X57047519Y-19201831D01*
X57355970Y-19616924D01*
X57739475Y-19963865D01*
X58183296Y-20229322D01*
X58670377Y-20403093D01*
X59182000Y-20478500D01*
X60582000Y-20478500D01*
X60582000Y-17970500D01*
X56836009Y-17970500D01*
X56729333Y-18380662D01*
X23667667Y-18380662D01*
X23560991Y-17970500D01*
X19815000Y-17970500D01*
X19561000Y-17970500D01*
X19541000Y-17970500D01*
X19541000Y-17716500D01*
X19561000Y-17716500D01*
X19561000Y-17696500D01*
X19815000Y-17696500D01*
X19815000Y-17716500D01*
X23560991Y-17716500D01*
X23667667Y-17306338D01*
X23571025Y-16952462D01*
X23349481Y-16485169D01*
X23041030Y-16070076D01*
X22657525Y-15723135D01*
X22316229Y-15519000D01*
X58080771Y-15519000D01*
X57739475Y-15723135D01*
%TA.AperFunction,Conductor*%
D14*
G36*
X57739475Y-15723135D02*
G01*
X57355970Y-16070076D01*
X57047519Y-16485169D01*
X56825975Y-16952462D01*
X56729333Y-17306338D01*
X56836009Y-17716500D01*
X60582000Y-17716500D01*
X60582000Y-17696500D01*
X60836000Y-17696500D01*
X60836000Y-17716500D01*
X60856000Y-17716500D01*
X60856000Y-17970500D01*
X60836000Y-17970500D01*
X60836000Y-20478500D01*
X62236000Y-20478500D01*
X62747623Y-20403093D01*
X63234704Y-20229322D01*
X63678525Y-19963865D01*
X64062030Y-19616924D01*
X64370481Y-19201831D01*
X64554500Y-18813688D01*
X64554501Y-210872142D01*
X64367481Y-210477669D01*
X64059030Y-210062576D01*
X63675525Y-209715635D01*
X63231704Y-209450178D01*
X62744623Y-209276407D01*
X62233000Y-209201000D01*
X60833000Y-209201000D01*
X60833000Y-211709000D01*
X60853000Y-211709000D01*
X60853000Y-211963000D01*
X60833000Y-211963000D01*
X60833000Y-211983000D01*
X60579000Y-211983000D01*
X60579000Y-211963000D01*
X56833009Y-211963000D01*
X56726333Y-212373162D01*
X56822975Y-212727038D01*
X57044519Y-213194331D01*
X57352970Y-213609424D01*
X57736475Y-213956365D01*
X58180296Y-214221822D01*
X58186401Y-214224000D01*
X22207599Y-214224000D01*
X22213704Y-214221822D01*
X22657525Y-213956365D01*
X23041030Y-213609424D01*
X23349481Y-213194331D01*
X23571025Y-212727038D01*
X23667667Y-212373162D01*
X23560991Y-211963000D01*
X19815000Y-211963000D01*
X19815000Y-211983000D01*
X19561000Y-211983000D01*
X19561000Y-211963000D01*
X19541000Y-211963000D01*
X19541000Y-211709000D01*
X19561000Y-211709000D01*
X19561000Y-209201000D01*
X19815000Y-209201000D01*
X19815000Y-211709000D01*
X23560991Y-211709000D01*
X23667667Y-211298838D01*
X56726333Y-211298838D01*
X56833009Y-211709000D01*
X60579000Y-211709000D01*
X60579000Y-209201000D01*
X59179000Y-209201000D01*
X58667377Y-209276407D01*
X58180296Y-209450178D01*
X57736475Y-209715635D01*
X57352970Y-210062576D01*
X57044519Y-210477669D01*
X56822975Y-210944962D01*
X56726333Y-211298838D01*
X23667667Y-211298838D01*
X23571025Y-210944962D01*
X23349481Y-210477669D01*
X23041030Y-210062576D01*
X22657525Y-209715635D01*
X22213704Y-209450178D01*
X21726623Y-209276407D01*
X21215000Y-209201000D01*
X19815000Y-209201000D01*
X19561000Y-209201000D01*
X18161000Y-209201000D01*
X17649377Y-209276407D01*
X17162296Y-209450178D01*
X16718475Y-209715635D01*
X16334970Y-210062576D01*
X16026519Y-210477669D01*
X15900000Y-210744530D01*
X15900000Y-198251174D01*
X22463932Y-198251174D01*
X23279908Y-199130030D01*
X24589840Y-199868937D01*
X26018756Y-200338091D01*
X27511743Y-200519463D01*
X29011428Y-200406083D01*
X30460176Y-200002307D01*
X31802314Y-199323653D01*
X32092092Y-199130030D01*
X32908068Y-198251174D01*
X47482932Y-198251174D01*
X48298908Y-199130030D01*
X49608840Y-199868937D01*
X51037756Y-200338091D01*
X52530743Y-200519463D01*
X54030428Y-200406083D01*
X55479176Y-200002307D01*
X56821314Y-199323653D01*
X57111092Y-199130030D01*
X57927068Y-198251174D01*
X52705000Y-193029105D01*
X47482932Y-198251174D01*
X32908068Y-198251174D01*
X27686000Y-193029105D01*
X22463932Y-198251174D01*
X15900000Y-198251174D01*
X15900000Y-192675243D01*
X20016037Y-192675243D01*
X20129417Y-194174928D01*
X20533193Y-195623676D01*
X21211847Y-196965814D01*
X21405470Y-197255592D01*
X22284326Y-198071568D01*
X27506395Y-192849500D01*
X27865605Y-192849500D01*
X33087674Y-198071568D01*
X33966530Y-197255592D01*
X34705437Y-195945660D01*
X35174591Y-194516744D01*
X35355963Y-193023757D01*
X35317584Y-192516107D01*
X36810500Y-192516107D01*
X36810500Y-193182893D01*
X36940583Y-193836868D01*
X37195752Y-194452899D01*
X37566198Y-195007312D01*
X38037688Y-195478802D01*
X38592101Y-195849248D01*
X39208132Y-196104417D01*
X39862107Y-196234500D01*
X40528893Y-196234500D01*
X41182868Y-196104417D01*
X41798899Y-195849248D01*
X42353312Y-195478802D01*
X42824802Y-195007312D01*
X43195248Y-194452899D01*
X43450417Y-193836868D01*
X43580500Y-193182893D01*
X43580500Y-192675243D01*
X45035037Y-192675243D01*
X45148417Y-194174928D01*
X45552193Y-195623676D01*
X46230847Y-196965814D01*
X46424470Y-197255592D01*
X47303326Y-198071568D01*
X52525395Y-192849500D01*
X52884605Y-192849500D01*
X58106674Y-198071568D01*
X58985530Y-197255592D01*
X59724437Y-195945660D01*
X60193591Y-194516744D01*
X60374963Y-193023757D01*
X60261583Y-191524072D01*
X59857807Y-190075324D01*
X59179153Y-188733186D01*
X58985530Y-188443408D01*
X58106674Y-187627432D01*
X52884605Y-192849500D01*
X52525395Y-192849500D01*
X47303326Y-187627432D01*
X46424470Y-188443408D01*
X45685563Y-189753340D01*
X45216409Y-191182256D01*
X45035037Y-192675243D01*
X43580500Y-192675243D01*
X43580500Y-192516107D01*
X43450417Y-191862132D01*
X43195248Y-191246101D01*
X42824802Y-190691688D01*
X42353312Y-190220198D01*
X41798899Y-189849752D01*
X41182868Y-189594583D01*
X40528893Y-189464500D01*
X39862107Y-189464500D01*
X39208132Y-189594583D01*
X38592101Y-189849752D01*
X38037688Y-190220198D01*
X37566198Y-190691688D01*
X37195752Y-191246101D01*
X36940583Y-191862132D01*
X36810500Y-192516107D01*
X35317584Y-192516107D01*
X35242583Y-191524072D01*
X34838807Y-190075324D01*
X34160153Y-188733186D01*
X33966530Y-188443408D01*
X33087674Y-187627432D01*
X27865605Y-192849500D01*
X27506395Y-192849500D01*
X22284326Y-187627432D01*
X21405470Y-188443408D01*
X20666563Y-189753340D01*
X20197409Y-191182256D01*
X20016037Y-192675243D01*
X15900000Y-192675243D01*
X15900000Y-187447826D01*
X22463932Y-187447826D01*
X27686000Y-192669895D01*
X32908068Y-187447826D01*
X47482932Y-187447826D01*
X52705000Y-192669895D01*
X57927068Y-187447826D01*
X57111092Y-186568970D01*
X55801160Y-185830063D01*
X54372244Y-185360909D01*
X52879257Y-185179537D01*
X51379572Y-185292917D01*
X49930824Y-185696693D01*
X48588686Y-186375347D01*
X48298908Y-186568970D01*
X47482932Y-187447826D01*
X32908068Y-187447826D01*
X32092092Y-186568970D01*
X30782160Y-185830063D01*
X29353244Y-185360909D01*
X27860257Y-185179537D01*
X26360572Y-185292917D01*
X24911824Y-185696693D01*
X23569686Y-186375347D01*
X23279908Y-186568970D01*
X22463932Y-187447826D01*
X15900000Y-187447826D01*
X15900000Y-176216674D01*
X22463932Y-176216674D01*
X23279908Y-177095530D01*
X24589840Y-177834437D01*
X26018756Y-178303591D01*
X27511743Y-178484963D01*
X29011428Y-178371583D01*
X30460176Y-177967807D01*
X31802314Y-177289153D01*
X32092092Y-177095530D01*
X32908068Y-176216674D01*
X47482932Y-176216674D01*
X48298908Y-177095530D01*
X49608840Y-177834437D01*
X51037756Y-178303591D01*
X52530743Y-178484963D01*
X54030428Y-178371583D01*
X55479176Y-177967807D01*
X56821314Y-177289153D01*
X57111092Y-177095530D01*
X57927068Y-176216674D01*
X52705000Y-170994605D01*
X47482932Y-176216674D01*
X32908068Y-176216674D01*
X27686000Y-170994605D01*
X22463932Y-176216674D01*
X15900000Y-176216674D01*
X15900000Y-170640743D01*
X20016037Y-170640743D01*
X20129417Y-172140428D01*
X20533193Y-173589176D01*
X21211847Y-174931314D01*
X21405470Y-175221092D01*
X22284326Y-176037068D01*
X27506395Y-170815000D01*
X27865605Y-170815000D01*
X33087674Y-176037068D01*
X33966530Y-175221092D01*
X34705437Y-173911160D01*
X35174591Y-172482244D01*
X35355963Y-170989257D01*
X35317584Y-170481607D01*
X36810500Y-170481607D01*
X36810500Y-171148393D01*
X36940583Y-171802368D01*
X37195752Y-172418399D01*
X37566198Y-172972812D01*
X38037688Y-173444302D01*
X38592101Y-173814748D01*
X39208132Y-174069917D01*
X39862107Y-174200000D01*
X40528893Y-174200000D01*
X41182868Y-174069917D01*
X41798899Y-173814748D01*
X42353312Y-173444302D01*
X42824802Y-172972812D01*
X43195248Y-172418399D01*
X43450417Y-171802368D01*
X43580500Y-171148393D01*
X43580500Y-170640743D01*
X45035037Y-170640743D01*
X45148417Y-172140428D01*
X45552193Y-173589176D01*
X46230847Y-174931314D01*
X46424470Y-175221092D01*
X47303326Y-176037068D01*
X52525395Y-170815000D01*
X52884605Y-170815000D01*
X58106674Y-176037068D01*
X58985530Y-175221092D01*
X59724437Y-173911160D01*
X60193591Y-172482244D01*
X60374963Y-170989257D01*
X60261583Y-169489572D01*
X59857807Y-168040824D01*
X59179153Y-166698686D01*
X58985530Y-166408908D01*
X58106674Y-165592932D01*
X52884605Y-170815000D01*
X52525395Y-170815000D01*
X47303326Y-165592932D01*
X46424470Y-166408908D01*
X45685563Y-167718840D01*
X45216409Y-169147756D01*
X45035037Y-170640743D01*
X43580500Y-170640743D01*
X43580500Y-170481607D01*
X43450417Y-169827632D01*
X43195248Y-169211601D01*
X42824802Y-168657188D01*
X42353312Y-168185698D01*
X41798899Y-167815252D01*
X41182868Y-167560083D01*
X40528893Y-167430000D01*
X39862107Y-167430000D01*
X39208132Y-167560083D01*
X38592101Y-167815252D01*
X38037688Y-168185698D01*
X37566198Y-168657188D01*
X37195752Y-169211601D01*
X36940583Y-169827632D01*
X36810500Y-170481607D01*
X35317584Y-170481607D01*
X35242583Y-169489572D01*
X34838807Y-168040824D01*
X34160153Y-166698686D01*
X33966530Y-166408908D01*
X33087674Y-165592932D01*
X27865605Y-170815000D01*
X27506395Y-170815000D01*
X22284326Y-165592932D01*
X21405470Y-166408908D01*
X20666563Y-167718840D01*
X20197409Y-169147756D01*
X20016037Y-170640743D01*
X15900000Y-170640743D01*
X15900000Y-165413326D01*
X22463932Y-165413326D01*
X27686000Y-170635395D01*
X32908068Y-165413326D01*
X47482932Y-165413326D01*
X52705000Y-170635395D01*
X57927068Y-165413326D01*
X57111092Y-164534470D01*
X55801160Y-163795563D01*
X54372244Y-163326409D01*
X52879257Y-163145037D01*
X51379572Y-163258417D01*
X49930824Y-163662193D01*
X48588686Y-164340847D01*
X48298908Y-164534470D01*
X47482932Y-165413326D01*
X32908068Y-165413326D01*
X32092092Y-164534470D01*
X30782160Y-163795563D01*
X29353244Y-163326409D01*
X27860257Y-163145037D01*
X26360572Y-163258417D01*
X24911824Y-163662193D01*
X23569686Y-164340847D01*
X23279908Y-164534470D01*
X22463932Y-165413326D01*
X15900000Y-165413326D01*
X15900000Y-131258674D01*
X22463932Y-131258674D01*
X23279908Y-132137530D01*
X24589840Y-132876437D01*
X26018756Y-133345591D01*
X27511743Y-133526963D01*
X29011428Y-133413583D01*
X30460176Y-133009807D01*
X31802314Y-132331153D01*
X32092092Y-132137530D01*
X32908068Y-131258674D01*
X32844569Y-131195174D01*
X47482932Y-131195174D01*
X48298908Y-132074030D01*
X49608840Y-132812937D01*
X51037756Y-133282091D01*
X52530743Y-133463463D01*
X54030428Y-133350083D01*
X55479176Y-132946307D01*
X56821314Y-132267653D01*
X57111092Y-132074030D01*
X57927068Y-131195174D01*
X52705000Y-125973105D01*
X47482932Y-131195174D01*
X32844569Y-131195174D01*
X27686000Y-126036605D01*
X22463932Y-131258674D01*
X15900000Y-131258674D01*
X15900000Y-125682743D01*
X20016037Y-125682743D01*
X20129417Y-127182428D01*
X20533193Y-128631176D01*
X21211847Y-129973314D01*
X21405470Y-130263092D01*
X22284326Y-131079068D01*
X27506395Y-125857000D01*
X27865605Y-125857000D01*
X33087674Y-131079068D01*
X33966530Y-130263092D01*
X34705437Y-128953160D01*
X35174591Y-127524244D01*
X35355963Y-126031257D01*
X35312783Y-125460107D01*
X36810500Y-125460107D01*
X36810500Y-126126893D01*
X36940583Y-126780868D01*
X37195752Y-127396899D01*
X37566198Y-127951312D01*
X38037688Y-128422802D01*
X38592101Y-128793248D01*
X39208132Y-129048417D01*
X39862107Y-129178500D01*
X40528893Y-129178500D01*
X41182868Y-129048417D01*
X41798899Y-128793248D01*
X42353312Y-128422802D01*
X42824802Y-127951312D01*
X43195248Y-127396899D01*
X43450417Y-126780868D01*
X43580500Y-126126893D01*
X43580500Y-125619243D01*
X45035037Y-125619243D01*
X45148417Y-127118928D01*
X45552193Y-128567676D01*
X46230847Y-129909814D01*
X46424470Y-130199592D01*
X47303326Y-131015568D01*
X52525395Y-125793500D01*
X52884605Y-125793500D01*
X58106674Y-131015568D01*
X58985530Y-130199592D01*
X59724437Y-128889660D01*
X60193591Y-127460744D01*
X60374963Y-125967757D01*
X60261583Y-124468072D01*
X59857807Y-123019324D01*
X59179153Y-121677186D01*
X58985530Y-121387408D01*
X58106674Y-120571432D01*
X52884605Y-125793500D01*
X52525395Y-125793500D01*
X47303326Y-120571432D01*
X46424470Y-121387408D01*
X45685563Y-122697340D01*
X45216409Y-124126256D01*
X45035037Y-125619243D01*
X43580500Y-125619243D01*
X43580500Y-125460107D01*
X43450417Y-124806132D01*
X43195248Y-124190101D01*
X42824802Y-123635688D01*
X42353312Y-123164198D01*
X41798899Y-122793752D01*
X41182868Y-122538583D01*
X40528893Y-122408500D01*
X39862107Y-122408500D01*
X39208132Y-122538583D01*
X38592101Y-122793752D01*
X38037688Y-123164198D01*
X37566198Y-123635688D01*
X37195752Y-124190101D01*
X36940583Y-124806132D01*
X36810500Y-125460107D01*
X35312783Y-125460107D01*
X35242583Y-124531572D01*
X34838807Y-123082824D01*
X34160153Y-121740686D01*
X33966530Y-121450908D01*
X33087674Y-120634932D01*
X27865605Y-125857000D01*
X27506395Y-125857000D01*
X22284326Y-120634932D01*
X21405470Y-121450908D01*
X20666563Y-122760840D01*
X20197409Y-124189756D01*
X20016037Y-125682743D01*
X15900000Y-125682743D01*
X15900000Y-120455326D01*
X22463932Y-120455326D01*
X27686000Y-125677395D01*
X32908068Y-120455326D01*
X32849112Y-120391826D01*
X47482932Y-120391826D01*
X52705000Y-125613895D01*
X57927068Y-120391826D01*
X57111092Y-119512970D01*
X55801160Y-118774063D01*
X54372244Y-118304909D01*
X52879257Y-118123537D01*
X51379572Y-118236917D01*
X49930824Y-118640693D01*
X48588686Y-119319347D01*
X48298908Y-119512970D01*
X47482932Y-120391826D01*
X32849112Y-120391826D01*
X32092092Y-119576470D01*
X30782160Y-118837563D01*
X29353244Y-118368409D01*
X27860257Y-118187037D01*
X26360572Y-118300417D01*
X24911824Y-118704193D01*
X23569686Y-119382847D01*
X23279908Y-119576470D01*
X22463932Y-120455326D01*
X15900000Y-120455326D01*
X15900000Y-109224174D01*
X22463932Y-109224174D01*
X23279908Y-110103030D01*
X24589840Y-110841937D01*
X26018756Y-111311091D01*
X27511743Y-111492463D01*
X29011428Y-111379083D01*
X30460176Y-110975307D01*
X31802314Y-110296653D01*
X32092092Y-110103030D01*
X32908068Y-109224174D01*
X47482932Y-109224174D01*
X48298908Y-110103030D01*
X49608840Y-110841937D01*
X51037756Y-111311091D01*
X52530743Y-111492463D01*
X54030428Y-111379083D01*
X55479176Y-110975307D01*
X56821314Y-110296653D01*
X57111092Y-110103030D01*
X57927068Y-109224174D01*
X52705000Y-104002105D01*
X47482932Y-109224174D01*
X32908068Y-109224174D01*
X27686000Y-104002105D01*
X22463932Y-109224174D01*
X15900000Y-109224174D01*
X15900000Y-103648243D01*
X20016037Y-103648243D01*
X20129417Y-105147928D01*
X20533193Y-106596676D01*
X21211847Y-107938814D01*
X21405470Y-108228592D01*
X22284326Y-109044568D01*
X27506395Y-103822500D01*
X27865605Y-103822500D01*
X33087674Y-109044568D01*
X33966530Y-108228592D01*
X34705437Y-106918660D01*
X35174591Y-105489744D01*
X35355963Y-103996757D01*
X35317584Y-103489107D01*
X36810500Y-103489107D01*
X36810500Y-104155893D01*
X36940583Y-104809868D01*
X37195752Y-105425899D01*
X37566198Y-105980312D01*
X38037688Y-106451802D01*
X38592101Y-106822248D01*
X39208132Y-107077417D01*
X39862107Y-107207500D01*
X40528893Y-107207500D01*
X41182868Y-107077417D01*
X41798899Y-106822248D01*
X42353312Y-106451802D01*
X42824802Y-105980312D01*
X43195248Y-105425899D01*
X43450417Y-104809868D01*
X43580500Y-104155893D01*
X43580500Y-103648243D01*
X45035037Y-103648243D01*
X45148417Y-105147928D01*
X45552193Y-106596676D01*
X46230847Y-107938814D01*
X46424470Y-108228592D01*
X47303326Y-109044568D01*
X52525395Y-103822500D01*
X52884605Y-103822500D01*
X58106674Y-109044568D01*
X58985530Y-108228592D01*
X59724437Y-106918660D01*
X60193591Y-105489744D01*
X60374963Y-103996757D01*
X60261583Y-102497072D01*
X59857807Y-101048324D01*
X59179153Y-99706186D01*
X58985530Y-99416408D01*
X58106674Y-98600432D01*
X52884605Y-103822500D01*
X52525395Y-103822500D01*
X47303326Y-98600432D01*
X46424470Y-99416408D01*
X45685563Y-100726340D01*
X45216409Y-102155256D01*
X45035037Y-103648243D01*
X43580500Y-103648243D01*
X43580500Y-103489107D01*
X43450417Y-102835132D01*
X43195248Y-102219101D01*
X42824802Y-101664688D01*
X42353312Y-101193198D01*
X41798899Y-100822752D01*
X41182868Y-100567583D01*
X40528893Y-100437500D01*
X39862107Y-100437500D01*
X39208132Y-100567583D01*
X38592101Y-100822752D01*
X38037688Y-101193198D01*
X37566198Y-101664688D01*
X37195752Y-102219101D01*
X36940583Y-102835132D01*
X36810500Y-103489107D01*
X35317584Y-103489107D01*
X35242583Y-102497072D01*
X34838807Y-101048324D01*
X34160153Y-99706186D01*
X33966530Y-99416408D01*
X33087674Y-98600432D01*
X27865605Y-103822500D01*
X27506395Y-103822500D01*
X22284326Y-98600432D01*
X21405470Y-99416408D01*
X20666563Y-100726340D01*
X20197409Y-102155256D01*
X20016037Y-103648243D01*
X15900000Y-103648243D01*
X15900000Y-98420826D01*
X22463932Y-98420826D01*
X27686000Y-103642895D01*
X32908068Y-98420826D01*
X47482932Y-98420826D01*
X52705000Y-103642895D01*
X57927068Y-98420826D01*
X57111092Y-97541970D01*
X55801160Y-96803063D01*
X54372244Y-96333909D01*
X52879257Y-96152537D01*
X51379572Y-96265917D01*
X49930824Y-96669693D01*
X48588686Y-97348347D01*
X48298908Y-97541970D01*
X47482932Y-98420826D01*
X32908068Y-98420826D01*
X32092092Y-97541970D01*
X30782160Y-96803063D01*
X29353244Y-96333909D01*
X27860257Y-96152537D01*
X26360572Y-96265917D01*
X24911824Y-96669693D01*
X23569686Y-97348347D01*
X23279908Y-97541970D01*
X22463932Y-98420826D01*
X15900000Y-98420826D01*
X15900000Y-64202674D01*
X22463932Y-64202674D01*
X23279908Y-65081530D01*
X24589840Y-65820437D01*
X26018756Y-66289591D01*
X27511743Y-66470963D01*
X29011428Y-66357583D01*
X30460176Y-65953807D01*
X31802314Y-65275153D01*
X32092092Y-65081530D01*
X32849111Y-64266174D01*
X47482932Y-64266174D01*
X48298908Y-65145030D01*
X49608840Y-65883937D01*
X51037756Y-66353091D01*
X52530743Y-66534463D01*
X54030428Y-66421083D01*
X55479176Y-66017307D01*
X56821314Y-65338653D01*
X57111092Y-65145030D01*
X57927068Y-64266174D01*
X52705000Y-59044105D01*
X47482932Y-64266174D01*
X32849111Y-64266174D01*
X32908068Y-64202674D01*
X27686000Y-58980605D01*
X22463932Y-64202674D01*
X15900000Y-64202674D01*
X15900000Y-58626743D01*
X20016037Y-58626743D01*
X20129417Y-60126428D01*
X20533193Y-61575176D01*
X21211847Y-62917314D01*
X21405470Y-63207092D01*
X22284326Y-64023068D01*
X27506395Y-58801000D01*
X27865605Y-58801000D01*
X33087674Y-64023068D01*
X33966530Y-63207092D01*
X34705437Y-61897160D01*
X35174591Y-60468244D01*
X35355963Y-58975257D01*
X35322385Y-58531107D01*
X36874000Y-58531107D01*
X36874000Y-59197893D01*
X37004083Y-59851868D01*
X37259252Y-60467899D01*
X37629698Y-61022312D01*
X38101188Y-61493802D01*
X38655601Y-61864248D01*
X39271632Y-62119417D01*
X39925607Y-62249500D01*
X40592393Y-62249500D01*
X41246368Y-62119417D01*
X41862399Y-61864248D01*
X42416812Y-61493802D01*
X42888302Y-61022312D01*
X43258748Y-60467899D01*
X43513917Y-59851868D01*
X43644000Y-59197893D01*
X43644000Y-58690243D01*
X45035037Y-58690243D01*
X45148417Y-60189928D01*
X45552193Y-61638676D01*
X46230847Y-62980814D01*
X46424470Y-63270592D01*
X47303326Y-64086568D01*
X52525395Y-58864500D01*
X52884605Y-58864500D01*
X58106674Y-64086568D01*
X58985530Y-63270592D01*
X59724437Y-61960660D01*
X60193591Y-60531744D01*
X60374963Y-59038757D01*
X60261583Y-57539072D01*
X59857807Y-56090324D01*
X59179153Y-54748186D01*
X58985530Y-54458408D01*
X58106674Y-53642432D01*
X52884605Y-58864500D01*
X52525395Y-58864500D01*
X47303326Y-53642432D01*
X46424470Y-54458408D01*
X45685563Y-55768340D01*
X45216409Y-57197256D01*
X45035037Y-58690243D01*
X43644000Y-58690243D01*
X43644000Y-58531107D01*
X43513917Y-57877132D01*
X43258748Y-57261101D01*
X42888302Y-56706688D01*
X42416812Y-56235198D01*
X41862399Y-55864752D01*
X41246368Y-55609583D01*
X40592393Y-55479500D01*
X39925607Y-55479500D01*
X39271632Y-55609583D01*
X38655601Y-55864752D01*
X38101188Y-56235198D01*
X37629698Y-56706688D01*
X37259252Y-57261101D01*
X37004083Y-57877132D01*
X36874000Y-58531107D01*
X35322385Y-58531107D01*
X35242583Y-57475572D01*
X34838807Y-56026824D01*
X34160153Y-54684686D01*
X33966530Y-54394908D01*
X33087674Y-53578932D01*
X27865605Y-58801000D01*
X27506395Y-58801000D01*
X22284326Y-53578932D01*
X21405470Y-54394908D01*
X20666563Y-55704840D01*
X20197409Y-57133756D01*
X20016037Y-58626743D01*
X15900000Y-58626743D01*
X15900000Y-53399326D01*
X22463932Y-53399326D01*
X27686000Y-58621395D01*
X32844568Y-53462826D01*
X47482932Y-53462826D01*
X52705000Y-58684895D01*
X57927068Y-53462826D01*
X57111092Y-52583970D01*
X55801160Y-51845063D01*
X54372244Y-51375909D01*
X52879257Y-51194537D01*
X51379572Y-51307917D01*
X49930824Y-51711693D01*
X48588686Y-52390347D01*
X48298908Y-52583970D01*
X47482932Y-53462826D01*
X32844568Y-53462826D01*
X32908068Y-53399326D01*
X32092092Y-52520470D01*
X30782160Y-51781563D01*
X29353244Y-51312409D01*
X27860257Y-51131037D01*
X26360572Y-51244417D01*
X24911824Y-51648193D01*
X23569686Y-52326847D01*
X23279908Y-52520470D01*
X22463932Y-53399326D01*
X15900000Y-53399326D01*
X15900000Y-42295174D01*
X22527432Y-42295174D01*
X23343408Y-43174030D01*
X24653340Y-43912937D01*
X26082256Y-44382091D01*
X27575243Y-44563463D01*
X29074928Y-44450083D01*
X30523676Y-44046307D01*
X31865814Y-43367653D01*
X32155592Y-43174030D01*
X32971568Y-42295174D01*
X32908069Y-42231674D01*
X47482932Y-42231674D01*
X48298908Y-43110530D01*
X49608840Y-43849437D01*
X51037756Y-44318591D01*
X52530743Y-44499963D01*
X54030428Y-44386583D01*
X55479176Y-43982807D01*
X56821314Y-43304153D01*
X57111092Y-43110530D01*
X57927068Y-42231674D01*
X52705000Y-37009605D01*
X47482932Y-42231674D01*
X32908069Y-42231674D01*
X27749500Y-37073105D01*
X22527432Y-42295174D01*
X15900000Y-42295174D01*
X15900000Y-36719243D01*
X20079537Y-36719243D01*
X20192917Y-38218928D01*
X20596693Y-39667676D01*
X21275347Y-41009814D01*
X21468970Y-41299592D01*
X22347826Y-42115568D01*
X27569895Y-36893500D01*
X27929105Y-36893500D01*
X33151174Y-42115568D01*
X34030030Y-41299592D01*
X34768937Y-39989660D01*
X35238091Y-38560744D01*
X35419463Y-37067757D01*
X35376283Y-36496607D01*
X36747000Y-36496607D01*
X36747000Y-37163393D01*
X36877083Y-37817368D01*
X37132252Y-38433399D01*
X37502698Y-38987812D01*
X37974188Y-39459302D01*
X38528601Y-39829748D01*
X39144632Y-40084917D01*
X39798607Y-40215000D01*
X40465393Y-40215000D01*
X41119368Y-40084917D01*
X41735399Y-39829748D01*
X42289812Y-39459302D01*
X42761302Y-38987812D01*
X43131748Y-38433399D01*
X43386917Y-37817368D01*
X43517000Y-37163393D01*
X43517000Y-36655743D01*
X45035037Y-36655743D01*
X45148417Y-38155428D01*
X45552193Y-39604176D01*
X46230847Y-40946314D01*
X46424470Y-41236092D01*
X47303326Y-42052068D01*
X52525395Y-36830000D01*
X52884605Y-36830000D01*
X58106674Y-42052068D01*
X58985530Y-41236092D01*
X59724437Y-39926160D01*
X60193591Y-38497244D01*
X60374963Y-37004257D01*
X60261583Y-35504572D01*
X59857807Y-34055824D01*
X59179153Y-32713686D01*
X58985530Y-32423908D01*
X58106674Y-31607932D01*
X52884605Y-36830000D01*
X52525395Y-36830000D01*
X47303326Y-31607932D01*
X46424470Y-32423908D01*
X45685563Y-33733840D01*
X45216409Y-35162756D01*
X45035037Y-36655743D01*
X43517000Y-36655743D01*
X43517000Y-36496607D01*
X43386917Y-35842632D01*
X43131748Y-35226601D01*
X42761302Y-34672188D01*
X42289812Y-34200698D01*
X41735399Y-33830252D01*
X41119368Y-33575083D01*
X40465393Y-33445000D01*
X39798607Y-33445000D01*
X39144632Y-33575083D01*
X38528601Y-33830252D01*
X37974188Y-34200698D01*
X37502698Y-34672188D01*
X37132252Y-35226601D01*
X36877083Y-35842632D01*
X36747000Y-36496607D01*
X35376283Y-36496607D01*
X35306083Y-35568072D01*
X34902307Y-34119324D01*
X34223653Y-32777186D01*
X34030030Y-32487408D01*
X33151174Y-31671432D01*
X27929105Y-36893500D01*
X27569895Y-36893500D01*
X22347826Y-31671432D01*
X21468970Y-32487408D01*
X20730063Y-33797340D01*
X20260909Y-35226256D01*
X20079537Y-36719243D01*
X15900000Y-36719243D01*
X15900000Y-31491826D01*
X22527432Y-31491826D01*
X27749500Y-36713895D01*
X32971568Y-31491826D01*
X32912612Y-31428326D01*
X47482932Y-31428326D01*
X52705000Y-36650395D01*
X57927068Y-31428326D01*
X57111092Y-30549470D01*
X55801160Y-29810563D01*
X54372244Y-29341409D01*
X52879257Y-29160037D01*
X51379572Y-29273417D01*
X49930824Y-29677193D01*
X48588686Y-30355847D01*
X48298908Y-30549470D01*
X47482932Y-31428326D01*
X32912612Y-31428326D01*
X32155592Y-30612970D01*
X30845660Y-29874063D01*
X29416744Y-29404909D01*
X27923757Y-29223537D01*
X26424072Y-29336917D01*
X24975324Y-29740693D01*
X23633186Y-30419347D01*
X23343408Y-30612970D01*
X22527432Y-31491826D01*
X15900000Y-31491826D01*
X15900000Y-18934970D01*
X16026519Y-19201831D01*
X16334970Y-19616924D01*
X16718475Y-19963865D01*
X17162296Y-20229322D01*
X17649377Y-20403093D01*
X18161000Y-20478500D01*
X19561000Y-20478500D01*
X19561000Y-17970500D01*
X19815000Y-17970500D01*
X19815000Y-20478500D01*
X21215000Y-20478500D01*
X21726623Y-20403093D01*
X22213704Y-20229322D01*
X22657525Y-19963865D01*
X23041030Y-19616924D01*
X23349481Y-19201831D01*
X23571025Y-18734538D01*
X23667667Y-18380662D01*
X56729333Y-18380662D01*
X56825975Y-18734538D01*
X57047519Y-19201831D01*
X57355970Y-19616924D01*
X57739475Y-19963865D01*
X58183296Y-20229322D01*
X58670377Y-20403093D01*
X59182000Y-20478500D01*
X60582000Y-20478500D01*
X60582000Y-17970500D01*
X56836009Y-17970500D01*
X56729333Y-18380662D01*
X23667667Y-18380662D01*
X23560991Y-17970500D01*
X19815000Y-17970500D01*
X19561000Y-17970500D01*
X19541000Y-17970500D01*
X19541000Y-17716500D01*
X19561000Y-17716500D01*
X19561000Y-17696500D01*
X19815000Y-17696500D01*
X19815000Y-17716500D01*
X23560991Y-17716500D01*
X23667667Y-17306338D01*
X23571025Y-16952462D01*
X23349481Y-16485169D01*
X23041030Y-16070076D01*
X22657525Y-15723135D01*
X22316229Y-15519000D01*
X58080771Y-15519000D01*
X57739475Y-15723135D01*
G37*
%TD.AperFunction*%
%TD*%
M02*
