%TF.GenerationSoftware,KiCad,Pcbnew,(5.1.9)-1*%
%TF.CreationDate,2021-09-13T20:57:42+01:00*%
%TF.ProjectId,KOSMO Mult faceplate,4b4f534d-4f20-44d7-956c-742066616365,rev?*%
%TF.SameCoordinates,Original*%
%TF.FileFunction,Other,Comment*%
%FSLAX46Y46*%
G04 Gerber Fmt 4.6, Leading zero omitted, Abs format (unit mm)*
G04 Created by KiCad (PCBNEW (5.1.9)-1) date 2021-09-13 20:57:42*
%MOMM*%
%LPD*%
G01*
G04 APERTURE LIST*
%ADD10C,0.150000*%
%ADD11C,0.120000*%
G04 APERTURE END LIST*
D10*
%TO.C,H26*%
X44195500Y-170815000D02*
G75*
G03*
X44195500Y-170815000I-4000000J0D01*
G01*
D11*
%TO.C,H5*%
X18288000Y-214836000D02*
G75*
G02*
X18288000Y-208836000I0J3000000D01*
G01*
X21088000Y-208836000D02*
G75*
G02*
X21088000Y-214836000I0J-3000000D01*
G01*
X18288000Y-214836000D02*
X21088000Y-214836000D01*
X18288000Y-208836000D02*
X21088000Y-208836000D01*
%TO.C,H10*%
X59309000Y-14843500D02*
X62109000Y-14843500D01*
X59309000Y-20843500D02*
X62109000Y-20843500D01*
X62109000Y-14843500D02*
G75*
G02*
X62109000Y-20843500I0J-3000000D01*
G01*
X59309000Y-20843500D02*
G75*
G02*
X59309000Y-14843500I0J3000000D01*
G01*
%TO.C,H19*%
X18288000Y-20843500D02*
G75*
G02*
X18288000Y-14843500I0J3000000D01*
G01*
X21088000Y-14843500D02*
G75*
G02*
X21088000Y-20843500I0J-3000000D01*
G01*
X18288000Y-20843500D02*
X21088000Y-20843500D01*
X18288000Y-14843500D02*
X21088000Y-14843500D01*
D10*
%TO.C,H20*%
X44259000Y-58864500D02*
G75*
G03*
X44259000Y-58864500I-4000000J0D01*
G01*
%TO.C,H21*%
X44195500Y-103822500D02*
G75*
G03*
X44195500Y-103822500I-4000000J0D01*
G01*
%TO.C,H22*%
X44195500Y-125793500D02*
G75*
G03*
X44195500Y-125793500I-4000000J0D01*
G01*
%TO.C,H25*%
X44132000Y-36830000D02*
G75*
G03*
X44132000Y-36830000I-4000000J0D01*
G01*
D11*
%TO.C,H28*%
X59306000Y-208836000D02*
X62106000Y-208836000D01*
X59306000Y-214836000D02*
X62106000Y-214836000D01*
X62106000Y-208836000D02*
G75*
G02*
X62106000Y-214836000I0J-3000000D01*
G01*
X59306000Y-214836000D02*
G75*
G02*
X59306000Y-208836000I0J3000000D01*
G01*
D10*
%TO.C,H2*%
X37249500Y-36893500D02*
G75*
G03*
X37249500Y-36893500I-9500000J0D01*
G01*
%TO.C,H3*%
X37186000Y-125857000D02*
G75*
G03*
X37186000Y-125857000I-9500000J0D01*
G01*
%TO.C,H4*%
X62205000Y-36830000D02*
G75*
G03*
X62205000Y-36830000I-9500000J0D01*
G01*
%TO.C,H7*%
X62205000Y-125793500D02*
G75*
G03*
X62205000Y-125793500I-9500000J0D01*
G01*
%TO.C,H8*%
X62205000Y-192849500D02*
G75*
G03*
X62205000Y-192849500I-9500000J0D01*
G01*
%TO.C,H9*%
X37186000Y-58801000D02*
G75*
G03*
X37186000Y-58801000I-9500000J0D01*
G01*
%TO.C,H12*%
X37186000Y-170815000D02*
G75*
G03*
X37186000Y-170815000I-9500000J0D01*
G01*
%TO.C,H13*%
X37186000Y-192849500D02*
G75*
G03*
X37186000Y-192849500I-9500000J0D01*
G01*
%TO.C,H14*%
X62205000Y-58864500D02*
G75*
G03*
X62205000Y-58864500I-9500000J0D01*
G01*
%TO.C,H16*%
X62205000Y-170815000D02*
G75*
G03*
X62205000Y-170815000I-9500000J0D01*
G01*
%TO.C,H17*%
X62205000Y-103822500D02*
G75*
G03*
X62205000Y-103822500I-9500000J0D01*
G01*
%TO.C,H18*%
X37186000Y-103822500D02*
G75*
G03*
X37186000Y-103822500I-9500000J0D01*
G01*
%TO.C,H23*%
X44195500Y-192849500D02*
G75*
G03*
X44195500Y-192849500I-4000000J0D01*
G01*
%TD*%
M02*
