M48
; DRILL file {KiCad (5.1.9)-1} date 09/13/21 20:57:45
; FORMAT={-:-/ absolute / inch / decimal}
; #@! TF.CreationDate,2021-09-13T20:57:45+01:00
; #@! TF.GenerationSoftware,Kicad,Pcbnew,(5.1.9)-1
; #@! TF.FileFunction,Plated,1,2,PTH
FMAT,2
INCH
T1C0.1260
T2C0.1969
T3C0.3937
%
G90
G05
T2
X1.58Y-1.45
X1.5825Y-4.0875
X1.5825Y-4.9525
X1.5825Y-6.725
X1.5825Y-7.5925
X1.585Y-2.3175
T3
X1.09Y-2.315
X1.09Y-4.0875
X1.09Y-4.955
X1.09Y-6.725
X1.09Y-7.5925
X1.0925Y-1.4525
X2.075Y-1.45
X2.075Y-2.3175
X2.075Y-4.0875
X2.075Y-4.9525
X2.075Y-6.725
X2.075Y-7.5925
T1
G00X0.72Y-0.7025
M15
G01X0.8302Y-0.7025
M16
G05
G00X0.72Y-8.34
M15
G01X0.8302Y-8.34
M16
G05
G00X2.3349Y-8.34
M15
G01X2.4451Y-8.34
M16
G05
G00X2.335Y-0.7025
M15
G01X2.4452Y-0.7025
M16
G05
T0
M30
